<?xml version="1.0" encoding="UTF-8" standalone="no"?>
<!DOCTYPE svg PUBLIC "-//W3C//DTD SVG 1.1//EN"
 "http://www.w3.org/Graphics/SVG/1.1/DTD/svg11.dtd">
<!-- Generated by graphviz version 2.38.0 (20140413.2041)
 -->
<!-- Title: /home/travis/build/AliceO2Group/Monitoring/include/Monitoring/Backend.h Pages: 1 -->
<svg width="2416pt" height="295pt"
 viewBox="0.00 0.00 2416.00 295.00" xmlns="http://www.w3.org/2000/svg" xmlns:xlink="http://www.w3.org/1999/xlink">
<g id="graph0" class="graph" transform="scale(1 1) rotate(0) translate(4 291)">
<title>/home/travis/build/AliceO2Group/Monitoring/include/Monitoring/Backend.h</title>
<!-- Node1 -->
<g id="node1" class="node"><title>Node1</title>
<polygon fill="#bfbfbf" stroke="black" points="1843,-245.5 1843,-286.5 1991,-286.5 1991,-245.5 1843,-245.5"/>
<text text-anchor="start" x="1851" y="-274.5" font-family="Helvetica,sans-Serif" font-size="10.00">/home/travis/build</text>
<text text-anchor="start" x="1851" y="-263.5" font-family="Helvetica,sans-Serif" font-size="10.00">/AliceO2Group/Monitoring</text>
<text text-anchor="middle" x="1917" y="-252.5" font-family="Helvetica,sans-Serif" font-size="10.00">/include/Monitoring/Backend.h</text>
</g>
<!-- Node2 -->
<g id="node2" class="node"><title>Node2</title>
<g id="a_node2"><a xlink:href="Monitoring_8h.html" target="_top" xlink:title="/home/travis/build\l/AliceO2Group/Monitoring\l/include/Monitoring/Monitoring.h">
<polygon fill="none" stroke="black" points="1350.5,-167.5 1350.5,-208.5 1505.5,-208.5 1505.5,-167.5 1350.5,-167.5"/>
<text text-anchor="start" x="1358.5" y="-196.5" font-family="Helvetica,sans-Serif" font-size="10.00">/home/travis/build</text>
<text text-anchor="start" x="1358.5" y="-185.5" font-family="Helvetica,sans-Serif" font-size="10.00">/AliceO2Group/Monitoring</text>
<text text-anchor="middle" x="1428" y="-174.5" font-family="Helvetica,sans-Serif" font-size="10.00">/include/Monitoring/Monitoring.h</text>
</a>
</g>
</g>
<!-- Node1&#45;&gt;Node2 -->
<g id="edge1" class="edge"><title>Node1&#45;&gt;Node2</title>
<path fill="none" stroke="midnightblue" d="M1832.9,-251.93C1741.07,-237.657 1595.2,-214.986 1505.89,-201.106"/>
<polygon fill="midnightblue" stroke="midnightblue" points="1832.58,-255.421 1843,-253.499 1833.65,-248.504 1832.58,-255.421"/>
</g>
<!-- Node19 -->
<g id="node19" class="node"><title>Node19</title>
<g id="a_node19"><a xlink:href="ApMonBackend_8h.html" target="_top" xlink:title="/home/travis/build\l/AliceO2Group/Monitoring\l/src/Backends/ApMonBackend.h">
<polygon fill="none" stroke="black" points="1674,-167.5 1674,-208.5 1834,-208.5 1834,-167.5 1674,-167.5"/>
<text text-anchor="start" x="1682" y="-196.5" font-family="Helvetica,sans-Serif" font-size="10.00">/home/travis/build</text>
<text text-anchor="start" x="1682" y="-185.5" font-family="Helvetica,sans-Serif" font-size="10.00">/AliceO2Group/Monitoring</text>
<text text-anchor="middle" x="1754" y="-174.5" font-family="Helvetica,sans-Serif" font-size="10.00">/src/Backends/ApMonBackend.h</text>
</a>
</g>
</g>
<!-- Node1&#45;&gt;Node19 -->
<g id="edge18" class="edge"><title>Node1&#45;&gt;Node19</title>
<path fill="none" stroke="midnightblue" d="M1865.93,-241.189C1843.38,-230.675 1817.2,-218.469 1795.83,-208.506"/>
<polygon fill="midnightblue" stroke="midnightblue" points="1864.48,-244.374 1875.02,-245.428 1867.44,-238.03 1864.48,-244.374"/>
</g>
<!-- Node21 -->
<g id="node21" class="node"><title>Node21</title>
<g id="a_node21"><a xlink:href="InfluxDB_8h.html" target="_top" xlink:title="/home/travis/build\l/AliceO2Group/Monitoring\l/src/Backends/InfluxDB.h">
<polygon fill="none" stroke="black" points="1852.5,-167.5 1852.5,-208.5 1981.5,-208.5 1981.5,-167.5 1852.5,-167.5"/>
<text text-anchor="start" x="1860.5" y="-196.5" font-family="Helvetica,sans-Serif" font-size="10.00">/home/travis/build</text>
<text text-anchor="start" x="1860.5" y="-185.5" font-family="Helvetica,sans-Serif" font-size="10.00">/AliceO2Group/Monitoring</text>
<text text-anchor="middle" x="1917" y="-174.5" font-family="Helvetica,sans-Serif" font-size="10.00">/src/Backends/InfluxDB.h</text>
</a>
</g>
</g>
<!-- Node1&#45;&gt;Node21 -->
<g id="edge20" class="edge"><title>Node1&#45;&gt;Node21</title>
<path fill="none" stroke="midnightblue" d="M1917,-235.297C1917,-226.301 1917,-216.653 1917,-208.506"/>
<polygon fill="midnightblue" stroke="midnightblue" points="1913.5,-235.428 1917,-245.428 1920.5,-235.428 1913.5,-235.428"/>
</g>
<!-- Node23 -->
<g id="node23" class="node"><title>Node23</title>
<g id="a_node23"><a xlink:href="Noop_8h.html" target="_top" xlink:title="/home/travis/build\l/AliceO2Group/Monitoring\l/src/Backends/Noop.h">
<polygon fill="none" stroke="black" points="2000,-167.5 2000,-208.5 2128,-208.5 2128,-167.5 2000,-167.5"/>
<text text-anchor="start" x="2008" y="-196.5" font-family="Helvetica,sans-Serif" font-size="10.00">/home/travis/build</text>
<text text-anchor="start" x="2008" y="-185.5" font-family="Helvetica,sans-Serif" font-size="10.00">/AliceO2Group/Monitoring</text>
<text text-anchor="middle" x="2064" y="-174.5" font-family="Helvetica,sans-Serif" font-size="10.00">/src/Backends/Noop.h</text>
</a>
</g>
</g>
<!-- Node1&#45;&gt;Node23 -->
<g id="edge23" class="edge"><title>Node1&#45;&gt;Node23</title>
<path fill="none" stroke="midnightblue" d="M1963.87,-240.768C1984.02,-230.35 2007.26,-218.336 2026.27,-208.506"/>
<polygon fill="midnightblue" stroke="midnightblue" points="1962.13,-237.726 1954.86,-245.428 1965.35,-243.945 1962.13,-237.726"/>
</g>
<!-- Node25 -->
<g id="node25" class="node"><title>Node25</title>
<g id="a_node25"><a xlink:href="Backends_2StdOut_8h_source.html" target="_top" xlink:title="/home/travis/build\l/AliceO2Group/Monitoring\l/src/Backends/StdOut.h">
<polygon fill="none" stroke="black" points="2184,-167.5 2184,-208.5 2312,-208.5 2312,-167.5 2184,-167.5"/>
<text text-anchor="start" x="2192" y="-196.5" font-family="Helvetica,sans-Serif" font-size="10.00">/home/travis/build</text>
<text text-anchor="start" x="2192" y="-185.5" font-family="Helvetica,sans-Serif" font-size="10.00">/AliceO2Group/Monitoring</text>
<text text-anchor="middle" x="2248" y="-174.5" font-family="Helvetica,sans-Serif" font-size="10.00">/src/Backends/StdOut.h</text>
</a>
</g>
</g>
<!-- Node1&#45;&gt;Node25 -->
<g id="edge26" class="edge"><title>Node1&#45;&gt;Node25</title>
<path fill="none" stroke="midnightblue" d="M2001.31,-245.641C2058.06,-232.613 2131.73,-215.697 2183.74,-203.755"/>
<polygon fill="midnightblue" stroke="midnightblue" points="2000.25,-242.295 1991.28,-247.944 2001.81,-249.117 2000.25,-242.295"/>
</g>
<!-- Node3 -->
<g id="node3" class="node"><title>Node3</title>
<g id="a_node3"><a xlink:href="MonitoringFactory_8h.html" target="_top" xlink:title="/home/travis/build\l/AliceO2Group/Monitoring\l/include/Monitoring/Monitoring\lFactory.h">
<polygon fill="none" stroke="black" points="1142,-78.5 1142,-130.5 1288,-130.5 1288,-78.5 1142,-78.5"/>
<text text-anchor="start" x="1150" y="-118.5" font-family="Helvetica,sans-Serif" font-size="10.00">/home/travis/build</text>
<text text-anchor="start" x="1150" y="-107.5" font-family="Helvetica,sans-Serif" font-size="10.00">/AliceO2Group/Monitoring</text>
<text text-anchor="start" x="1150" y="-96.5" font-family="Helvetica,sans-Serif" font-size="10.00">/include/Monitoring/Monitoring</text>
<text text-anchor="middle" x="1215" y="-85.5" font-family="Helvetica,sans-Serif" font-size="10.00">Factory.h</text>
</a>
</g>
</g>
<!-- Node2&#45;&gt;Node3 -->
<g id="edge2" class="edge"><title>Node2&#45;&gt;Node3</title>
<path fill="none" stroke="midnightblue" d="M1367.59,-163.886C1340.42,-153.49 1308.29,-141.195 1280.54,-130.576"/>
<polygon fill="midnightblue" stroke="midnightblue" points="1366.39,-167.174 1376.98,-167.479 1368.89,-160.636 1366.39,-167.174"/>
</g>
<!-- Node18 -->
<g id="node18" class="node"><title>Node18</title>
<g id="a_node18"><a xlink:href="Monitoring_8cxx.html" target="_top" xlink:title="/home/travis/build\l/AliceO2Group/Monitoring\l/src/Monitoring.cxx">
<polygon fill="none" stroke="black" points="1364,-84 1364,-125 1492,-125 1492,-84 1364,-84"/>
<text text-anchor="start" x="1372" y="-113" font-family="Helvetica,sans-Serif" font-size="10.00">/home/travis/build</text>
<text text-anchor="start" x="1372" y="-102" font-family="Helvetica,sans-Serif" font-size="10.00">/AliceO2Group/Monitoring</text>
<text text-anchor="middle" x="1428" y="-91" font-family="Helvetica,sans-Serif" font-size="10.00">/src/Monitoring.cxx</text>
</a>
</g>
</g>
<!-- Node2&#45;&gt;Node18 -->
<g id="edge17" class="edge"><title>Node2&#45;&gt;Node18</title>
<path fill="none" stroke="midnightblue" d="M1428,-157.065C1428,-146.382 1428,-134.63 1428,-125.047"/>
<polygon fill="midnightblue" stroke="midnightblue" points="1424.5,-157.271 1428,-167.271 1431.5,-157.271 1424.5,-157.271"/>
</g>
<!-- Node4 -->
<g id="node4" class="node"><title>Node4</title>
<g id="a_node4"><a xlink:href="1-Basic_8cxx.html" target="_top" xlink:title="/home/travis/build\l/AliceO2Group/Monitoring\l/examples/1&#45;Basic.cxx">
<polygon fill="none" stroke="black" points="0,-0.5 0,-41.5 128,-41.5 128,-0.5 0,-0.5"/>
<text text-anchor="start" x="8" y="-29.5" font-family="Helvetica,sans-Serif" font-size="10.00">/home/travis/build</text>
<text text-anchor="start" x="8" y="-18.5" font-family="Helvetica,sans-Serif" font-size="10.00">/AliceO2Group/Monitoring</text>
<text text-anchor="middle" x="64" y="-7.5" font-family="Helvetica,sans-Serif" font-size="10.00">/examples/1&#45;Basic.cxx</text>
</a>
</g>
</g>
<!-- Node3&#45;&gt;Node4 -->
<g id="edge3" class="edge"><title>Node3&#45;&gt;Node4</title>
<path fill="none" stroke="midnightblue" d="M1131.79,-101.019C913.526,-94.1476 328.211,-73.2893 137,-42 134.147,-41.5331 131.245,-40.9988 128.324,-40.4121"/>
<polygon fill="midnightblue" stroke="midnightblue" points="1131.8,-104.521 1141.91,-101.335 1132.02,-97.5241 1131.8,-104.521"/>
</g>
<!-- Node5 -->
<g id="node5" class="node"><title>Node5</title>
<g id="a_node5"><a xlink:href="10-Buffering_8cxx.html" target="_top" xlink:title="/home/travis/build\l/AliceO2Group/Monitoring\l/examples/10&#45;Buffering.cxx">
<polygon fill="none" stroke="black" points="146,-0.5 146,-41.5 282,-41.5 282,-0.5 146,-0.5"/>
<text text-anchor="start" x="154" y="-29.5" font-family="Helvetica,sans-Serif" font-size="10.00">/home/travis/build</text>
<text text-anchor="start" x="154" y="-18.5" font-family="Helvetica,sans-Serif" font-size="10.00">/AliceO2Group/Monitoring</text>
<text text-anchor="middle" x="214" y="-7.5" font-family="Helvetica,sans-Serif" font-size="10.00">/examples/10&#45;Buffering.cxx</text>
</a>
</g>
</g>
<!-- Node3&#45;&gt;Node5 -->
<g id="edge4" class="edge"><title>Node3&#45;&gt;Node5</title>
<path fill="none" stroke="midnightblue" d="M1131.28,-103.168C968.393,-101.369 597.913,-91.6216 291,-42 288.137,-41.5371 285.225,-41.0155 282.292,-40.448"/>
<polygon fill="midnightblue" stroke="midnightblue" points="1131.67,-106.672 1141.7,-103.275 1131.74,-99.6725 1131.67,-106.672"/>
</g>
<!-- Node6 -->
<g id="node6" class="node"><title>Node6</title>
<g id="a_node6"><a xlink:href="2-TaggedMetrics_8cxx.html" target="_top" xlink:title="/home/travis/build\l/AliceO2Group/Monitoring\l/examples/2&#45;TaggedMetrics.cxx">
<polygon fill="none" stroke="black" points="300,-0.5 300,-41.5 456,-41.5 456,-0.5 300,-0.5"/>
<text text-anchor="start" x="308" y="-29.5" font-family="Helvetica,sans-Serif" font-size="10.00">/home/travis/build</text>
<text text-anchor="start" x="308" y="-18.5" font-family="Helvetica,sans-Serif" font-size="10.00">/AliceO2Group/Monitoring</text>
<text text-anchor="middle" x="378" y="-7.5" font-family="Helvetica,sans-Serif" font-size="10.00">/examples/2&#45;TaggedMetrics.cxx</text>
</a>
</g>
</g>
<!-- Node3&#45;&gt;Node6 -->
<g id="edge5" class="edge"><title>Node3&#45;&gt;Node6</title>
<path fill="none" stroke="midnightblue" d="M1131.78,-100.595C992.904,-94.8711 705.406,-79.2905 465,-42 462.09,-41.5486 459.133,-41.0541 456.152,-40.5253"/>
<polygon fill="midnightblue" stroke="midnightblue" points="1131.79,-104.098 1141.93,-101.006 1132.08,-97.1035 1131.79,-104.098"/>
</g>
<!-- Node7 -->
<g id="node7" class="node"><title>Node7</title>
<polygon fill="none" stroke="#bfbfbf" points="474.5,-0.5 474.5,-41.5 607.5,-41.5 607.5,-0.5 474.5,-0.5"/>
<text text-anchor="start" x="482.5" y="-29.5" font-family="Helvetica,sans-Serif" font-size="10.00">/home/travis/build</text>
<text text-anchor="start" x="482.5" y="-18.5" font-family="Helvetica,sans-Serif" font-size="10.00">/AliceO2Group/Monitoring</text>
<text text-anchor="middle" x="541" y="-7.5" font-family="Helvetica,sans-Serif" font-size="10.00">/examples/3&#45;Verbosity.cxx</text>
</g>
<!-- Node3&#45;&gt;Node7 -->
<g id="edge6" class="edge"><title>Node3&#45;&gt;Node7</title>
<path fill="none" stroke="midnightblue" d="M1131.37,-99.1029C1015.05,-92.0376 798.155,-75.421 616,-42 613.217,-41.4893 610.385,-40.9278 607.532,-40.3273"/>
<polygon fill="midnightblue" stroke="midnightblue" points="1131.44,-102.613 1141.63,-99.7167 1131.86,-95.6253 1131.44,-102.613"/>
</g>
<!-- Node8 -->
<g id="node8" class="node"><title>Node8</title>
<g id="a_node8"><a xlink:href="4-RateDerivedMetric_8cxx.html" target="_top" xlink:title="/home/travis/build\l/AliceO2Group/Monitoring\l/examples/4&#45;RateDerivedMetric.cxx">
<polygon fill="none" stroke="black" points="625.5,-0.5 625.5,-41.5 798.5,-41.5 798.5,-0.5 625.5,-0.5"/>
<text text-anchor="start" x="633.5" y="-29.5" font-family="Helvetica,sans-Serif" font-size="10.00">/home/travis/build</text>
<text text-anchor="start" x="633.5" y="-18.5" font-family="Helvetica,sans-Serif" font-size="10.00">/AliceO2Group/Monitoring</text>
<text text-anchor="middle" x="712" y="-7.5" font-family="Helvetica,sans-Serif" font-size="10.00">/examples/4&#45;RateDerivedMetric.cxx</text>
</a>
</g>
</g>
<!-- Node3&#45;&gt;Node8 -->
<g id="edge7" class="edge"><title>Node3&#45;&gt;Node8</title>
<path fill="none" stroke="midnightblue" d="M1131.74,-92.3881C1049.12,-81.0238 918.997,-62.2127 807,-42 804.263,-41.5061 801.485,-40.9927 798.681,-40.4645"/>
<polygon fill="midnightblue" stroke="midnightblue" points="1131.44,-95.8799 1141.82,-93.7708 1132.39,-88.9448 1131.44,-95.8799"/>
</g>
<!-- Node9 -->
<g id="node9" class="node"><title>Node9</title>
<g id="a_node9"><a xlink:href="5-Benchmark_8cxx.html" target="_top" xlink:title="/home/travis/build\l/AliceO2Group/Monitoring\l/examples/5&#45;Benchmark.cxx">
<polygon fill="none" stroke="black" points="816.5,-0.5 816.5,-41.5 957.5,-41.5 957.5,-0.5 816.5,-0.5"/>
<text text-anchor="start" x="824.5" y="-29.5" font-family="Helvetica,sans-Serif" font-size="10.00">/home/travis/build</text>
<text text-anchor="start" x="824.5" y="-18.5" font-family="Helvetica,sans-Serif" font-size="10.00">/AliceO2Group/Monitoring</text>
<text text-anchor="middle" x="887" y="-7.5" font-family="Helvetica,sans-Serif" font-size="10.00">/examples/5&#45;Benchmark.cxx</text>
</a>
</g>
</g>
<!-- Node3&#45;&gt;Node9 -->
<g id="edge8" class="edge"><title>Node3&#45;&gt;Node9</title>
<path fill="none" stroke="midnightblue" d="M1132.16,-83.168C1083.71,-71.2433 1021.37,-55.8458 966,-42 963.255,-41.3135 960.457,-40.6123 957.63,-39.9027"/>
<polygon fill="midnightblue" stroke="midnightblue" points="1131.43,-86.5911 1141.97,-85.5816 1133.1,-79.7938 1131.43,-86.5911"/>
</g>
<!-- Node10 -->
<g id="node10" class="node"><title>Node10</title>
<g id="a_node10"><a xlink:href="6-Increment_8cxx.html" target="_top" xlink:title="/home/travis/build\l/AliceO2Group/Monitoring\l/examples/6&#45;Increment.cxx">
<polygon fill="none" stroke="black" points="975.5,-0.5 975.5,-41.5 1110.5,-41.5 1110.5,-0.5 975.5,-0.5"/>
<text text-anchor="start" x="983.5" y="-29.5" font-family="Helvetica,sans-Serif" font-size="10.00">/home/travis/build</text>
<text text-anchor="start" x="983.5" y="-18.5" font-family="Helvetica,sans-Serif" font-size="10.00">/AliceO2Group/Monitoring</text>
<text text-anchor="middle" x="1043" y="-7.5" font-family="Helvetica,sans-Serif" font-size="10.00">/examples/6&#45;Increment.cxx</text>
</a>
</g>
</g>
<!-- Node3&#45;&gt;Node10 -->
<g id="edge9" class="edge"><title>Node3&#45;&gt;Node10</title>
<path fill="none" stroke="midnightblue" d="M1152.74,-74.0012C1130,-63.2235 1104.85,-51.3065 1084.37,-41.6027"/>
<polygon fill="midnightblue" stroke="midnightblue" points="1151.46,-77.2631 1161.99,-78.3823 1154.45,-70.9374 1151.46,-77.2631"/>
</g>
<!-- Node11 -->
<g id="node11" class="node"><title>Node11</title>
<polygon fill="none" stroke="#bfbfbf" points="1128.5,-0.5 1128.5,-41.5 1301.5,-41.5 1301.5,-0.5 1128.5,-0.5"/>
<text text-anchor="start" x="1136.5" y="-29.5" font-family="Helvetica,sans-Serif" font-size="10.00">/home/travis/build</text>
<text text-anchor="start" x="1136.5" y="-18.5" font-family="Helvetica,sans-Serif" font-size="10.00">/AliceO2Group/Monitoring</text>
<text text-anchor="middle" x="1215" y="-7.5" font-family="Helvetica,sans-Serif" font-size="10.00">/examples/7&#45;InternalBenchamrk.cxx</text>
</g>
<!-- Node3&#45;&gt;Node11 -->
<g id="edge10" class="edge"><title>Node3&#45;&gt;Node11</title>
<path fill="none" stroke="midnightblue" d="M1215,-68.1474C1215,-59.0546 1215,-49.5968 1215,-41.6282"/>
<polygon fill="midnightblue" stroke="midnightblue" points="1211.5,-68.1596 1215,-78.1596 1218.5,-68.1597 1211.5,-68.1596"/>
</g>
<!-- Node12 -->
<g id="node12" class="node"><title>Node12</title>
<g id="a_node12"><a xlink:href="MonitoringFactory_8cxx.html" target="_top" xlink:title="/home/travis/build\l/AliceO2Group/Monitoring\l/src/MonitoringFactory.cxx">
<polygon fill="none" stroke="black" points="2089.5,-0.5 2089.5,-41.5 2222.5,-41.5 2222.5,-0.5 2089.5,-0.5"/>
<text text-anchor="start" x="2097.5" y="-29.5" font-family="Helvetica,sans-Serif" font-size="10.00">/home/travis/build</text>
<text text-anchor="start" x="2097.5" y="-18.5" font-family="Helvetica,sans-Serif" font-size="10.00">/AliceO2Group/Monitoring</text>
<text text-anchor="middle" x="2156" y="-7.5" font-family="Helvetica,sans-Serif" font-size="10.00">/src/MonitoringFactory.cxx</text>
</a>
</g>
</g>
<!-- Node3&#45;&gt;Node12 -->
<g id="edge11" class="edge"><title>Node3&#45;&gt;Node12</title>
<path fill="none" stroke="midnightblue" d="M1298.06,-86.527C1316.72,-83.2285 1336.48,-80.1366 1355,-78 1675.49,-41.0154 1761.17,-91.3179 2080,-42 2083.1,-41.5203 2086.26,-40.9654 2089.44,-40.3526"/>
<polygon fill="midnightblue" stroke="midnightblue" points="1297.34,-83.101 1288.12,-88.3212 1298.58,-89.9898 1297.34,-83.101"/>
</g>
<!-- Node13 -->
<g id="node13" class="node"><title>Node13</title>
<polygon fill="none" stroke="#bfbfbf" points="1320,-0.5 1320,-41.5 1448,-41.5 1448,-0.5 1320,-0.5"/>
<text text-anchor="start" x="1328" y="-29.5" font-family="Helvetica,sans-Serif" font-size="10.00">/home/travis/build</text>
<text text-anchor="start" x="1328" y="-18.5" font-family="Helvetica,sans-Serif" font-size="10.00">/AliceO2Group/Monitoring</text>
<text text-anchor="middle" x="1384" y="-7.5" font-family="Helvetica,sans-Serif" font-size="10.00">/test/testApMon.cxx</text>
</g>
<!-- Node3&#45;&gt;Node13 -->
<g id="edge12" class="edge"><title>Node3&#45;&gt;Node13</title>
<path fill="none" stroke="midnightblue" d="M1276.17,-74.0012C1298.52,-63.2235 1323.23,-51.3065 1343.35,-41.6027"/>
<polygon fill="midnightblue" stroke="midnightblue" points="1274.57,-70.8859 1267.08,-78.3823 1277.61,-77.191 1274.57,-70.8859"/>
</g>
<!-- Node14 -->
<g id="node14" class="node"><title>Node14</title>
<polygon fill="none" stroke="#bfbfbf" points="1466,-0.5 1466,-41.5 1594,-41.5 1594,-0.5 1466,-0.5"/>
<text text-anchor="start" x="1474" y="-29.5" font-family="Helvetica,sans-Serif" font-size="10.00">/home/travis/build</text>
<text text-anchor="start" x="1474" y="-18.5" font-family="Helvetica,sans-Serif" font-size="10.00">/AliceO2Group/Monitoring</text>
<text text-anchor="middle" x="1530" y="-7.5" font-family="Helvetica,sans-Serif" font-size="10.00">/test/testInfluxDb.cxx</text>
</g>
<!-- Node3&#45;&gt;Node14 -->
<g id="edge13" class="edge"><title>Node3&#45;&gt;Node14</title>
<path fill="none" stroke="midnightblue" d="M1297.94,-82.8261C1344.71,-71.068 1404.17,-55.9473 1457,-42 1459.92,-41.2285 1462.91,-40.4341 1465.92,-39.6273"/>
<polygon fill="midnightblue" stroke="midnightblue" points="1297.01,-79.4518 1288.16,-85.2825 1298.71,-86.2409 1297.01,-79.4518"/>
</g>
<!-- Node15 -->
<g id="node15" class="node"><title>Node15</title>
<polygon fill="none" stroke="#bfbfbf" points="1612,-0.5 1612,-41.5 1740,-41.5 1740,-0.5 1612,-0.5"/>
<text text-anchor="start" x="1620" y="-29.5" font-family="Helvetica,sans-Serif" font-size="10.00">/home/travis/build</text>
<text text-anchor="start" x="1620" y="-18.5" font-family="Helvetica,sans-Serif" font-size="10.00">/AliceO2Group/Monitoring</text>
<text text-anchor="middle" x="1676" y="-7.5" font-family="Helvetica,sans-Serif" font-size="10.00">/test/testMonitoring.cxx</text>
</g>
<!-- Node3&#45;&gt;Node15 -->
<g id="edge14" class="edge"><title>Node3&#45;&gt;Node15</title>
<path fill="none" stroke="midnightblue" d="M1298.24,-87.8291C1316.9,-84.4593 1336.61,-81.0092 1355,-78 1464.92,-60.018 1493.97,-64.7581 1603,-42 1605.83,-41.4093 1608.71,-40.7724 1611.62,-40.1016"/>
<polygon fill="midnightblue" stroke="midnightblue" points="1297.51,-84.4041 1288.3,-89.6353 1298.76,-91.2914 1297.51,-84.4041"/>
</g>
<!-- Node16 -->
<g id="node16" class="node"><title>Node16</title>
<polygon fill="none" stroke="#bfbfbf" points="1758,-0.5 1758,-41.5 1910,-41.5 1910,-0.5 1758,-0.5"/>
<text text-anchor="start" x="1766" y="-29.5" font-family="Helvetica,sans-Serif" font-size="10.00">/home/travis/build</text>
<text text-anchor="start" x="1766" y="-18.5" font-family="Helvetica,sans-Serif" font-size="10.00">/AliceO2Group/Monitoring</text>
<text text-anchor="middle" x="1834" y="-7.5" font-family="Helvetica,sans-Serif" font-size="10.00">/test/testMonitoringFactory.cxx</text>
</g>
<!-- Node3&#45;&gt;Node16 -->
<g id="edge15" class="edge"><title>Node3&#45;&gt;Node16</title>
<path fill="none" stroke="midnightblue" d="M1298.13,-87.0997C1316.79,-83.7698 1336.53,-80.5204 1355,-78 1529.23,-54.2216 1575.44,-70.2063 1749,-42 1751.84,-41.538 1754.73,-41.0343 1757.65,-40.4979"/>
<polygon fill="midnightblue" stroke="midnightblue" points="1297.41,-83.6741 1288.19,-88.8991 1298.65,-90.5622 1297.41,-83.6741"/>
</g>
<!-- Node17 -->
<g id="node17" class="node"><title>Node17</title>
<polygon fill="none" stroke="#bfbfbf" points="1928.5,-0.5 1928.5,-41.5 2071.5,-41.5 2071.5,-0.5 1928.5,-0.5"/>
<text text-anchor="start" x="1936.5" y="-29.5" font-family="Helvetica,sans-Serif" font-size="10.00">/home/travis/build</text>
<text text-anchor="start" x="1936.5" y="-18.5" font-family="Helvetica,sans-Serif" font-size="10.00">/AliceO2Group/Monitoring</text>
<text text-anchor="middle" x="2000" y="-7.5" font-family="Helvetica,sans-Serif" font-size="10.00">/test/testProcessMonitor.cxx</text>
</g>
<!-- Node3&#45;&gt;Node17 -->
<g id="edge16" class="edge"><title>Node3&#45;&gt;Node17</title>
<path fill="none" stroke="midnightblue" d="M1298.08,-86.7222C1316.75,-83.4129 1336.5,-80.2674 1355,-78 1604.31,-47.4435 1670.75,-80.2573 1919,-42 1922.01,-41.5367 1925.06,-41.0148 1928.15,-40.4471"/>
<polygon fill="midnightblue" stroke="midnightblue" points="1297.36,-83.2963 1288.14,-88.5181 1298.6,-90.1848 1297.36,-83.2963"/>
</g>
<!-- Node20 -->
<g id="node20" class="node"><title>Node20</title>
<g id="a_node20"><a xlink:href="ApMonBackend_8cxx.html" target="_top" xlink:title="/home/travis/build\l/AliceO2Group/Monitoring\l/src/Backends/ApMonBackend.cxx">
<polygon fill="none" stroke="black" points="1669,-84 1669,-125 1839,-125 1839,-84 1669,-84"/>
<text text-anchor="start" x="1677" y="-113" font-family="Helvetica,sans-Serif" font-size="10.00">/home/travis/build</text>
<text text-anchor="start" x="1677" y="-102" font-family="Helvetica,sans-Serif" font-size="10.00">/AliceO2Group/Monitoring</text>
<text text-anchor="middle" x="1754" y="-91" font-family="Helvetica,sans-Serif" font-size="10.00">/src/Backends/ApMonBackend.cxx</text>
</a>
</g>
</g>
<!-- Node19&#45;&gt;Node20 -->
<g id="edge19" class="edge"><title>Node19&#45;&gt;Node20</title>
<path fill="none" stroke="midnightblue" d="M1754,-157.065C1754,-146.382 1754,-134.63 1754,-125.047"/>
<polygon fill="midnightblue" stroke="midnightblue" points="1750.5,-157.271 1754,-167.271 1757.5,-157.271 1750.5,-157.271"/>
</g>
<!-- Node21&#45;&gt;Node12 -->
<g id="edge22" class="edge"><title>Node21&#45;&gt;Node12</title>
<path fill="none" stroke="midnightblue" d="M1896.62,-158.835C1882.02,-134.906 1867.98,-100.892 1887,-78 1914.88,-44.4405 2037.43,-51.5579 2080,-42 2083.06,-41.3125 2086.19,-40.5872 2089.34,-39.8362"/>
<polygon fill="midnightblue" stroke="midnightblue" points="1893.83,-160.954 1902.18,-167.468 1899.71,-157.165 1893.83,-160.954"/>
</g>
<!-- Node22 -->
<g id="node22" class="node"><title>Node22</title>
<g id="a_node22"><a xlink:href="InfluxDB_8cxx.html" target="_top" xlink:title="/home/travis/build\l/AliceO2Group/Monitoring\l/src/Backends/InfluxDB.cxx">
<polygon fill="none" stroke="black" points="1896,-84 1896,-125 2036,-125 2036,-84 1896,-84"/>
<text text-anchor="start" x="1904" y="-113" font-family="Helvetica,sans-Serif" font-size="10.00">/home/travis/build</text>
<text text-anchor="start" x="1904" y="-102" font-family="Helvetica,sans-Serif" font-size="10.00">/AliceO2Group/Monitoring</text>
<text text-anchor="middle" x="1966" y="-91" font-family="Helvetica,sans-Serif" font-size="10.00">/src/Backends/InfluxDB.cxx</text>
</a>
</g>
</g>
<!-- Node21&#45;&gt;Node22 -->
<g id="edge21" class="edge"><title>Node21&#45;&gt;Node22</title>
<path fill="none" stroke="midnightblue" d="M1934.2,-158.394C1940.83,-147.365 1948.25,-135.03 1954.25,-125.047"/>
<polygon fill="midnightblue" stroke="midnightblue" points="1931.01,-156.897 1928.86,-167.271 1937.01,-160.504 1931.01,-156.897"/>
</g>
<!-- Node23&#45;&gt;Node12 -->
<g id="edge24" class="edge"><title>Node23&#45;&gt;Node12</title>
<path fill="none" stroke="midnightblue" d="M2063.46,-157.158C2064.34,-134.022 2068.48,-101.972 2083,-78 2091.94,-63.2437 2106.32,-50.9713 2119.97,-41.7132"/>
<polygon fill="midnightblue" stroke="midnightblue" points="2059.96,-157.345 2063.27,-167.411 2066.96,-157.481 2059.96,-157.345"/>
</g>
<!-- Node24 -->
<g id="node24" class="node"><title>Node24</title>
<polygon fill="none" stroke="#bfbfbf" points="2092,-84 2092,-125 2220,-125 2220,-84 2092,-84"/>
<text text-anchor="start" x="2100" y="-113" font-family="Helvetica,sans-Serif" font-size="10.00">/home/travis/build</text>
<text text-anchor="start" x="2100" y="-102" font-family="Helvetica,sans-Serif" font-size="10.00">/AliceO2Group/Monitoring</text>
<text text-anchor="middle" x="2156" y="-91" font-family="Helvetica,sans-Serif" font-size="10.00">/test/testNoop.cxx</text>
</g>
<!-- Node23&#45;&gt;Node24 -->
<g id="edge25" class="edge"><title>Node23&#45;&gt;Node24</title>
<path fill="none" stroke="midnightblue" d="M2094.07,-160.365C2107.06,-148.854 2121.99,-135.629 2133.93,-125.047"/>
<polygon fill="midnightblue" stroke="midnightblue" points="2091.44,-158.02 2086.27,-167.271 2096.08,-163.26 2091.44,-158.02"/>
</g>
<!-- Node25&#45;&gt;Node12 -->
<g id="edge28" class="edge"><title>Node25&#45;&gt;Node12</title>
<path fill="none" stroke="midnightblue" d="M2248.54,-157.158C2247.66,-134.022 2243.52,-101.972 2229,-78 2220.06,-63.2437 2205.68,-50.9713 2192.03,-41.7132"/>
<polygon fill="midnightblue" stroke="midnightblue" points="2245.04,-157.481 2248.73,-167.411 2252.04,-157.345 2245.04,-157.481"/>
</g>
<!-- Node26 -->
<g id="node26" class="node"><title>Node26</title>
<polygon fill="none" stroke="#bfbfbf" points="2276,-84 2276,-125 2408,-125 2408,-84 2276,-84"/>
<text text-anchor="start" x="2284" y="-113" font-family="Helvetica,sans-Serif" font-size="10.00">/home/travis/build</text>
<text text-anchor="start" x="2284" y="-102" font-family="Helvetica,sans-Serif" font-size="10.00">/AliceO2Group/Monitoring</text>
<text text-anchor="middle" x="2342" y="-91" font-family="Helvetica,sans-Serif" font-size="10.00">/src/Backends/StdOut.cxx</text>
</g>
<!-- Node25&#45;&gt;Node26 -->
<g id="edge27" class="edge"><title>Node25&#45;&gt;Node26</title>
<path fill="none" stroke="midnightblue" d="M2278.35,-160.69C2291.71,-149.103 2307.14,-135.728 2319.45,-125.047"/>
<polygon fill="midnightblue" stroke="midnightblue" points="2276.02,-158.076 2270.75,-167.271 2280.6,-163.365 2276.02,-158.076"/>
</g>
</g>
</svg>
