<?xml version="1.0" encoding="UTF-8" standalone="no"?>
<!DOCTYPE svg PUBLIC "-//W3C//DTD SVG 1.1//EN"
 "http://www.w3.org/Graphics/SVG/1.1/DTD/svg11.dtd">
<!-- Generated by graphviz version 2.38.0 (20140413.2041)
 -->
<!-- Title: o2::monitoring::transports::TransportInterface Pages: 1 -->
<svg width="774pt" height="237pt"
 viewBox="0.00 0.00 774.00 237.00" xmlns="http://www.w3.org/2000/svg" xmlns:xlink="http://www.w3.org/1999/xlink">
<g id="graph0" class="graph" transform="scale(1 1) rotate(0) translate(4 233)">
<title>o2::monitoring::transports::TransportInterface</title>
<!-- Node1 -->
<g id="node1" class="node"><title>Node1</title>
<polygon fill="#bfbfbf" stroke="black" points="305,-138.5 305,-228.5 433,-228.5 433,-138.5 305,-138.5"/>
<text text-anchor="start" x="313" y="-216.5" font-family="Helvetica,sans-Serif" font-size="10.00">o2::monitoring::transports</text>
<text text-anchor="middle" x="369" y="-205.5" font-family="Helvetica,sans-Serif" font-size="10.00">::TransportInterface</text>
<polyline fill="none" stroke="black" points="305,-198.5 433,-198.5 "/>
<text text-anchor="middle" x="369" y="-186.5" font-family="Helvetica,sans-Serif" font-size="10.00"> </text>
<polyline fill="none" stroke="black" points="305,-179.5 433,-179.5 "/>
<text text-anchor="start" x="313" y="-167.5" font-family="Helvetica,sans-Serif" font-size="10.00">+ TransportInterface()</text>
<text text-anchor="start" x="313" y="-156.5" font-family="Helvetica,sans-Serif" font-size="10.00">+ ~TransportInterface()</text>
<text text-anchor="start" x="313" y="-145.5" font-family="Helvetica,sans-Serif" font-size="10.00">+ send()</text>
</g>
<!-- Node2 -->
<g id="node2" class="node"><title>Node2</title>
<g id="a_node2"><a xlink:href="classo2_1_1monitoring_1_1transports_1_1Kafka.html" target="_top" xlink:title="Transport that sends string formatted metrics via Kafka. ">
<polygon fill="none" stroke="black" points="0,-6 0,-96 128,-96 128,-6 0,-6"/>
<text text-anchor="start" x="8" y="-84" font-family="Helvetica,sans-Serif" font-size="10.00">o2::monitoring::transports</text>
<text text-anchor="middle" x="64" y="-73" font-family="Helvetica,sans-Serif" font-size="10.00">::Kafka</text>
<polyline fill="none" stroke="black" points="0,-66 128,-66 "/>
<text text-anchor="middle" x="64" y="-54" font-family="Helvetica,sans-Serif" font-size="10.00"> </text>
<polyline fill="none" stroke="black" points="0,-47 128,-47 "/>
<text text-anchor="start" x="8" y="-35" font-family="Helvetica,sans-Serif" font-size="10.00">+ Kafka()</text>
<text text-anchor="start" x="8" y="-24" font-family="Helvetica,sans-Serif" font-size="10.00">+ ~Kafka()</text>
<text text-anchor="start" x="8" y="-13" font-family="Helvetica,sans-Serif" font-size="10.00">+ send()</text>
</a>
</g>
</g>
<!-- Node1&#45;&gt;Node2 -->
<g id="edge1" class="edge"><title>Node1&#45;&gt;Node2</title>
<path fill="none" stroke="midnightblue" d="M295.137,-162.381C248.513,-148.356 187.727,-127.593 137,-102 133.434,-100.201 129.84,-98.2516 126.259,-96.201"/>
<polygon fill="none" stroke="midnightblue" points="294.28,-165.778 304.863,-165.271 296.274,-159.068 294.28,-165.778"/>
</g>
<!-- Node3 -->
<g id="node3" class="node"><title>Node3</title>
<g id="a_node3"><a xlink:href="classo2_1_1monitoring_1_1transports_1_1StdOut.html" target="_top" xlink:title="Transport that sends string formatted metrics via StdOut. ">
<polygon fill="none" stroke="black" points="146,-0.5 146,-101.5 274,-101.5 274,-0.5 146,-0.5"/>
<text text-anchor="start" x="154" y="-89.5" font-family="Helvetica,sans-Serif" font-size="10.00">o2::monitoring::transports</text>
<text text-anchor="middle" x="210" y="-78.5" font-family="Helvetica,sans-Serif" font-size="10.00">::StdOut</text>
<polyline fill="none" stroke="black" points="146,-71.5 274,-71.5 "/>
<text text-anchor="middle" x="210" y="-59.5" font-family="Helvetica,sans-Serif" font-size="10.00"> </text>
<polyline fill="none" stroke="black" points="146,-52.5 274,-52.5 "/>
<text text-anchor="start" x="154" y="-40.5" font-family="Helvetica,sans-Serif" font-size="10.00">+ StdOut()</text>
<text text-anchor="start" x="154" y="-29.5" font-family="Helvetica,sans-Serif" font-size="10.00">+ ~StdOut()</text>
<text text-anchor="start" x="154" y="-18.5" font-family="Helvetica,sans-Serif" font-size="10.00">+ send()</text>
<text text-anchor="start" x="154" y="-7.5" font-family="Helvetica,sans-Serif" font-size="10.00">+ operator&lt;&lt;()</text>
</a>
</g>
</g>
<!-- Node1&#45;&gt;Node3 -->
<g id="edge2" class="edge"><title>Node1&#45;&gt;Node3</title>
<path fill="none" stroke="midnightblue" d="M307.29,-131.851C295.152,-121.889 282.43,-111.447 270.338,-101.523"/>
<polygon fill="none" stroke="midnightblue" points="305.22,-134.68 315.17,-138.319 309.661,-129.269 305.22,-134.68"/>
</g>
<!-- Node4 -->
<g id="node4" class="node"><title>Node4</title>
<g id="a_node4"><a xlink:href="classo2_1_1monitoring_1_1transports_1_1TCP.html" target="_top" xlink:title="Transport that sends string formatted metrics via TCP. ">
<polygon fill="none" stroke="black" points="292,-11.5 292,-90.5 446,-90.5 446,-11.5 292,-11.5"/>
<text text-anchor="middle" x="369" y="-78.5" font-family="Helvetica,sans-Serif" font-size="10.00">o2::monitoring::transports::TCP</text>
<polyline fill="none" stroke="black" points="292,-71.5 446,-71.5 "/>
<text text-anchor="middle" x="369" y="-59.5" font-family="Helvetica,sans-Serif" font-size="10.00"> </text>
<polyline fill="none" stroke="black" points="292,-52.5 446,-52.5 "/>
<text text-anchor="start" x="300" y="-40.5" font-family="Helvetica,sans-Serif" font-size="10.00">+ TCP()</text>
<text text-anchor="start" x="300" y="-29.5" font-family="Helvetica,sans-Serif" font-size="10.00">+ ~TCP()</text>
<text text-anchor="start" x="300" y="-18.5" font-family="Helvetica,sans-Serif" font-size="10.00">+ send()</text>
</a>
</g>
</g>
<!-- Node1&#45;&gt;Node4 -->
<g id="edge3" class="edge"><title>Node1&#45;&gt;Node4</title>
<path fill="none" stroke="midnightblue" d="M369,-128.016C369,-115.55 369,-102.545 369,-90.8892"/>
<polygon fill="none" stroke="midnightblue" points="365.5,-128.319 369,-138.319 372.5,-128.319 365.5,-128.319"/>
</g>
<!-- Node5 -->
<g id="node5" class="node"><title>Node5</title>
<g id="a_node5"><a xlink:href="classo2_1_1monitoring_1_1transports_1_1UDP.html" target="_top" xlink:title="Transport that sends string formatted metrics via UDP. ">
<polygon fill="none" stroke="black" points="464.5,-11.5 464.5,-90.5 619.5,-90.5 619.5,-11.5 464.5,-11.5"/>
<text text-anchor="middle" x="542" y="-78.5" font-family="Helvetica,sans-Serif" font-size="10.00">o2::monitoring::transports::UDP</text>
<polyline fill="none" stroke="black" points="464.5,-71.5 619.5,-71.5 "/>
<text text-anchor="middle" x="542" y="-59.5" font-family="Helvetica,sans-Serif" font-size="10.00"> </text>
<polyline fill="none" stroke="black" points="464.5,-52.5 619.5,-52.5 "/>
<text text-anchor="start" x="472.5" y="-40.5" font-family="Helvetica,sans-Serif" font-size="10.00">+ UDP()</text>
<text text-anchor="start" x="472.5" y="-29.5" font-family="Helvetica,sans-Serif" font-size="10.00">+ ~UDP()</text>
<text text-anchor="start" x="472.5" y="-18.5" font-family="Helvetica,sans-Serif" font-size="10.00">+ send()</text>
</a>
</g>
</g>
<!-- Node1&#45;&gt;Node5 -->
<g id="edge4" class="edge"><title>Node1&#45;&gt;Node5</title>
<path fill="none" stroke="midnightblue" d="M435.844,-132.077C454.068,-118.33 473.521,-103.656 490.731,-90.6742"/>
<polygon fill="none" stroke="midnightblue" points="433.446,-129.502 427.57,-138.319 437.661,-135.091 433.446,-129.502"/>
</g>
<!-- Node6 -->
<g id="node6" class="node"><title>Node6</title>
<g id="a_node6"><a xlink:href="classo2_1_1monitoring_1_1transports_1_1Unix.html" target="_top" xlink:title="Transport that sends string formatted metrics via Unix datagram socket. ">
<polygon fill="none" stroke="black" points="638,-6 638,-96 766,-96 766,-6 638,-6"/>
<text text-anchor="start" x="646" y="-84" font-family="Helvetica,sans-Serif" font-size="10.00">o2::monitoring::transports</text>
<text text-anchor="middle" x="702" y="-73" font-family="Helvetica,sans-Serif" font-size="10.00">::Unix</text>
<polyline fill="none" stroke="black" points="638,-66 766,-66 "/>
<text text-anchor="middle" x="702" y="-54" font-family="Helvetica,sans-Serif" font-size="10.00"> </text>
<polyline fill="none" stroke="black" points="638,-47 766,-47 "/>
<text text-anchor="start" x="646" y="-35" font-family="Helvetica,sans-Serif" font-size="10.00">+ Unix()</text>
<text text-anchor="start" x="646" y="-24" font-family="Helvetica,sans-Serif" font-size="10.00">+ ~Unix()</text>
<text text-anchor="start" x="646" y="-13" font-family="Helvetica,sans-Serif" font-size="10.00">+ send()</text>
</a>
</g>
</g>
<!-- Node1&#45;&gt;Node6 -->
<g id="edge5" class="edge"><title>Node1&#45;&gt;Node6</title>
<path fill="none" stroke="midnightblue" d="M442.978,-165.913C496.261,-152.471 569.028,-130.999 629,-102 632.734,-100.194 636.492,-98.2136 640.228,-96.1145"/>
<polygon fill="none" stroke="midnightblue" points="442.123,-162.519 433.263,-168.329 443.813,-169.312 442.123,-162.519"/>
</g>
</g>
</svg>
