<?xml version="1.0" encoding="UTF-8" standalone="no"?>
<!DOCTYPE svg PUBLIC "-//W3C//DTD SVG 1.1//EN"
 "http://www.w3.org/Graphics/SVG/1.1/DTD/svg11.dtd">
<!-- Generated by graphviz version 2.38.0 (20140413.2041)
 -->
<!-- Title: Graphical Class Hierarchy Pages: 1 -->
<svg width="327pt" height="214pt"
 viewBox="0.00 0.00 327.00 214.00" xmlns="http://www.w3.org/2000/svg" xmlns:xlink="http://www.w3.org/1999/xlink">
<g id="graph0" class="graph" transform="scale(1 1) rotate(0) translate(4 210)">
<title>Graphical Class Hierarchy</title>
<!-- Node1 -->
<g id="node1" class="node"><title>Node1</title>
<g id="a_node1"><a xlink:href="classo2_1_1monitoring_1_1transports_1_1TransportInterface.html" target="_top" xlink:title="Transport interface for backends. ">
<polygon fill="none" stroke="black" points="0,-82.5 0,-112.5 128,-112.5 128,-82.5 0,-82.5"/>
<text text-anchor="start" x="8" y="-100.5" font-family="Helvetica,sans-Serif" font-size="10.00">o2::monitoring::transports</text>
<text text-anchor="middle" x="64" y="-89.5" font-family="Helvetica,sans-Serif" font-size="10.00">::TransportInterface</text>
</a>
</g>
</g>
<!-- Node2 -->
<g id="node2" class="node"><title>Node2</title>
<g id="a_node2"><a xlink:href="classo2_1_1monitoring_1_1transports_1_1Kafka.html" target="_top" xlink:title="Transport that sends string formatted metrics via Kafka. ">
<polygon fill="none" stroke="black" points="177.5,-175.5 177.5,-205.5 305.5,-205.5 305.5,-175.5 177.5,-175.5"/>
<text text-anchor="start" x="185.5" y="-193.5" font-family="Helvetica,sans-Serif" font-size="10.00">o2::monitoring::transports</text>
<text text-anchor="middle" x="241.5" y="-182.5" font-family="Helvetica,sans-Serif" font-size="10.00">::Kafka</text>
</a>
</g>
</g>
<!-- Node1&#45;&gt;Node2 -->
<g id="edge1" class="edge"><title>Node1&#45;&gt;Node2</title>
<path fill="none" stroke="midnightblue" d="M90.8839,-118.844C110.098,-133.84 137.461,-153.472 164,-166.5 170.747,-169.812 178.052,-172.795 185.379,-175.44"/>
<polygon fill="midnightblue" stroke="midnightblue" points="92.9284,-115.999 82.9182,-112.528 88.5791,-121.484 92.9284,-115.999"/>
</g>
<!-- Node3 -->
<g id="node3" class="node"><title>Node3</title>
<g id="a_node3"><a xlink:href="classo2_1_1monitoring_1_1transports_1_1StdOut.html" target="_top" xlink:title="Transport that sends string formatted metrics via StdOut. ">
<polygon fill="none" stroke="black" points="177.5,-126.5 177.5,-156.5 305.5,-156.5 305.5,-126.5 177.5,-126.5"/>
<text text-anchor="start" x="185.5" y="-144.5" font-family="Helvetica,sans-Serif" font-size="10.00">o2::monitoring::transports</text>
<text text-anchor="middle" x="241.5" y="-133.5" font-family="Helvetica,sans-Serif" font-size="10.00">::StdOut</text>
</a>
</g>
</g>
<!-- Node1&#45;&gt;Node3 -->
<g id="edge2" class="edge"><title>Node1&#45;&gt;Node3</title>
<path fill="none" stroke="midnightblue" d="M134.743,-114.985C149.907,-118.787 165.821,-122.777 180.566,-126.474"/>
<polygon fill="midnightblue" stroke="midnightblue" points="135.457,-111.556 124.906,-112.519 133.755,-118.346 135.457,-111.556"/>
</g>
<!-- Node4 -->
<g id="node4" class="node"><title>Node4</title>
<g id="a_node4"><a xlink:href="classo2_1_1monitoring_1_1transports_1_1TCP.html" target="_top" xlink:title="Transport that sends string formatted metrics via TCP. ">
<polygon fill="none" stroke="black" points="164.5,-88 164.5,-107 318.5,-107 318.5,-88 164.5,-88"/>
<text text-anchor="middle" x="241.5" y="-95" font-family="Helvetica,sans-Serif" font-size="10.00">o2::monitoring::transports::TCP</text>
</a>
</g>
</g>
<!-- Node1&#45;&gt;Node4 -->
<g id="edge3" class="edge"><title>Node1&#45;&gt;Node4</title>
<path fill="none" stroke="midnightblue" d="M138.626,-97.5C147.136,-97.5 155.827,-97.5 164.369,-97.5"/>
<polygon fill="midnightblue" stroke="midnightblue" points="138.36,-94.0001 128.36,-97.5 138.359,-101 138.36,-94.0001"/>
</g>
<!-- Node5 -->
<g id="node5" class="node"><title>Node5</title>
<g id="a_node5"><a xlink:href="classo2_1_1monitoring_1_1transports_1_1UDP.html" target="_top" xlink:title="Transport that sends string formatted metrics via UDP. ">
<polygon fill="none" stroke="black" points="164,-50 164,-69 319,-69 319,-50 164,-50"/>
<text text-anchor="middle" x="241.5" y="-57" font-family="Helvetica,sans-Serif" font-size="10.00">o2::monitoring::transports::UDP</text>
</a>
</g>
</g>
<!-- Node1&#45;&gt;Node5 -->
<g id="edge4" class="edge"><title>Node1&#45;&gt;Node5</title>
<path fill="none" stroke="midnightblue" d="M138.278,-81.6336C158.056,-77.3512 178.843,-72.8503 196.469,-69.0338"/>
<polygon fill="midnightblue" stroke="midnightblue" points="137.392,-78.2441 128.36,-83.7811 138.874,-85.0856 137.392,-78.2441"/>
</g>
<!-- Node6 -->
<g id="node6" class="node"><title>Node6</title>
<g id="a_node6"><a xlink:href="classo2_1_1monitoring_1_1transports_1_1Unix.html" target="_top" xlink:title="Transport that sends string formatted metrics via Unix datagram socket. ">
<polygon fill="none" stroke="black" points="177.5,-0.5 177.5,-30.5 305.5,-30.5 305.5,-0.5 177.5,-0.5"/>
<text text-anchor="start" x="185.5" y="-18.5" font-family="Helvetica,sans-Serif" font-size="10.00">o2::monitoring::transports</text>
<text text-anchor="middle" x="241.5" y="-7.5" font-family="Helvetica,sans-Serif" font-size="10.00">::Unix</text>
</a>
</g>
</g>
<!-- Node1&#45;&gt;Node6 -->
<g id="edge5" class="edge"><title>Node1&#45;&gt;Node6</title>
<path fill="none" stroke="midnightblue" d="M96.8296,-76.9202C115.818,-65.2213 140.697,-50.882 164,-40.5 172.041,-36.9176 180.757,-33.5844 189.329,-30.5946"/>
<polygon fill="midnightblue" stroke="midnightblue" points="94.9125,-73.9909 88.2808,-82.2536 98.6177,-79.9299 94.9125,-73.9909"/>
</g>
</g>
</svg>
