<?xml version="1.0" encoding="UTF-8" standalone="no"?>
<!DOCTYPE svg PUBLIC "-//W3C//DTD SVG 1.1//EN"
 "http://www.w3.org/Graphics/SVG/1.1/DTD/svg11.dtd">
<!-- Generated by graphviz version 2.38.0 (20140413.2041)
 -->
<!-- Title: /home/travis/build/AliceO2Group/Monitoring/include/Monitoring/Metric.h Pages: 1 -->
<!--zoomable 373 -->
<svg id="main" version="1.1" xmlns="http://www.w3.org/2000/svg" xmlns:xlink="http://www.w3.org/1999/xlink" xml:space="preserve" onload="init(evt)">
<style type="text/css"><![CDATA[
.edge:hover path { stroke: red; }
.edge:hover polygon { stroke: red; fill: red; }
]]></style>
<script type="text/javascript"><![CDATA[
var edges = document.getElementsByTagName('g');
if (edges && edges.length) {
  for (var i=0;i<edges.length;i++) {
    if (edges[i].id.substr(0,4)=='edge') {
      edges[i].setAttribute('class','edge');
    }
  }
}
]]></script>
        <defs>
                <circle id="rim" cx="0" cy="0" r="7"/>
                <circle id="rim2" cx="0" cy="0" r="3.5"/>
                <g id="zoomPlus">
                        <use xlink:href="#rim" fill="#404040">
                                <set attributeName="fill" to="#808080" begin="zoomplus.mouseover" end="zoomplus.mouseout"/>
                        </use>
                        <path d="M-4,0h8M0,-4v8" fill="none" stroke="white" stroke-width="1.5" pointer-events="none"/>
                </g>
                <g id="zoomMin">
                        <use xlink:href="#rim" fill="#404040">
                                <set attributeName="fill" to="#808080" begin="zoomminus.mouseover" end="zoomminus.mouseout"/>
                        </use>
                        <path d="M-4,0h8" fill="none" stroke="white" stroke-width="1.5" pointer-events="none"/>
                </g>
                <g id="dirArrow">
                        <path fill="none" stroke="white" stroke-width="1.5" d="M0,-3.0v7 M-2.5,-0.5L0,-3.0L2.5,-0.5"/>
                </g>
               <g id="resetDef">
                       <use xlink:href="#rim2" fill="#404040">
                               <set attributeName="fill" to="#808080" begin="reset.mouseover" end="reset.mouseout"/>
                       </use>
               </g>
        </defs>

<script type="text/javascript">
var viewWidth = 2230;
var viewHeight = 373;
var sectionId = 'dynsection-1';
</script>
<script xlink:href="svgpan.js"/>
<svg id="graph" class="graph">
<g id="viewport">
<title>/home/travis/build/AliceO2Group/Monitoring/include/Monitoring/Metric.h</title>
<!-- Node1 -->
<g id="node1" class="node"><title>Node1</title>
<polygon fill="#bfbfbf" stroke="black" points="1383,-323.5 1383,-364.5 1520,-364.5 1520,-323.5 1383,-323.5"/>
<text text-anchor="start" x="1391" y="-352.5" font-family="Helvetica,sans-Serif" font-size="10.00">/home/travis/build</text>
<text text-anchor="start" x="1391" y="-341.5" font-family="Helvetica,sans-Serif" font-size="10.00">/AliceO2Group/Monitoring</text>
<text text-anchor="middle" x="1451.5" y="-330.5" font-family="Helvetica,sans-Serif" font-size="10.00">/include/Monitoring/Metric.h</text>
</g>
<!-- Node2 -->
<g id="node2" class="node"><title>Node2</title>
<g id="a_node2"><a xlink:href="Backend_8h.html" target="_top" xlink:title="/home/travis/build\l/AliceO2Group/Monitoring\l/include/Monitoring/Backend.h">
<polygon fill="none" stroke="black" points="556.5,-245.5 556.5,-286.5 704.5,-286.5 704.5,-245.5 556.5,-245.5"/>
<text text-anchor="start" x="564.5" y="-274.5" font-family="Helvetica,sans-Serif" font-size="10.00">/home/travis/build</text>
<text text-anchor="start" x="564.5" y="-263.5" font-family="Helvetica,sans-Serif" font-size="10.00">/AliceO2Group/Monitoring</text>
<text text-anchor="middle" x="630.5" y="-252.5" font-family="Helvetica,sans-Serif" font-size="10.00">/include/Monitoring/Backend.h</text>
</a>
</g>
</g>
<!-- Node1&#45;&gt;Node2 -->
<g id="edge1" class="edge"><title>Node1&#45;&gt;Node2</title>
<path fill="none" stroke="midnightblue" d="M1372.77,-335.712C1214.42,-321.053 859.343,-288.184 704.765,-273.875"/>
<polygon fill="midnightblue" stroke="midnightblue" points="1372.63,-339.214 1382.91,-336.651 1373.28,-332.244 1372.63,-339.214"/>
</g>
<!-- Node28 -->
<g id="node28" class="node"><title>Node28</title>
<g id="a_node28"><a xlink:href="DerivedMetrics_8h.html" target="_top" xlink:title="/home/travis/build\l/AliceO2Group/Monitoring\l/include/Monitoring/DerivedMetrics.h">
<polygon fill="none" stroke="black" points="1363.5,-245.5 1363.5,-286.5 1539.5,-286.5 1539.5,-245.5 1363.5,-245.5"/>
<text text-anchor="start" x="1371.5" y="-274.5" font-family="Helvetica,sans-Serif" font-size="10.00">/home/travis/build</text>
<text text-anchor="start" x="1371.5" y="-263.5" font-family="Helvetica,sans-Serif" font-size="10.00">/AliceO2Group/Monitoring</text>
<text text-anchor="middle" x="1451.5" y="-252.5" font-family="Helvetica,sans-Serif" font-size="10.00">/include/Monitoring/DerivedMetrics.h</text>
</a>
</g>
</g>
<!-- Node1&#45;&gt;Node28 -->
<g id="edge30" class="edge"><title>Node1&#45;&gt;Node28</title>
<path fill="none" stroke="midnightblue" d="M1451.5,-313.297C1451.5,-304.301 1451.5,-294.653 1451.5,-286.506"/>
<polygon fill="midnightblue" stroke="midnightblue" points="1448,-313.428 1451.5,-323.428 1455,-313.428 1448,-313.428"/>
</g>
<!-- Node31 -->
<g id="node31" class="node"><title>Node31</title>
<g id="a_node31"><a xlink:href="ProcessMonitor_8h.html" target="_top" xlink:title="/home/travis/build\l/AliceO2Group/Monitoring\l/include/Monitoring/ProcessMonitor.h">
<polygon fill="none" stroke="black" points="1167.5,-245.5 1167.5,-286.5 1345.5,-286.5 1345.5,-245.5 1167.5,-245.5"/>
<text text-anchor="start" x="1175.5" y="-274.5" font-family="Helvetica,sans-Serif" font-size="10.00">/home/travis/build</text>
<text text-anchor="start" x="1175.5" y="-263.5" font-family="Helvetica,sans-Serif" font-size="10.00">/AliceO2Group/Monitoring</text>
<text text-anchor="middle" x="1256.5" y="-252.5" font-family="Helvetica,sans-Serif" font-size="10.00">/include/Monitoring/ProcessMonitor.h</text>
</a>
</g>
</g>
<!-- Node1&#45;&gt;Node31 -->
<g id="edge34" class="edge"><title>Node1&#45;&gt;Node31</title>
<path fill="none" stroke="midnightblue" d="M1391.84,-319.748C1364.54,-309.11 1332.56,-296.646 1306.55,-286.506"/>
<polygon fill="midnightblue" stroke="midnightblue" points="1390.69,-323.058 1401.28,-323.428 1393.24,-316.536 1390.69,-323.058"/>
</g>
<!-- Node33 -->
<g id="node33" class="node"><title>Node33</title>
<g id="a_node33"><a xlink:href="Metric_8cxx.html" target="_top" xlink:title="/home/travis/build\l/AliceO2Group/Monitoring\l/src/Metric.cxx">
<polygon fill="none" stroke="black" points="1557.5,-245.5 1557.5,-286.5 1685.5,-286.5 1685.5,-245.5 1557.5,-245.5"/>
<text text-anchor="start" x="1565.5" y="-274.5" font-family="Helvetica,sans-Serif" font-size="10.00">/home/travis/build</text>
<text text-anchor="start" x="1565.5" y="-263.5" font-family="Helvetica,sans-Serif" font-size="10.00">/AliceO2Group/Monitoring</text>
<text text-anchor="middle" x="1621.5" y="-252.5" font-family="Helvetica,sans-Serif" font-size="10.00">/src/Metric.cxx</text>
</a>
</g>
</g>
<!-- Node1&#45;&gt;Node33 -->
<g id="edge38" class="edge"><title>Node1&#45;&gt;Node33</title>
<path fill="none" stroke="midnightblue" d="M1504.45,-319.329C1528.04,-308.783 1555.48,-296.513 1577.87,-286.506"/>
<polygon fill="midnightblue" stroke="midnightblue" points="1502.98,-316.152 1495.28,-323.428 1505.84,-322.542 1502.98,-316.152"/>
</g>
<!-- Node34 -->
<g id="node34" class="node"><title>Node34</title>
<polygon fill="none" stroke="#bfbfbf" points="1703.5,-245.5 1703.5,-286.5 1831.5,-286.5 1831.5,-245.5 1703.5,-245.5"/>
<text text-anchor="start" x="1711.5" y="-274.5" font-family="Helvetica,sans-Serif" font-size="10.00">/home/travis/build</text>
<text text-anchor="start" x="1711.5" y="-263.5" font-family="Helvetica,sans-Serif" font-size="10.00">/AliceO2Group/Monitoring</text>
<text text-anchor="middle" x="1767.5" y="-252.5" font-family="Helvetica,sans-Serif" font-size="10.00">/test/testMetric.cxx</text>
</g>
<!-- Node1&#45;&gt;Node34 -->
<g id="edge39" class="edge"><title>Node1&#45;&gt;Node34</title>
<path fill="none" stroke="midnightblue" d="M1529.98,-325.77C1577.67,-315.087 1639.73,-300.808 1694.5,-287 1697.43,-286.261 1700.42,-285.494 1703.44,-284.709"/>
<polygon fill="midnightblue" stroke="midnightblue" points="1529.02,-322.397 1520.02,-327.994 1530.55,-329.229 1529.02,-322.397"/>
</g>
<!-- Node3 -->
<g id="node3" class="node"><title>Node3</title>
<g id="a_node3"><a xlink:href="Monitoring_8h.html" target="_top" xlink:title="/home/travis/build\l/AliceO2Group/Monitoring\l/include/Monitoring/Monitoring.h">
<polygon fill="none" stroke="black" points="1073,-167.5 1073,-208.5 1228,-208.5 1228,-167.5 1073,-167.5"/>
<text text-anchor="start" x="1081" y="-196.5" font-family="Helvetica,sans-Serif" font-size="10.00">/home/travis/build</text>
<text text-anchor="start" x="1081" y="-185.5" font-family="Helvetica,sans-Serif" font-size="10.00">/AliceO2Group/Monitoring</text>
<text text-anchor="middle" x="1150.5" y="-174.5" font-family="Helvetica,sans-Serif" font-size="10.00">/include/Monitoring/Monitoring.h</text>
</a>
</g>
</g>
<!-- Node2&#45;&gt;Node3 -->
<g id="edge2" class="edge"><title>Node2&#45;&gt;Node3</title>
<path fill="none" stroke="midnightblue" d="M714.691,-252.695C813.647,-238.232 976.524,-214.427 1072.65,-200.378"/>
<polygon fill="midnightblue" stroke="midnightblue" points="714.116,-249.242 704.727,-254.151 715.128,-256.168 714.116,-249.242"/>
</g>
<!-- Node20 -->
<g id="node20" class="node"><title>Node20</title>
<g id="a_node20"><a xlink:href="ApMonBackend_8h.html" target="_top" xlink:title="/home/travis/build\l/AliceO2Group/Monitoring\l/src/Backends/ApMonBackend.h">
<polygon fill="none" stroke="black" points="633.5,-167.5 633.5,-208.5 793.5,-208.5 793.5,-167.5 633.5,-167.5"/>
<text text-anchor="start" x="641.5" y="-196.5" font-family="Helvetica,sans-Serif" font-size="10.00">/home/travis/build</text>
<text text-anchor="start" x="641.5" y="-185.5" font-family="Helvetica,sans-Serif" font-size="10.00">/AliceO2Group/Monitoring</text>
<text text-anchor="middle" x="713.5" y="-174.5" font-family="Helvetica,sans-Serif" font-size="10.00">/src/Backends/ApMonBackend.h</text>
</a>
</g>
</g>
<!-- Node2&#45;&gt;Node20 -->
<g id="edge19" class="edge"><title>Node2&#45;&gt;Node20</title>
<path fill="none" stroke="midnightblue" d="M659.45,-238.492C670.22,-228.629 682.236,-217.627 692.198,-208.506"/>
<polygon fill="midnightblue" stroke="midnightblue" points="656.886,-236.094 651.875,-245.428 661.613,-241.256 656.886,-236.094"/>
</g>
<!-- Node22 -->
<g id="node22" class="node"><title>Node22</title>
<g id="a_node22"><a xlink:href="InfluxDB_8h.html" target="_top" xlink:title="/home/travis/build\l/AliceO2Group/Monitoring\l/src/Backends/InfluxDB.h">
<polygon fill="none" stroke="black" points="337,-167.5 337,-208.5 466,-208.5 466,-167.5 337,-167.5"/>
<text text-anchor="start" x="345" y="-196.5" font-family="Helvetica,sans-Serif" font-size="10.00">/home/travis/build</text>
<text text-anchor="start" x="345" y="-185.5" font-family="Helvetica,sans-Serif" font-size="10.00">/AliceO2Group/Monitoring</text>
<text text-anchor="middle" x="401.5" y="-174.5" font-family="Helvetica,sans-Serif" font-size="10.00">/src/Backends/InfluxDB.h</text>
</a>
</g>
</g>
<!-- Node2&#45;&gt;Node22 -->
<g id="edge21" class="edge"><title>Node2&#45;&gt;Node22</title>
<path fill="none" stroke="midnightblue" d="M561.695,-242.165C529.368,-231.437 491.228,-218.779 460.273,-208.506"/>
<polygon fill="midnightblue" stroke="midnightblue" points="560.933,-245.6 571.527,-245.428 563.138,-238.956 560.933,-245.6"/>
</g>
<!-- Node24 -->
<g id="node24" class="node"><title>Node24</title>
<g id="a_node24"><a xlink:href="Noop_8h.html" target="_top" xlink:title="/home/travis/build\l/AliceO2Group/Monitoring\l/src/Backends/Noop.h">
<polygon fill="none" stroke="black" points="94.5,-167.5 94.5,-208.5 222.5,-208.5 222.5,-167.5 94.5,-167.5"/>
<text text-anchor="start" x="102.5" y="-196.5" font-family="Helvetica,sans-Serif" font-size="10.00">/home/travis/build</text>
<text text-anchor="start" x="102.5" y="-185.5" font-family="Helvetica,sans-Serif" font-size="10.00">/AliceO2Group/Monitoring</text>
<text text-anchor="middle" x="158.5" y="-174.5" font-family="Helvetica,sans-Serif" font-size="10.00">/src/Backends/Noop.h</text>
</a>
</g>
</g>
<!-- Node2&#45;&gt;Node24 -->
<g id="edge24" class="edge"><title>Node2&#45;&gt;Node24</title>
<path fill="none" stroke="midnightblue" d="M546.575,-251.487C453.826,-236.552 306.491,-212.829 222.571,-199.317"/>
<polygon fill="midnightblue" stroke="midnightblue" points="546.061,-254.949 556.491,-253.083 547.174,-248.038 546.061,-254.949"/>
</g>
<!-- Node26 -->
<g id="node26" class="node"><title>Node26</title>
<g id="a_node26"><a xlink:href="Backends_2StdOut_8h_source.html" target="_top" xlink:title="/home/travis/build\l/AliceO2Group/Monitoring\l/src/Backends/StdOut.h">
<polygon fill="none" stroke="black" points="484.5,-167.5 484.5,-208.5 612.5,-208.5 612.5,-167.5 484.5,-167.5"/>
<text text-anchor="start" x="492.5" y="-196.5" font-family="Helvetica,sans-Serif" font-size="10.00">/home/travis/build</text>
<text text-anchor="start" x="492.5" y="-185.5" font-family="Helvetica,sans-Serif" font-size="10.00">/AliceO2Group/Monitoring</text>
<text text-anchor="middle" x="548.5" y="-174.5" font-family="Helvetica,sans-Serif" font-size="10.00">/src/Backends/StdOut.h</text>
</a>
</g>
</g>
<!-- Node2&#45;&gt;Node26 -->
<g id="edge27" class="edge"><title>Node2&#45;&gt;Node26</title>
<path fill="none" stroke="midnightblue" d="M601.899,-238.492C591.258,-228.629 579.387,-217.627 569.545,-208.506"/>
<polygon fill="midnightblue" stroke="midnightblue" points="599.669,-241.197 609.383,-245.428 604.428,-236.063 599.669,-241.197"/>
</g>
<!-- Node4 -->
<g id="node4" class="node"><title>Node4</title>
<g id="a_node4"><a xlink:href="MonitoringFactory_8h.html" target="_top" xlink:title="/home/travis/build\l/AliceO2Group/Monitoring\l/include/Monitoring/Monitoring\lFactory.h">
<polygon fill="none" stroke="black" points="936.5,-78.5 936.5,-130.5 1082.5,-130.5 1082.5,-78.5 936.5,-78.5"/>
<text text-anchor="start" x="944.5" y="-118.5" font-family="Helvetica,sans-Serif" font-size="10.00">/home/travis/build</text>
<text text-anchor="start" x="944.5" y="-107.5" font-family="Helvetica,sans-Serif" font-size="10.00">/AliceO2Group/Monitoring</text>
<text text-anchor="start" x="944.5" y="-96.5" font-family="Helvetica,sans-Serif" font-size="10.00">/include/Monitoring/Monitoring</text>
<text text-anchor="middle" x="1009.5" y="-85.5" font-family="Helvetica,sans-Serif" font-size="10.00">Factory.h</text>
</a>
</g>
</g>
<!-- Node3&#45;&gt;Node4 -->
<g id="edge3" class="edge"><title>Node3&#45;&gt;Node4</title>
<path fill="none" stroke="midnightblue" d="M1107.9,-162.375C1090.49,-152.312 1070.37,-140.685 1052.88,-130.576"/>
<polygon fill="midnightblue" stroke="midnightblue" points="1106.32,-165.505 1116.73,-167.479 1109.82,-159.444 1106.32,-165.505"/>
</g>
<!-- Node19 -->
<g id="node19" class="node"><title>Node19</title>
<g id="a_node19"><a xlink:href="Monitoring_8cxx.html" target="_top" xlink:title="/home/travis/build\l/AliceO2Group/Monitoring\l/src/Monitoring.cxx">
<polygon fill="none" stroke="black" points="1100.5,-84 1100.5,-125 1228.5,-125 1228.5,-84 1100.5,-84"/>
<text text-anchor="start" x="1108.5" y="-113" font-family="Helvetica,sans-Serif" font-size="10.00">/home/travis/build</text>
<text text-anchor="start" x="1108.5" y="-102" font-family="Helvetica,sans-Serif" font-size="10.00">/AliceO2Group/Monitoring</text>
<text text-anchor="middle" x="1164.5" y="-91" font-family="Helvetica,sans-Serif" font-size="10.00">/src/Monitoring.cxx</text>
</a>
</g>
</g>
<!-- Node3&#45;&gt;Node19 -->
<g id="edge18" class="edge"><title>Node3&#45;&gt;Node19</title>
<path fill="none" stroke="midnightblue" d="M1155.58,-157.398C1157.44,-146.627 1159.48,-134.73 1161.14,-125.047"/>
<polygon fill="midnightblue" stroke="midnightblue" points="1152.13,-156.823 1153.89,-167.271 1159.03,-158.008 1152.13,-156.823"/>
</g>
<!-- Node5 -->
<g id="node5" class="node"><title>Node5</title>
<g id="a_node5"><a xlink:href="1-Basic_8cxx.html" target="_top" xlink:title="/home/travis/build\l/AliceO2Group/Monitoring\l/examples/1&#45;Basic.cxx">
<polygon fill="none" stroke="black" points="1103.5,-0.5 1103.5,-41.5 1231.5,-41.5 1231.5,-0.5 1103.5,-0.5"/>
<text text-anchor="start" x="1111.5" y="-29.5" font-family="Helvetica,sans-Serif" font-size="10.00">/home/travis/build</text>
<text text-anchor="start" x="1111.5" y="-18.5" font-family="Helvetica,sans-Serif" font-size="10.00">/AliceO2Group/Monitoring</text>
<text text-anchor="middle" x="1167.5" y="-7.5" font-family="Helvetica,sans-Serif" font-size="10.00">/examples/1&#45;Basic.cxx</text>
</a>
</g>
</g>
<!-- Node4&#45;&gt;Node5 -->
<g id="edge4" class="edge"><title>Node4&#45;&gt;Node5</title>
<path fill="none" stroke="midnightblue" d="M1067.25,-73.7135C1087.99,-63.0118 1110.85,-51.2203 1129.5,-41.6027"/>
<polygon fill="midnightblue" stroke="midnightblue" points="1065.48,-70.6874 1058.19,-78.3823 1068.69,-76.9085 1065.48,-70.6874"/>
</g>
<!-- Node6 -->
<g id="node6" class="node"><title>Node6</title>
<g id="a_node6"><a xlink:href="10-Buffering_8cxx.html" target="_top" xlink:title="/home/travis/build\l/AliceO2Group/Monitoring\l/examples/10&#45;Buffering.cxx">
<polygon fill="none" stroke="black" points="1249.5,-0.5 1249.5,-41.5 1385.5,-41.5 1385.5,-0.5 1249.5,-0.5"/>
<text text-anchor="start" x="1257.5" y="-29.5" font-family="Helvetica,sans-Serif" font-size="10.00">/home/travis/build</text>
<text text-anchor="start" x="1257.5" y="-18.5" font-family="Helvetica,sans-Serif" font-size="10.00">/AliceO2Group/Monitoring</text>
<text text-anchor="middle" x="1317.5" y="-7.5" font-family="Helvetica,sans-Serif" font-size="10.00">/examples/10&#45;Buffering.cxx</text>
</a>
</g>
</g>
<!-- Node4&#45;&gt;Node6 -->
<g id="edge5" class="edge"><title>Node4&#45;&gt;Node6</title>
<path fill="none" stroke="midnightblue" d="M1092.44,-77.8038C1158.82,-59.7268 1177.39,-57.8201 1240.5,-42 1243.45,-41.2612 1246.46,-40.5017 1249.5,-39.7305"/>
<polygon fill="midnightblue" stroke="midnightblue" points="1091.47,-74.4424 1082.75,-80.465 1093.32,-81.1926 1091.47,-74.4424"/>
</g>
<!-- Node7 -->
<g id="node7" class="node"><title>Node7</title>
<g id="a_node7"><a xlink:href="2-TaggedMetrics_8cxx.html" target="_top" xlink:title="/home/travis/build\l/AliceO2Group/Monitoring\l/examples/2&#45;TaggedMetrics.cxx">
<polygon fill="none" stroke="black" points="1403.5,-0.5 1403.5,-41.5 1559.5,-41.5 1559.5,-0.5 1403.5,-0.5"/>
<text text-anchor="start" x="1411.5" y="-29.5" font-family="Helvetica,sans-Serif" font-size="10.00">/home/travis/build</text>
<text text-anchor="start" x="1411.5" y="-18.5" font-family="Helvetica,sans-Serif" font-size="10.00">/AliceO2Group/Monitoring</text>
<text text-anchor="middle" x="1481.5" y="-7.5" font-family="Helvetica,sans-Serif" font-size="10.00">/examples/2&#45;TaggedMetrics.cxx</text>
</a>
</g>
</g>
<!-- Node4&#45;&gt;Node7 -->
<g id="edge6" class="edge"><title>Node4&#45;&gt;Node7</title>
<path fill="none" stroke="midnightblue" d="M1092.82,-77.8892C1225.99,-50.4791 1264.15,-64.6582 1394.5,-42 1397.4,-41.4957 1400.35,-40.9561 1403.33,-40.3892"/>
<polygon fill="midnightblue" stroke="midnightblue" points="1091.71,-74.5462 1082.64,-80.0264 1093.15,-81.3969 1091.71,-74.5462"/>
</g>
<!-- Node8 -->
<g id="node8" class="node"><title>Node8</title>
<polygon fill="none" stroke="#bfbfbf" points="1578,-0.5 1578,-41.5 1711,-41.5 1711,-0.5 1578,-0.5"/>
<text text-anchor="start" x="1586" y="-29.5" font-family="Helvetica,sans-Serif" font-size="10.00">/home/travis/build</text>
<text text-anchor="start" x="1586" y="-18.5" font-family="Helvetica,sans-Serif" font-size="10.00">/AliceO2Group/Monitoring</text>
<text text-anchor="middle" x="1644.5" y="-7.5" font-family="Helvetica,sans-Serif" font-size="10.00">/examples/3&#45;Verbosity.cxx</text>
</g>
<!-- Node4&#45;&gt;Node8 -->
<g id="edge7" class="edge"><title>Node4&#45;&gt;Node8</title>
<path fill="none" stroke="midnightblue" d="M1092.7,-77.9709C1302.21,-39.3808 1362.11,-76.6487 1568.5,-42 1571.59,-41.4805 1574.75,-40.8928 1577.92,-40.2536"/>
<polygon fill="midnightblue" stroke="midnightblue" points="1091.79,-74.5803 1082.61,-79.8665 1093.08,-81.46 1091.79,-74.5803"/>
</g>
<!-- Node9 -->
<g id="node9" class="node"><title>Node9</title>
<g id="a_node9"><a xlink:href="4-RateDerivedMetric_8cxx.html" target="_top" xlink:title="/home/travis/build\l/AliceO2Group/Monitoring\l/examples/4&#45;RateDerivedMetric.cxx">
<polygon fill="none" stroke="black" points="1729,-0.5 1729,-41.5 1902,-41.5 1902,-0.5 1729,-0.5"/>
<text text-anchor="start" x="1737" y="-29.5" font-family="Helvetica,sans-Serif" font-size="10.00">/home/travis/build</text>
<text text-anchor="start" x="1737" y="-18.5" font-family="Helvetica,sans-Serif" font-size="10.00">/AliceO2Group/Monitoring</text>
<text text-anchor="middle" x="1815.5" y="-7.5" font-family="Helvetica,sans-Serif" font-size="10.00">/examples/4&#45;RateDerivedMetric.cxx</text>
</a>
</g>
</g>
<!-- Node4&#45;&gt;Node9 -->
<g id="edge8" class="edge"><title>Node4&#45;&gt;Node9</title>
<path fill="none" stroke="midnightblue" d="M1092.51,-78.0214C1368.83,-29.2338 1446.19,-78.5142 1720.5,-42 1723.26,-41.6331 1726.05,-41.2303 1728.87,-40.7979"/>
<polygon fill="midnightblue" stroke="midnightblue" points="1091.82,-74.589 1082.6,-79.7986 1093.06,-81.4791 1091.82,-74.589"/>
</g>
<!-- Node10 -->
<g id="node10" class="node"><title>Node10</title>
<g id="a_node10"><a xlink:href="5-Benchmark_8cxx.html" target="_top" xlink:title="/home/travis/build\l/AliceO2Group/Monitoring\l/examples/5&#45;Benchmark.cxx">
<polygon fill="none" stroke="black" points="1920,-0.5 1920,-41.5 2061,-41.5 2061,-0.5 1920,-0.5"/>
<text text-anchor="start" x="1928" y="-29.5" font-family="Helvetica,sans-Serif" font-size="10.00">/home/travis/build</text>
<text text-anchor="start" x="1928" y="-18.5" font-family="Helvetica,sans-Serif" font-size="10.00">/AliceO2Group/Monitoring</text>
<text text-anchor="middle" x="1990.5" y="-7.5" font-family="Helvetica,sans-Serif" font-size="10.00">/examples/5&#45;Benchmark.cxx</text>
</a>
</g>
</g>
<!-- Node4&#45;&gt;Node10 -->
<g id="edge9" class="edge"><title>Node4&#45;&gt;Node10</title>
<path fill="none" stroke="midnightblue" d="M1092.5,-78.0379C1452.69,-16.7474 1553.84,-94.5612 1911.5,-42 1914.16,-41.6092 1916.86,-41.1662 1919.58,-40.6809"/>
<polygon fill="midnightblue" stroke="midnightblue" points="1091.85,-74.5992 1082.59,-79.7488 1093.04,-81.4973 1091.85,-74.5992"/>
</g>
<!-- Node11 -->
<g id="node11" class="node"><title>Node11</title>
<g id="a_node11"><a xlink:href="6-Increment_8cxx.html" target="_top" xlink:title="/home/travis/build\l/AliceO2Group/Monitoring\l/examples/6&#45;Increment.cxx">
<polygon fill="none" stroke="black" points="151,-0.5 151,-41.5 286,-41.5 286,-0.5 151,-0.5"/>
<text text-anchor="start" x="159" y="-29.5" font-family="Helvetica,sans-Serif" font-size="10.00">/home/travis/build</text>
<text text-anchor="start" x="159" y="-18.5" font-family="Helvetica,sans-Serif" font-size="10.00">/AliceO2Group/Monitoring</text>
<text text-anchor="middle" x="218.5" y="-7.5" font-family="Helvetica,sans-Serif" font-size="10.00">/examples/6&#45;Increment.cxx</text>
</a>
</g>
</g>
<!-- Node4&#45;&gt;Node11 -->
<g id="edge10" class="edge"><title>Node4&#45;&gt;Node11</title>
<path fill="none" stroke="midnightblue" d="M926.521,-91.8435C890.595,-87.0758 848.027,-81.7996 809.5,-78 581.16,-55.481 520.885,-79.3605 294.5,-42 291.808,-41.5557 289.072,-41.0587 286.317,-40.5201"/>
<polygon fill="midnightblue" stroke="midnightblue" points="926.094,-95.3174 936.469,-93.1731 927.021,-88.379 926.094,-95.3174"/>
</g>
<!-- Node12 -->
<g id="node12" class="node"><title>Node12</title>
<polygon fill="none" stroke="#bfbfbf" points="304,-0.5 304,-41.5 477,-41.5 477,-0.5 304,-0.5"/>
<text text-anchor="start" x="312" y="-29.5" font-family="Helvetica,sans-Serif" font-size="10.00">/home/travis/build</text>
<text text-anchor="start" x="312" y="-18.5" font-family="Helvetica,sans-Serif" font-size="10.00">/AliceO2Group/Monitoring</text>
<text text-anchor="middle" x="390.5" y="-7.5" font-family="Helvetica,sans-Serif" font-size="10.00">/examples/7&#45;InternalBenchamrk.cxx</text>
</g>
<!-- Node4&#45;&gt;Node12 -->
<g id="edge11" class="edge"><title>Node4&#45;&gt;Node12</title>
<path fill="none" stroke="midnightblue" d="M926.438,-92.6108C890.497,-87.9765 847.941,-82.5925 809.5,-78 666.075,-60.8651 629.141,-64.7554 486.5,-42 483.39,-41.5038 480.228,-40.9749 477.038,-40.4206"/>
<polygon fill="midnightblue" stroke="midnightblue" points="926.024,-96.0864 936.39,-93.8968 926.921,-89.1441 926.024,-96.0864"/>
</g>
<!-- Node13 -->
<g id="node13" class="node"><title>Node13</title>
<g id="a_node13"><a xlink:href="MonitoringFactory_8cxx.html" target="_top" xlink:title="/home/travis/build\l/AliceO2Group/Monitoring\l/src/MonitoringFactory.cxx">
<polygon fill="none" stroke="black" points="0,-0.5 0,-41.5 133,-41.5 133,-0.5 0,-0.5"/>
<text text-anchor="start" x="8" y="-29.5" font-family="Helvetica,sans-Serif" font-size="10.00">/home/travis/build</text>
<text text-anchor="start" x="8" y="-18.5" font-family="Helvetica,sans-Serif" font-size="10.00">/AliceO2Group/Monitoring</text>
<text text-anchor="middle" x="66.5" y="-7.5" font-family="Helvetica,sans-Serif" font-size="10.00">/src/MonitoringFactory.cxx</text>
</a>
</g>
</g>
<!-- Node4&#45;&gt;Node13 -->
<g id="edge12" class="edge"><title>Node4&#45;&gt;Node13</title>
<path fill="none" stroke="midnightblue" d="M926.55,-91.546C890.628,-86.7266 848.056,-81.4922 809.5,-78 513.392,-51.1802 435.153,-88.5526 141.5,-42 138.705,-41.5569 135.864,-41.0519 133.003,-40.4982"/>
<polygon fill="midnightblue" stroke="midnightblue" points="926.117,-95.0193 936.496,-92.8925 927.056,-88.0825 926.117,-95.0193"/>
</g>
<!-- Node14 -->
<g id="node14" class="node"><title>Node14</title>
<polygon fill="none" stroke="#bfbfbf" points="495.5,-0.5 495.5,-41.5 623.5,-41.5 623.5,-0.5 495.5,-0.5"/>
<text text-anchor="start" x="503.5" y="-29.5" font-family="Helvetica,sans-Serif" font-size="10.00">/home/travis/build</text>
<text text-anchor="start" x="503.5" y="-18.5" font-family="Helvetica,sans-Serif" font-size="10.00">/AliceO2Group/Monitoring</text>
<text text-anchor="middle" x="559.5" y="-7.5" font-family="Helvetica,sans-Serif" font-size="10.00">/test/testApMon.cxx</text>
</g>
<!-- Node4&#45;&gt;Node14 -->
<g id="edge13" class="edge"><title>Node4&#45;&gt;Node14</title>
<path fill="none" stroke="midnightblue" d="M926.36,-92.5134C849.652,-81.7683 732.804,-63.8575 632.5,-42 629.675,-41.3845 626.797,-40.727 623.895,-40.0394"/>
<polygon fill="midnightblue" stroke="midnightblue" points="926.057,-96.0049 936.444,-93.9171 927.022,-89.0718 926.057,-96.0049"/>
</g>
<!-- Node15 -->
<g id="node15" class="node"><title>Node15</title>
<polygon fill="none" stroke="#bfbfbf" points="641.5,-0.5 641.5,-41.5 769.5,-41.5 769.5,-0.5 641.5,-0.5"/>
<text text-anchor="start" x="649.5" y="-29.5" font-family="Helvetica,sans-Serif" font-size="10.00">/home/travis/build</text>
<text text-anchor="start" x="649.5" y="-18.5" font-family="Helvetica,sans-Serif" font-size="10.00">/AliceO2Group/Monitoring</text>
<text text-anchor="middle" x="705.5" y="-7.5" font-family="Helvetica,sans-Serif" font-size="10.00">/test/testInfluxDb.cxx</text>
</g>
<!-- Node4&#45;&gt;Node15 -->
<g id="edge14" class="edge"><title>Node4&#45;&gt;Node15</title>
<path fill="none" stroke="midnightblue" d="M926.587,-81.5805C882.57,-69.905 827.575,-55.255 778.5,-42 775.582,-41.2119 772.599,-40.404 769.587,-39.5862"/>
<polygon fill="midnightblue" stroke="midnightblue" points="925.815,-84.9968 936.378,-84.1767 927.609,-78.2306 925.815,-84.9968"/>
</g>
<!-- Node16 -->
<g id="node16" class="node"><title>Node16</title>
<polygon fill="none" stroke="#bfbfbf" points="787.5,-0.5 787.5,-41.5 915.5,-41.5 915.5,-0.5 787.5,-0.5"/>
<text text-anchor="start" x="795.5" y="-29.5" font-family="Helvetica,sans-Serif" font-size="10.00">/home/travis/build</text>
<text text-anchor="start" x="795.5" y="-18.5" font-family="Helvetica,sans-Serif" font-size="10.00">/AliceO2Group/Monitoring</text>
<text text-anchor="middle" x="851.5" y="-7.5" font-family="Helvetica,sans-Serif" font-size="10.00">/test/testMonitoring.cxx</text>
</g>
<!-- Node4&#45;&gt;Node16 -->
<g id="edge15" class="edge"><title>Node4&#45;&gt;Node16</title>
<path fill="none" stroke="midnightblue" d="M951.754,-73.7135C931.008,-63.0118 908.148,-51.2203 889.503,-41.6027"/>
<polygon fill="midnightblue" stroke="midnightblue" points="950.314,-76.9085 960.806,-78.3823 953.523,-70.6874 950.314,-76.9085"/>
</g>
<!-- Node17 -->
<g id="node17" class="node"><title>Node17</title>
<polygon fill="none" stroke="#bfbfbf" points="933.5,-0.5 933.5,-41.5 1085.5,-41.5 1085.5,-0.5 933.5,-0.5"/>
<text text-anchor="start" x="941.5" y="-29.5" font-family="Helvetica,sans-Serif" font-size="10.00">/home/travis/build</text>
<text text-anchor="start" x="941.5" y="-18.5" font-family="Helvetica,sans-Serif" font-size="10.00">/AliceO2Group/Monitoring</text>
<text text-anchor="middle" x="1009.5" y="-7.5" font-family="Helvetica,sans-Serif" font-size="10.00">/test/testMonitoringFactory.cxx</text>
</g>
<!-- Node4&#45;&gt;Node17 -->
<g id="edge16" class="edge"><title>Node4&#45;&gt;Node17</title>
<path fill="none" stroke="midnightblue" d="M1009.5,-68.1474C1009.5,-59.0546 1009.5,-49.5968 1009.5,-41.6282"/>
<polygon fill="midnightblue" stroke="midnightblue" points="1006,-68.1596 1009.5,-78.1596 1013,-68.1597 1006,-68.1596"/>
</g>
<!-- Node18 -->
<g id="node18" class="node"><title>Node18</title>
<polygon fill="none" stroke="#bfbfbf" points="2079,-0.5 2079,-41.5 2222,-41.5 2222,-0.5 2079,-0.5"/>
<text text-anchor="start" x="2087" y="-29.5" font-family="Helvetica,sans-Serif" font-size="10.00">/home/travis/build</text>
<text text-anchor="start" x="2087" y="-18.5" font-family="Helvetica,sans-Serif" font-size="10.00">/AliceO2Group/Monitoring</text>
<text text-anchor="middle" x="2150.5" y="-7.5" font-family="Helvetica,sans-Serif" font-size="10.00">/test/testProcessMonitor.cxx</text>
</g>
<!-- Node4&#45;&gt;Node18 -->
<g id="edge17" class="edge"><title>Node4&#45;&gt;Node18</title>
<path fill="none" stroke="midnightblue" d="M1092.48,-78.0487C1522.51,-6.193 1642.67,-102.669 2070.5,-42 2073.19,-41.6181 2075.93,-41.1827 2078.68,-40.7039"/>
<polygon fill="midnightblue" stroke="midnightblue" points="1091.86,-74.6032 1082.58,-79.7222 1093.03,-81.5052 1091.86,-74.6032"/>
</g>
<!-- Node21 -->
<g id="node21" class="node"><title>Node21</title>
<g id="a_node21"><a xlink:href="ApMonBackend_8cxx.html" target="_top" xlink:title="/home/travis/build\l/AliceO2Group/Monitoring\l/src/Backends/ApMonBackend.cxx">
<polygon fill="none" stroke="black" points="630.5,-84 630.5,-125 800.5,-125 800.5,-84 630.5,-84"/>
<text text-anchor="start" x="638.5" y="-113" font-family="Helvetica,sans-Serif" font-size="10.00">/home/travis/build</text>
<text text-anchor="start" x="638.5" y="-102" font-family="Helvetica,sans-Serif" font-size="10.00">/AliceO2Group/Monitoring</text>
<text text-anchor="middle" x="715.5" y="-91" font-family="Helvetica,sans-Serif" font-size="10.00">/src/Backends/ApMonBackend.cxx</text>
</a>
</g>
</g>
<!-- Node20&#45;&gt;Node21 -->
<g id="edge20" class="edge"><title>Node20&#45;&gt;Node21</title>
<path fill="none" stroke="midnightblue" d="M714.235,-157.065C714.497,-146.382 714.785,-134.63 715.02,-125.047"/>
<polygon fill="midnightblue" stroke="midnightblue" points="710.731,-157.188 713.984,-167.271 717.729,-157.36 710.731,-157.188"/>
</g>
<!-- Node22&#45;&gt;Node13 -->
<g id="edge23" class="edge"><title>Node22&#45;&gt;Node13</title>
<path fill="none" stroke="midnightblue" d="M407.247,-156.892C410.049,-132.353 409.319,-98.5146 389.5,-78 350.807,-37.9487 196.052,-53.1934 141.5,-42 138.728,-41.4312 135.906,-40.8211 133.061,-40.1804"/>
<polygon fill="midnightblue" stroke="midnightblue" points="403.738,-156.713 405.821,-167.101 410.67,-157.682 403.738,-156.713"/>
</g>
<!-- Node23 -->
<g id="node23" class="node"><title>Node23</title>
<g id="a_node23"><a xlink:href="InfluxDB_8cxx.html" target="_top" xlink:title="/home/travis/build\l/AliceO2Group/Monitoring\l/src/Backends/InfluxDB.cxx">
<polygon fill="none" stroke="black" points="240.5,-84 240.5,-125 380.5,-125 380.5,-84 240.5,-84"/>
<text text-anchor="start" x="248.5" y="-113" font-family="Helvetica,sans-Serif" font-size="10.00">/home/travis/build</text>
<text text-anchor="start" x="248.5" y="-102" font-family="Helvetica,sans-Serif" font-size="10.00">/AliceO2Group/Monitoring</text>
<text text-anchor="middle" x="310.5" y="-91" font-family="Helvetica,sans-Serif" font-size="10.00">/src/Backends/InfluxDB.cxx</text>
</a>
</g>
</g>
<!-- Node22&#45;&gt;Node23 -->
<g id="edge22" class="edge"><title>Node22&#45;&gt;Node23</title>
<path fill="none" stroke="midnightblue" d="M371.76,-160.365C358.907,-148.854 344.14,-135.629 332.326,-125.047"/>
<polygon fill="midnightblue" stroke="midnightblue" points="369.687,-163.207 379.471,-167.271 374.357,-157.992 369.687,-163.207"/>
</g>
<!-- Node24&#45;&gt;Node13 -->
<g id="edge25" class="edge"><title>Node24&#45;&gt;Node13</title>
<path fill="none" stroke="midnightblue" d="M114.117,-161.276C103.204,-152.941 92.6208,-142.759 85.5,-131 68.6844,-103.232 65.7903,-64.6232 65.7653,-41.5887"/>
<polygon fill="midnightblue" stroke="midnightblue" points="112.313,-164.29 122.475,-167.287 116.4,-158.607 112.313,-164.29"/>
</g>
<!-- Node25 -->
<g id="node25" class="node"><title>Node25</title>
<polygon fill="none" stroke="#bfbfbf" points="94.5,-84 94.5,-125 222.5,-125 222.5,-84 94.5,-84"/>
<text text-anchor="start" x="102.5" y="-113" font-family="Helvetica,sans-Serif" font-size="10.00">/home/travis/build</text>
<text text-anchor="start" x="102.5" y="-102" font-family="Helvetica,sans-Serif" font-size="10.00">/AliceO2Group/Monitoring</text>
<text text-anchor="middle" x="158.5" y="-91" font-family="Helvetica,sans-Serif" font-size="10.00">/test/testNoop.cxx</text>
</g>
<!-- Node24&#45;&gt;Node25 -->
<g id="edge26" class="edge"><title>Node24&#45;&gt;Node25</title>
<path fill="none" stroke="midnightblue" d="M158.5,-157.065C158.5,-146.382 158.5,-134.63 158.5,-125.047"/>
<polygon fill="midnightblue" stroke="midnightblue" points="155,-157.271 158.5,-167.271 162,-157.271 155,-157.271"/>
</g>
<!-- Node26&#45;&gt;Node13 -->
<g id="edge29" class="edge"><title>Node26&#45;&gt;Node13</title>
<path fill="none" stroke="midnightblue" d="M511.545,-161.396C498.64,-152.123 484.21,-141.375 471.5,-131 444.449,-108.919 445.153,-92.7466 413.5,-78 302.964,-26.5029 261.106,-65.7595 141.5,-42 138.724,-41.4486 135.899,-40.8531 133.052,-40.2244"/>
<polygon fill="midnightblue" stroke="midnightblue" points="509.596,-164.305 519.771,-167.257 513.658,-158.604 509.596,-164.305"/>
</g>
<!-- Node27 -->
<g id="node27" class="node"><title>Node27</title>
<polygon fill="none" stroke="#bfbfbf" points="480.5,-84 480.5,-125 612.5,-125 612.5,-84 480.5,-84"/>
<text text-anchor="start" x="488.5" y="-113" font-family="Helvetica,sans-Serif" font-size="10.00">/home/travis/build</text>
<text text-anchor="start" x="488.5" y="-102" font-family="Helvetica,sans-Serif" font-size="10.00">/AliceO2Group/Monitoring</text>
<text text-anchor="middle" x="546.5" y="-91" font-family="Helvetica,sans-Serif" font-size="10.00">/src/Backends/StdOut.cxx</text>
</g>
<!-- Node26&#45;&gt;Node27 -->
<g id="edge28" class="edge"><title>Node26&#45;&gt;Node27</title>
<path fill="none" stroke="midnightblue" d="M547.765,-157.065C547.503,-146.382 547.215,-134.63 546.98,-125.047"/>
<polygon fill="midnightblue" stroke="midnightblue" points="544.271,-157.36 548.016,-167.271 551.269,-157.188 544.271,-157.36"/>
</g>
<!-- Node28&#45;&gt;Node3 -->
<g id="edge31" class="edge"><title>Node28&#45;&gt;Node3</title>
<path fill="none" stroke="midnightblue" d="M1364.07,-242.925C1320.95,-232.038 1269.4,-219.022 1227.75,-208.506"/>
<polygon fill="midnightblue" stroke="midnightblue" points="1363.43,-246.373 1373.99,-245.428 1365.15,-239.586 1363.43,-246.373"/>
</g>
<!-- Node29 -->
<g id="node29" class="node"><title>Node29</title>
<g id="a_node29"><a xlink:href="DerivedMetrics_8cxx.html" target="_top" xlink:title="/home/travis/build\l/AliceO2Group/Monitoring\l/src/DerivedMetrics.cxx">
<polygon fill="none" stroke="black" points="1576.5,-167.5 1576.5,-208.5 1704.5,-208.5 1704.5,-167.5 1576.5,-167.5"/>
<text text-anchor="start" x="1584.5" y="-196.5" font-family="Helvetica,sans-Serif" font-size="10.00">/home/travis/build</text>
<text text-anchor="start" x="1584.5" y="-185.5" font-family="Helvetica,sans-Serif" font-size="10.00">/AliceO2Group/Monitoring</text>
<text text-anchor="middle" x="1640.5" y="-174.5" font-family="Helvetica,sans-Serif" font-size="10.00">/src/DerivedMetrics.cxx</text>
</a>
</g>
</g>
<!-- Node28&#45;&gt;Node29 -->
<g id="edge32" class="edge"><title>Node28&#45;&gt;Node29</title>
<path fill="none" stroke="midnightblue" d="M1509.67,-241.609C1536.05,-231.001 1566.89,-218.602 1591.99,-208.506"/>
<polygon fill="midnightblue" stroke="midnightblue" points="1508.14,-238.45 1500.17,-245.428 1510.76,-244.945 1508.14,-238.45"/>
</g>
<!-- Node30 -->
<g id="node30" class="node"><title>Node30</title>
<polygon fill="none" stroke="#bfbfbf" points="1430.5,-167.5 1430.5,-208.5 1558.5,-208.5 1558.5,-167.5 1430.5,-167.5"/>
<text text-anchor="start" x="1438.5" y="-196.5" font-family="Helvetica,sans-Serif" font-size="10.00">/home/travis/build</text>
<text text-anchor="start" x="1438.5" y="-185.5" font-family="Helvetica,sans-Serif" font-size="10.00">/AliceO2Group/Monitoring</text>
<text text-anchor="middle" x="1494.5" y="-174.5" font-family="Helvetica,sans-Serif" font-size="10.00">/test/testDerived.cxx</text>
</g>
<!-- Node28&#45;&gt;Node30 -->
<g id="edge33" class="edge"><title>Node28&#45;&gt;Node30</title>
<path fill="none" stroke="midnightblue" d="M1467.64,-236.466C1472.92,-227.143 1478.65,-217.007 1483.46,-208.506"/>
<polygon fill="midnightblue" stroke="midnightblue" points="1464.45,-235.001 1462.57,-245.428 1470.54,-238.448 1464.45,-235.001"/>
</g>
<!-- Node31&#45;&gt;Node3 -->
<g id="edge35" class="edge"><title>Node31&#45;&gt;Node3</title>
<path fill="none" stroke="midnightblue" d="M1220.73,-239.35C1206.67,-229.272 1190.8,-217.893 1177.71,-208.506"/>
<polygon fill="midnightblue" stroke="midnightblue" points="1219.04,-242.446 1229.2,-245.428 1223.11,-236.757 1219.04,-242.446"/>
</g>
<!-- Node31&#45;&gt;Node18 -->
<g id="edge37" class="edge"><title>Node31&#45;&gt;Node18</title>
<path fill="none" stroke="midnightblue" d="M1253.92,-235.262C1253.76,-213.322 1257.5,-184.375 1275.5,-167 1404.18,-42.8104 1895.24,-77.6113 2070.5,-42 2073.17,-41.4584 2075.88,-40.8869 2078.61,-40.2932"/>
<polygon fill="midnightblue" stroke="midnightblue" points="1250.42,-235.514 1254.27,-245.388 1257.42,-235.274 1250.42,-235.514"/>
</g>
<!-- Node32 -->
<g id="node32" class="node"><title>Node32</title>
<g id="a_node32"><a xlink:href="ProcessMonitor_8cxx.html" target="_top" xlink:title="/home/travis/build\l/AliceO2Group/Monitoring\l/src/ProcessMonitor.cxx">
<polygon fill="none" stroke="black" points="1284.5,-167.5 1284.5,-208.5 1412.5,-208.5 1412.5,-167.5 1284.5,-167.5"/>
<text text-anchor="start" x="1292.5" y="-196.5" font-family="Helvetica,sans-Serif" font-size="10.00">/home/travis/build</text>
<text text-anchor="start" x="1292.5" y="-185.5" font-family="Helvetica,sans-Serif" font-size="10.00">/AliceO2Group/Monitoring</text>
<text text-anchor="middle" x="1348.5" y="-174.5" font-family="Helvetica,sans-Serif" font-size="10.00">/src/ProcessMonitor.cxx</text>
</a>
</g>
</g>
<!-- Node31&#45;&gt;Node32 -->
<g id="edge36" class="edge"><title>Node31&#45;&gt;Node32</title>
<path fill="none" stroke="midnightblue" d="M1288.24,-238.779C1300.27,-228.843 1313.74,-217.716 1324.89,-208.506"/>
<polygon fill="midnightblue" stroke="midnightblue" points="1285.67,-236.361 1280.19,-245.428 1290.13,-241.758 1285.67,-236.361"/>
</g>
</g>
</svg>
        <g id="navigator" transform="translate(0 0)" fill="#404254">
                <rect fill="#f2f5e9" fill-opacity="0.5" stroke="#606060" stroke-width=".5" x="0" y="0" width="60" height="60"/>
                <use id="zoomplus" xlink:href="#zoomPlus" x="17" y="9" onmousedown="handleZoom(evt,'in')"/>
                <use id="zoomminus" xlink:href="#zoomMin" x="42" y="9" onmousedown="handleZoom(evt,'out')"/>
                <use id="reset" xlink:href="#resetDef" x="30" y="36" onmousedown="handleReset()"/>
                <g id="arrowUp" xlink:href="#dirArrow" transform="translate(30 24)" onmousedown="handlePan(0,-1)">
                  <use xlink:href="#rim" fill="#404040">
                        <set attributeName="fill" to="#808080" begin="arrowUp.mouseover" end="arrowUp.mouseout"/>
                  </use>
                  <path fill="none" stroke="white" stroke-width="1.5" d="M0,-3.0v7 M-2.5,-0.5L0,-3.0L2.5,-0.5"/>
                </g>
                <g id="arrowRight" xlink:href="#dirArrow" transform="rotate(90) translate(36 -43)" onmousedown="handlePan(1,0)">
                  <use xlink:href="#rim" fill="#404040">
                        <set attributeName="fill" to="#808080" begin="arrowRight.mouseover" end="arrowRight.mouseout"/>
                  </use>
                  <path fill="none" stroke="white" stroke-width="1.5" d="M0,-3.0v7 M-2.5,-0.5L0,-3.0L2.5,-0.5"/>
                </g>
                <g id="arrowDown" xlink:href="#dirArrow" transform="rotate(180) translate(-30 -48)" onmousedown="handlePan(0,1)">
                  <use xlink:href="#rim" fill="#404040">
                        <set attributeName="fill" to="#808080" begin="arrowDown.mouseover" end="arrowDown.mouseout"/>
                  </use>
                  <path fill="none" stroke="white" stroke-width="1.5" d="M0,-3.0v7 M-2.5,-0.5L0,-3.0L2.5,-0.5"/>
                </g>
                <g id="arrowLeft" xlink:href="#dirArrow" transform="rotate(270) translate(-36 17)" onmousedown="handlePan(-1,0)">
                  <use xlink:href="#rim" fill="#404040">
                        <set attributeName="fill" to="#808080" begin="arrowLeft.mouseover" end="arrowLeft.mouseout"/>
                  </use>
                  <path fill="none" stroke="white" stroke-width="1.5" d="M0,-3.0v7 M-2.5,-0.5L0,-3.0L2.5,-0.5"/>
                </g>
        </g>
        <svg viewBox="0 0 15 15" width="100%" height="30px" preserveAspectRatio="xMaxYMin meet">
         <g id="arrow_out" transform="scale(0.3 0.3)">
          <a xlink:href="Metric_8h__dep__incl_org.svg" target="_base">
           <rect id="button" ry="5" rx="5" y="6" x="6" height="38" width="38"
                fill="#f2f5e9" fill-opacity="0.5" stroke="#606060" stroke-width="1.0"/>
           <path id="arrow"
             d="M 11.500037,31.436501 C 11.940474,20.09759 22.043105,11.32322 32.158766,21.979434 L 37.068811,17.246167 C 37.068811,17.246167 37.088388,32 37.088388,32 L 22.160133,31.978069 C 22.160133,31.978069 26.997745,27.140456 26.997745,27.140456 C 18.528582,18.264221 13.291696,25.230495 11.500037,31.436501 z"
             style="fill:#404040;"/>
          </a>
         </g>
        </svg>
</svg>
