<?xml version="1.0" encoding="UTF-8" standalone="no"?>
<!DOCTYPE svg PUBLIC "-//W3C//DTD SVG 1.1//EN"
 "http://www.w3.org/Graphics/SVG/1.1/DTD/svg11.dtd">
<!-- Generated by graphviz version 2.38.0 (20140413.2041)
 -->
<!-- Title: /home/travis/build/AliceO2Group/Monitoring/src/MonitoringFactory.cxx Pages: 1 -->
<!--zoomable 386 -->
<svg id="main" version="1.1" xmlns="http://www.w3.org/2000/svg" xmlns:xlink="http://www.w3.org/1999/xlink" xml:space="preserve" onload="init(evt)">
<style type="text/css"><![CDATA[
.edge:hover path { stroke: red; }
.edge:hover polygon { stroke: red; fill: red; }
]]></style>
<script type="text/javascript"><![CDATA[
var edges = document.getElementsByTagName('g');
if (edges && edges.length) {
  for (var i=0;i<edges.length;i++) {
    if (edges[i].id.substr(0,4)=='edge') {
      edges[i].setAttribute('class','edge');
    }
  }
}
]]></script>
        <defs>
                <circle id="rim" cx="0" cy="0" r="7"/>
                <circle id="rim2" cx="0" cy="0" r="3.5"/>
                <g id="zoomPlus">
                        <use xlink:href="#rim" fill="#404040">
                                <set attributeName="fill" to="#808080" begin="zoomplus.mouseover" end="zoomplus.mouseout"/>
                        </use>
                        <path d="M-4,0h8M0,-4v8" fill="none" stroke="white" stroke-width="1.5" pointer-events="none"/>
                </g>
                <g id="zoomMin">
                        <use xlink:href="#rim" fill="#404040">
                                <set attributeName="fill" to="#808080" begin="zoomminus.mouseover" end="zoomminus.mouseout"/>
                        </use>
                        <path d="M-4,0h8" fill="none" stroke="white" stroke-width="1.5" pointer-events="none"/>
                </g>
                <g id="dirArrow">
                        <path fill="none" stroke="white" stroke-width="1.5" d="M0,-3.0v7 M-2.5,-0.5L0,-3.0L2.5,-0.5"/>
                </g>
               <g id="resetDef">
                       <use xlink:href="#rim2" fill="#404040">
                               <set attributeName="fill" to="#808080" begin="reset.mouseover" end="reset.mouseout"/>
                       </use>
               </g>
        </defs>

<script type="text/javascript">
var viewWidth = 1761;
var viewHeight = 386;
var sectionId = 'dynsection-0';
</script>
<script xlink:href="svgpan.js"/>
<svg id="graph" class="graph">
<g id="viewport">
<title>/home/travis/build/AliceO2Group/Monitoring/src/MonitoringFactory.cxx</title>
<!-- Node1 -->
<g id="node1" class="node"><title>Node1</title>
<polygon fill="#bfbfbf" stroke="black" points="618.5,-336.5 618.5,-377.5 751.5,-377.5 751.5,-336.5 618.5,-336.5"/>
<text text-anchor="start" x="626.5" y="-365.5" font-family="Helvetica,sans-Serif" font-size="10.00">/home/travis/build</text>
<text text-anchor="start" x="626.5" y="-354.5" font-family="Helvetica,sans-Serif" font-size="10.00">/AliceO2Group/Monitoring</text>
<text text-anchor="middle" x="685" y="-343.5" font-family="Helvetica,sans-Serif" font-size="10.00">/src/MonitoringFactory.cxx</text>
</g>
<!-- Node2 -->
<g id="node2" class="node"><title>Node2</title>
<g id="a_node2"><a xlink:href="MonitoringFactory_8h.html" target="_top" xlink:title="Monitoring/MonitoringFactory.h">
<polygon fill="none" stroke="black" points="819.5,-280.5 819.5,-299.5 970.5,-299.5 970.5,-280.5 819.5,-280.5"/>
<text text-anchor="middle" x="895" y="-287.5" font-family="Helvetica,sans-Serif" font-size="10.00">Monitoring/MonitoringFactory.h</text>
</a>
</g>
</g>
<!-- Node1&#45;&gt;Node2 -->
<g id="edge1" class="edge"><title>Node1&#45;&gt;Node2</title>
<path fill="none" stroke="midnightblue" d="M748.007,-336.498C783.718,-325.444 827.188,-311.99 857.556,-302.59"/>
<polygon fill="midnightblue" stroke="midnightblue" points="858.804,-305.867 867.322,-299.567 856.734,-299.18 858.804,-305.867"/>
</g>
<!-- Node21 -->
<g id="node21" class="node"><title>Node21</title>
<polygon fill="none" stroke="#bfbfbf" points="153.5,-56.5 153.5,-75.5 282.5,-75.5 282.5,-56.5 153.5,-56.5"/>
<text text-anchor="middle" x="218" y="-63.5" font-family="Helvetica,sans-Serif" font-size="10.00">boost/algorithm/string.hpp</text>
</g>
<!-- Node1&#45;&gt;Node21 -->
<g id="edge41" class="edge"><title>Node1&#45;&gt;Node21</title>
<path fill="none" stroke="midnightblue" d="M618.474,-355.139C472.697,-351.452 138,-332.383 138,-235 138,-235 138,-235 138,-177 138,-146.902 139.763,-136.673 157,-112 165.949,-99.1907 179.719,-88.5832 191.912,-80.8906"/>
<polygon fill="midnightblue" stroke="midnightblue" points="194.02,-83.7094 200.824,-75.5881 190.441,-77.6938 194.02,-83.7094"/>
</g>
<!-- Node24 -->
<g id="node24" class="node"><title>Node24</title>
<polygon fill="none" stroke="#bfbfbf" points="988.5,-280.5 988.5,-299.5 1047.5,-299.5 1047.5,-280.5 988.5,-280.5"/>
<text text-anchor="middle" x="1018" y="-287.5" font-family="Helvetica,sans-Serif" font-size="10.00">functional</text>
</g>
<!-- Node1&#45;&gt;Node24 -->
<g id="edge39" class="edge"><title>Node1&#45;&gt;Node24</title>
<path fill="none" stroke="midnightblue" d="M751.702,-344.053C809.114,-333.596 894.41,-317.65 978.264,-300.091"/>
<polygon fill="midnightblue" stroke="midnightblue" points="979.15,-303.481 988.216,-297.998 977.709,-296.631 979.15,-303.481"/>
</g>
<!-- Node25 -->
<g id="node25" class="node"><title>Node25</title>
<polygon fill="none" stroke="#bfbfbf" points="1065.5,-280.5 1065.5,-299.5 1124.5,-299.5 1124.5,-280.5 1065.5,-280.5"/>
<text text-anchor="middle" x="1095" y="-287.5" font-family="Helvetica,sans-Serif" font-size="10.00">stdexcept</text>
</g>
<!-- Node1&#45;&gt;Node25 -->
<g id="edge40" class="edge"><title>Node1&#45;&gt;Node25</title>
<path fill="none" stroke="midnightblue" d="M751.61,-347.519C823.888,-337.962 942.875,-321.199 1055.1,-300.044"/>
<polygon fill="midnightblue" stroke="midnightblue" points="1056.07,-303.422 1065.24,-298.116 1054.76,-296.545 1056.07,-303.422"/>
</g>
<!-- Node26 -->
<g id="node26" class="node"><title>Node26</title>
<g id="a_node26"><a xlink:href="MonLogger_8h.html" target="_top" xlink:title="MonLogger.h">
<polygon fill="none" stroke="black" points="409.5,-168.5 409.5,-187.5 482.5,-187.5 482.5,-168.5 409.5,-168.5"/>
<text text-anchor="middle" x="446" y="-175.5" font-family="Helvetica,sans-Serif" font-size="10.00">MonLogger.h</text>
</a>
</g>
</g>
<!-- Node1&#45;&gt;Node26 -->
<g id="edge42" class="edge"><title>Node1&#45;&gt;Node26</title>
<path fill="none" stroke="midnightblue" d="M618.068,-350.281C578.674,-343.741 530.224,-329.775 497,-300 466.548,-272.709 453.732,-224.257 448.787,-197.697"/>
<polygon fill="midnightblue" stroke="midnightblue" points="452.23,-197.062 447.122,-187.78 445.327,-198.221 452.23,-197.062"/>
</g>
<!-- Node28 -->
<g id="node28" class="node"><title>Node28</title>
<g id="a_node28"><a xlink:href="UriParser_8h_source.html" target="_top" xlink:title="UriParser/UriParser.h">
<polygon fill="none" stroke="black" points="0,-168.5 0,-187.5 110,-187.5 110,-168.5 0,-168.5"/>
<text text-anchor="middle" x="55" y="-175.5" font-family="Helvetica,sans-Serif" font-size="10.00">UriParser/UriParser.h</text>
</a>
</g>
</g>
<!-- Node1&#45;&gt;Node28 -->
<g id="edge46" class="edge"><title>Node1&#45;&gt;Node28</title>
<path fill="none" stroke="midnightblue" d="M618.255,-356.831C487.642,-357.264 204.034,-351.981 124,-300 87.1032,-276.036 67.8005,-225.021 59.7197,-197.507"/>
<polygon fill="midnightblue" stroke="midnightblue" points="63.024,-196.322 57.002,-187.605 56.2737,-198.175 63.024,-196.322"/>
</g>
<!-- Node30 -->
<g id="node30" class="node"><title>Node30</title>
<g id="a_node30"><a xlink:href="Backends_2StdOut_8h_source.html" target="_top" xlink:title="Backends/StdOut.h">
<polygon fill="none" stroke="black" points="857,-224.5 857,-243.5 959,-243.5 959,-224.5 857,-224.5"/>
<text text-anchor="middle" x="908" y="-231.5" font-family="Helvetica,sans-Serif" font-size="10.00">Backends/StdOut.h</text>
</a>
</g>
</g>
<!-- Node1&#45;&gt;Node30 -->
<g id="edge50" class="edge"><title>Node1&#45;&gt;Node30</title>
<path fill="none" stroke="midnightblue" d="M714.994,-336.412C739.966,-320.435 776.693,-297.696 810,-280 832.347,-268.127 858.415,-256.247 878.046,-247.677"/>
<polygon fill="midnightblue" stroke="midnightblue" points="879.607,-250.816 887.396,-243.633 876.828,-244.391 879.607,-250.816"/>
</g>
<!-- Node31 -->
<g id="node31" class="node"><title>Node31</title>
<g id="a_node31"><a xlink:href="Noop_8h.html" target="_top" xlink:title="Backends/Noop.h">
<polygon fill="none" stroke="black" points="743.5,-224.5 743.5,-243.5 838.5,-243.5 838.5,-224.5 743.5,-224.5"/>
<text text-anchor="middle" x="791" y="-231.5" font-family="Helvetica,sans-Serif" font-size="10.00">Backends/Noop.h</text>
</a>
</g>
</g>
<!-- Node1&#45;&gt;Node31 -->
<g id="edge53" class="edge"><title>Node1&#45;&gt;Node31</title>
<path fill="none" stroke="midnightblue" d="M702.267,-336.29C722.983,-312.642 757.332,-273.432 776.655,-251.375"/>
<polygon fill="midnightblue" stroke="midnightblue" points="779.531,-253.403 783.488,-243.575 774.266,-248.79 779.531,-253.403"/>
</g>
<!-- Node32 -->
<g id="node32" class="node"><title>Node32</title>
<g id="a_node32"><a xlink:href="InfluxDB_8h.html" target="_top" xlink:title="Backends/InfluxDB.h">
<polygon fill="none" stroke="black" points="577,-224.5 577,-243.5 687,-243.5 687,-224.5 577,-224.5"/>
<text text-anchor="middle" x="632" y="-231.5" font-family="Helvetica,sans-Serif" font-size="10.00">Backends/InfluxDB.h</text>
</a>
</g>
</g>
<!-- Node1&#45;&gt;Node32 -->
<g id="edge55" class="edge"><title>Node1&#45;&gt;Node32</title>
<path fill="none" stroke="midnightblue" d="M676.367,-336.29C666.238,-313.166 649.591,-275.16 639.825,-252.864"/>
<polygon fill="midnightblue" stroke="midnightblue" points="642.974,-251.33 635.756,-243.575 636.562,-254.139 642.974,-251.33"/>
</g>
<!-- Node34 -->
<g id="node34" class="node"><title>Node34</title>
<g id="a_node34"><a xlink:href="UDP_8h.html" target="_top" xlink:title="Transports/UDP.h">
<polygon fill="none" stroke="black" points="344,-112.5 344,-131.5 440,-131.5 440,-112.5 344,-112.5"/>
<text text-anchor="middle" x="392" y="-119.5" font-family="Helvetica,sans-Serif" font-size="10.00">Transports/UDP.h</text>
</a>
</g>
</g>
<!-- Node1&#45;&gt;Node34 -->
<g id="edge62" class="edge"><title>Node1&#45;&gt;Node34</title>
<path fill="none" stroke="midnightblue" d="M648.437,-336.395C631.846,-326.607 612.512,-313.895 597,-300 540.956,-249.798 550.421,-214.157 491,-168 472.505,-153.634 448.69,-142.624 429.053,-135.092"/>
<polygon fill="midnightblue" stroke="midnightblue" points="430.096,-131.746 419.503,-131.572 427.676,-138.314 430.096,-131.746"/>
</g>
<!-- Node37 -->
<g id="node37" class="node"><title>Node37</title>
<g id="a_node37"><a xlink:href="Unix_8h.html" target="_top" xlink:title="Transports/Unix.h">
<polygon fill="none" stroke="black" points="458.5,-112.5 458.5,-131.5 553.5,-131.5 553.5,-112.5 458.5,-112.5"/>
<text text-anchor="middle" x="506" y="-119.5" font-family="Helvetica,sans-Serif" font-size="10.00">Transports/Unix.h</text>
</a>
</g>
</g>
<!-- Node1&#45;&gt;Node37 -->
<g id="edge69" class="edge"><title>Node1&#45;&gt;Node37</title>
<path fill="none" stroke="midnightblue" d="M659.797,-336.174C634.352,-315.242 595.05,-280.302 568,-244 554.874,-226.384 528.057,-170.414 514.399,-141.179"/>
<polygon fill="midnightblue" stroke="midnightblue" points="517.4,-139.332 510.012,-131.738 511.052,-142.282 517.4,-139.332"/>
</g>
<!-- Node38 -->
<g id="node38" class="node"><title>Node38</title>
<g id="a_node38"><a xlink:href="Transports_2StdOut_8h_source.html" target="_top" xlink:title="Transports/StdOut.h">
<polygon fill="none" stroke="black" points="686.5,-112.5 686.5,-131.5 791.5,-131.5 791.5,-112.5 686.5,-112.5"/>
<text text-anchor="middle" x="739" y="-119.5" font-family="Helvetica,sans-Serif" font-size="10.00">Transports/StdOut.h</text>
</a>
</g>
</g>
<!-- Node1&#45;&gt;Node38 -->
<g id="edge76" class="edge"><title>Node1&#45;&gt;Node38</title>
<path fill="none" stroke="midnightblue" d="M689.604,-336.135C699.906,-291.684 724.694,-184.726 734.702,-141.545"/>
<polygon fill="midnightblue" stroke="midnightblue" points="738.162,-142.118 737.01,-131.586 731.343,-140.538 738.162,-142.118"/>
</g>
<!-- Node3 -->
<g id="node3" class="node"><title>Node3</title>
<g id="a_node3"><a xlink:href="Monitoring_8h.html" target="_top" xlink:title="Monitoring/Monitoring.h">
<polygon fill="none" stroke="black" points="1272,-224.5 1272,-243.5 1390,-243.5 1390,-224.5 1272,-224.5"/>
<text text-anchor="middle" x="1331" y="-231.5" font-family="Helvetica,sans-Serif" font-size="10.00">Monitoring/Monitoring.h</text>
</a>
</g>
</g>
<!-- Node2&#45;&gt;Node3 -->
<g id="edge2" class="edge"><title>Node2&#45;&gt;Node3</title>
<path fill="none" stroke="midnightblue" d="M964.085,-280.444C1045.49,-270.362 1179.95,-253.709 1261.52,-243.606"/>
<polygon fill="midnightblue" stroke="midnightblue" points="1262.19,-247.049 1271.69,-242.346 1261.33,-240.102 1262.19,-247.049"/>
</g>
<!-- Node4 -->
<g id="node4" class="node"><title>Node4</title>
<polygon fill="none" stroke="#bfbfbf" points="1332,-112.5 1332,-131.5 1378,-131.5 1378,-112.5 1332,-112.5"/>
<text text-anchor="middle" x="1355" y="-119.5" font-family="Helvetica,sans-Serif" font-size="10.00">atomic</text>
</g>
<!-- Node3&#45;&gt;Node4 -->
<g id="edge3" class="edge"><title>Node3&#45;&gt;Node4</title>
<path fill="none" stroke="midnightblue" d="M1332.88,-224.368C1336.76,-206.617 1345.69,-165.666 1350.94,-141.597"/>
<polygon fill="midnightblue" stroke="midnightblue" points="1354.41,-142.108 1353.13,-131.591 1347.57,-140.615 1354.41,-142.108"/>
</g>
<!-- Node5 -->
<g id="node5" class="node"><title>Node5</title>
<polygon fill="none" stroke="#bfbfbf" points="759,-56.5 759,-75.5 805,-75.5 805,-56.5 759,-56.5"/>
<text text-anchor="middle" x="782" y="-63.5" font-family="Helvetica,sans-Serif" font-size="10.00">chrono</text>
</g>
<!-- Node3&#45;&gt;Node5 -->
<g id="edge4" class="edge"><title>Node3&#45;&gt;Node5</title>
<path fill="none" stroke="midnightblue" d="M1271.98,-231.806C1203.84,-228.905 1089.18,-219.299 996,-188 918.793,-162.065 837.78,-107.561 801.535,-81.4907"/>
<polygon fill="midnightblue" stroke="midnightblue" points="803.46,-78.5629 793.314,-75.51 799.342,-84.2233 803.46,-78.5629"/>
</g>
<!-- Node6 -->
<g id="node6" class="node"><title>Node6</title>
<polygon fill="none" stroke="#bfbfbf" points="1330.5,-56.5 1330.5,-75.5 1365.5,-75.5 1365.5,-56.5 1330.5,-56.5"/>
<text text-anchor="middle" x="1348" y="-63.5" font-family="Helvetica,sans-Serif" font-size="10.00">map</text>
</g>
<!-- Node3&#45;&gt;Node6 -->
<g id="edge5" class="edge"><title>Node3&#45;&gt;Node6</title>
<path fill="none" stroke="midnightblue" d="M1337.79,-224.479C1350.53,-207.878 1377.58,-169.532 1387,-132 1389.16,-123.379 1390.11,-120.328 1387,-112 1382.83,-100.812 1374.48,-90.5598 1366.58,-82.6759"/>
<polygon fill="midnightblue" stroke="midnightblue" points="1368.7,-79.8724 1358.99,-75.6346 1363.94,-85.0029 1368.7,-79.8724"/>
</g>
<!-- Node7 -->
<g id="node7" class="node"><title>Node7</title>
<polygon fill="none" stroke="#bfbfbf" points="1584,-112.5 1584,-131.5 1636,-131.5 1636,-112.5 1584,-112.5"/>
<text text-anchor="middle" x="1610" y="-119.5" font-family="Helvetica,sans-Serif" font-size="10.00">memory</text>
</g>
<!-- Node3&#45;&gt;Node7 -->
<g id="edge6" class="edge"><title>Node3&#45;&gt;Node7</title>
<path fill="none" stroke="midnightblue" d="M1390.24,-229.276C1482.03,-222.895 1650.02,-208.542 1668,-188 1683.67,-170.096 1658.18,-149.65 1636.19,-136.547"/>
<polygon fill="midnightblue" stroke="midnightblue" points="1637.85,-133.463 1627.42,-131.575 1634.4,-139.552 1637.85,-133.463"/>
</g>
<!-- Node8 -->
<g id="node8" class="node"><title>Node8</title>
<polygon fill="none" stroke="#bfbfbf" points="913.5,-0.5 913.5,-19.5 954.5,-19.5 954.5,-0.5 913.5,-0.5"/>
<text text-anchor="middle" x="934" y="-7.5" font-family="Helvetica,sans-Serif" font-size="10.00">string</text>
</g>
<!-- Node3&#45;&gt;Node8 -->
<g id="edge7" class="edge"><title>Node3&#45;&gt;Node8</title>
<path fill="none" stroke="midnightblue" d="M1271.88,-229.314C1199.78,-223.857 1083.07,-211.626 1047,-188 987.321,-148.911 952.853,-66.1608 939.924,-29.3372"/>
<polygon fill="midnightblue" stroke="midnightblue" points="943.239,-28.214 936.721,-19.8611 936.607,-30.4553 943.239,-28.214"/>
</g>
<!-- Node9 -->
<g id="node9" class="node"><title>Node9</title>
<polygon fill="none" stroke="#bfbfbf" points="1227,-168.5 1227,-187.5 1271,-187.5 1271,-168.5 1227,-168.5"/>
<text text-anchor="middle" x="1249" y="-175.5" font-family="Helvetica,sans-Serif" font-size="10.00">thread</text>
</g>
<!-- Node3&#45;&gt;Node9 -->
<g id="edge8" class="edge"><title>Node3&#45;&gt;Node9</title>
<path fill="none" stroke="midnightblue" d="M1317.83,-224.324C1305.15,-215.979 1285.77,-203.212 1270.79,-193.352"/>
<polygon fill="midnightblue" stroke="midnightblue" points="1272.42,-190.231 1262.14,-187.655 1268.57,-196.078 1272.42,-190.231"/>
</g>
<!-- Node10 -->
<g id="node10" class="node"><title>Node10</title>
<polygon fill="none" stroke="#bfbfbf" points="1289,-168.5 1289,-187.5 1327,-187.5 1327,-168.5 1289,-168.5"/>
<text text-anchor="middle" x="1308" y="-175.5" font-family="Helvetica,sans-Serif" font-size="10.00">tuple</text>
</g>
<!-- Node3&#45;&gt;Node10 -->
<g id="edge9" class="edge"><title>Node3&#45;&gt;Node10</title>
<path fill="none" stroke="midnightblue" d="M1327.2,-224.083C1324.09,-216.77 1319.58,-206.181 1315.71,-197.103"/>
<polygon fill="midnightblue" stroke="midnightblue" points="1318.87,-195.58 1311.73,-187.751 1312.43,-198.323 1318.87,-195.58"/>
</g>
<!-- Node11 -->
<g id="node11" class="node"><title>Node11</title>
<polygon fill="none" stroke="#bfbfbf" points="1669.5,-112.5 1669.5,-131.5 1752.5,-131.5 1752.5,-112.5 1669.5,-112.5"/>
<text text-anchor="middle" x="1711" y="-119.5" font-family="Helvetica,sans-Serif" font-size="10.00">unordered_map</text>
</g>
<!-- Node3&#45;&gt;Node11 -->
<g id="edge10" class="edge"><title>Node3&#45;&gt;Node11</title>
<path fill="none" stroke="midnightblue" d="M1390,-232.57C1478.53,-230.775 1640.16,-222.682 1685,-188 1699.25,-176.978 1705.71,-156.93 1708.63,-142.002"/>
<polygon fill="midnightblue" stroke="midnightblue" points="1712.14,-142.244 1710.24,-131.82 1705.22,-141.15 1712.14,-142.244"/>
</g>
<!-- Node12 -->
<g id="node12" class="node"><title>Node12</title>
<polygon fill="none" stroke="#bfbfbf" points="1397,-56.5 1397,-75.5 1441,-75.5 1441,-56.5 1397,-56.5"/>
<text text-anchor="middle" x="1419" y="-63.5" font-family="Helvetica,sans-Serif" font-size="10.00">vector</text>
</g>
<!-- Node3&#45;&gt;Node12 -->
<g id="edge11" class="edge"><title>Node3&#45;&gt;Node12</title>
<path fill="none" stroke="midnightblue" d="M1343.98,-224.431C1355.42,-216.282 1371.8,-203.055 1382,-188 1403.69,-155.984 1413.04,-110.783 1416.77,-85.6696"/>
<polygon fill="midnightblue" stroke="midnightblue" points="1420.26,-86.0405 1418.11,-75.6641 1413.32,-85.1104 1420.26,-86.0405"/>
</g>
<!-- Node13 -->
<g id="node13" class="node"><title>Node13</title>
<polygon fill="none" stroke="#bfbfbf" points="1616.5,-168.5 1616.5,-187.5 1659.5,-187.5 1659.5,-168.5 1616.5,-168.5"/>
<text text-anchor="middle" x="1638" y="-175.5" font-family="Helvetica,sans-Serif" font-size="10.00">deque</text>
</g>
<!-- Node3&#45;&gt;Node13 -->
<g id="edge12" class="edge"><title>Node3&#45;&gt;Node13</title>
<path fill="none" stroke="midnightblue" d="M1390.08,-225.475C1444.05,-218.126 1526.16,-205.75 1606.61,-187.842"/>
<polygon fill="midnightblue" stroke="midnightblue" points="1607.42,-191.246 1616.41,-185.631 1605.88,-184.418 1607.42,-191.246"/>
</g>
<!-- Node14 -->
<g id="node14" class="node"><title>Node14</title>
<g id="a_node14"><a xlink:href="Backend_8h.html" target="_top" xlink:title="Monitoring/Backend.h">
<polygon fill="none" stroke="black" points="794.5,-168.5 794.5,-187.5 905.5,-187.5 905.5,-168.5 794.5,-168.5"/>
<text text-anchor="middle" x="850" y="-175.5" font-family="Helvetica,sans-Serif" font-size="10.00">Monitoring/Backend.h</text>
</a>
</g>
</g>
<!-- Node3&#45;&gt;Node14 -->
<g id="edge13" class="edge"><title>Node3&#45;&gt;Node14</title>
<path fill="none" stroke="midnightblue" d="M1271.75,-226.866C1191.83,-218.512 1045.09,-202.888 920,-188 918.7,-187.845 917.386,-187.688 916.062,-187.528"/>
<polygon fill="midnightblue" stroke="midnightblue" points="916.124,-184.009 905.773,-186.267 915.273,-190.957 916.124,-184.009"/>
</g>
<!-- Node19 -->
<g id="node19" class="node"><title>Node19</title>
<g id="a_node19"><a xlink:href="DerivedMetrics_8h.html" target="_top" xlink:title="Monitoring/DerivedMetrics.h">
<polygon fill="none" stroke="black" points="1459.5,-168.5 1459.5,-187.5 1598.5,-187.5 1598.5,-168.5 1459.5,-168.5"/>
<text text-anchor="middle" x="1529" y="-175.5" font-family="Helvetica,sans-Serif" font-size="10.00">Monitoring/DerivedMetrics.h</text>
</a>
</g>
</g>
<!-- Node3&#45;&gt;Node19 -->
<g id="edge25" class="edge"><title>Node3&#45;&gt;Node19</title>
<path fill="none" stroke="midnightblue" d="M1362.37,-224.444C1396.26,-215.201 1450.4,-200.436 1487.72,-190.257"/>
<polygon fill="midnightblue" stroke="midnightblue" points="1489.05,-193.524 1497.77,-187.516 1487.2,-186.771 1489.05,-193.524"/>
</g>
<!-- Node20 -->
<g id="node20" class="node"><title>Node20</title>
<g id="a_node20"><a xlink:href="ProcessMonitor_8h.html" target="_top" xlink:title="Monitoring/ProcessMonitor.h">
<polygon fill="none" stroke="black" points="1056.5,-168.5 1056.5,-187.5 1197.5,-187.5 1197.5,-168.5 1056.5,-168.5"/>
<text text-anchor="middle" x="1127" y="-175.5" font-family="Helvetica,sans-Serif" font-size="10.00">Monitoring/ProcessMonitor.h</text>
</a>
</g>
</g>
<!-- Node3&#45;&gt;Node20 -->
<g id="edge31" class="edge"><title>Node3&#45;&gt;Node20</title>
<path fill="none" stroke="midnightblue" d="M1298.68,-224.444C1263.61,-215.162 1207.5,-200.309 1169.04,-190.127"/>
<polygon fill="midnightblue" stroke="midnightblue" points="1169.74,-186.692 1159.17,-187.516 1167.94,-193.459 1169.74,-186.692"/>
</g>
<!-- Node14&#45;&gt;Node5 -->
<g id="edge14" class="edge"><title>Node14&#45;&gt;Node5</title>
<path fill="none" stroke="midnightblue" d="M844.664,-168.368C833.492,-150.296 807.455,-108.176 792.699,-84.3074"/>
<polygon fill="midnightblue" stroke="midnightblue" points="795.546,-82.257 787.311,-75.5914 789.592,-85.9378 795.546,-82.257"/>
</g>
<!-- Node14&#45;&gt;Node8 -->
<g id="edge15" class="edge"><title>Node14&#45;&gt;Node8</title>
<path fill="none" stroke="midnightblue" d="M854.516,-168.075C867.853,-141.719 907.242,-63.878 925.063,-28.6608"/>
<polygon fill="midnightblue" stroke="midnightblue" points="928.272,-30.0711 929.664,-19.5681 922.026,-26.9105 928.272,-30.0711"/>
</g>
<!-- Node15 -->
<g id="node15" class="node"><title>Node15</title>
<g id="a_node15"><a xlink:href="Metric_8h.html" target="_top" xlink:title="Monitoring/Metric.h">
<polygon fill="none" stroke="black" points="1176,-112.5 1176,-131.5 1276,-131.5 1276,-112.5 1176,-112.5"/>
<text text-anchor="middle" x="1226" y="-119.5" font-family="Helvetica,sans-Serif" font-size="10.00">Monitoring/Metric.h</text>
</a>
</g>
</g>
<!-- Node14&#45;&gt;Node15 -->
<g id="edge16" class="edge"><title>Node14&#45;&gt;Node15</title>
<path fill="none" stroke="midnightblue" d="M905.673,-169.199C968.813,-160.323 1074.84,-145.327 1166,-132 1166.1,-131.985 1166.2,-131.97 1166.3,-131.956"/>
<polygon fill="midnightblue" stroke="midnightblue" points="1166.53,-135.46 1175.91,-130.541 1165.51,-128.535 1166.53,-135.46"/>
</g>
<!-- Node15&#45;&gt;Node5 -->
<g id="edge18" class="edge"><title>Node15&#45;&gt;Node5</title>
<path fill="none" stroke="midnightblue" d="M1175.93,-113.366C1172.57,-112.892 1169.24,-112.432 1166,-112 1036.8,-94.7445 882.656,-77.7743 815.752,-70.5854"/>
<polygon fill="midnightblue" stroke="midnightblue" points="815.725,-67.0626 805.409,-69.4774 814.979,-74.0228 815.725,-67.0626"/>
</g>
<!-- Node15&#45;&gt;Node6 -->
<g id="edge19" class="edge"><title>Node15&#45;&gt;Node6</title>
<path fill="none" stroke="midnightblue" d="M1245.33,-112.444C1265.79,-103.388 1298.23,-89.0302 1321.16,-78.8799"/>
<polygon fill="midnightblue" stroke="midnightblue" points="1322.62,-82.0631 1330.34,-74.8151 1319.78,-75.6621 1322.62,-82.0631"/>
</g>
<!-- Node15&#45;&gt;Node8 -->
<g id="edge17" class="edge"><title>Node15&#45;&gt;Node8</title>
<path fill="none" stroke="midnightblue" d="M1216.83,-112.374C1201.39,-98.3491 1168.7,-70.6946 1136,-56 1078.69,-30.2462 1005.42,-18.6791 964.735,-13.9342"/>
<polygon fill="midnightblue" stroke="midnightblue" points="964.967,-10.4387 954.643,-12.8204 964.199,-17.3964 964.967,-10.4387"/>
</g>
<!-- Node15&#45;&gt;Node12 -->
<g id="edge22" class="edge"><title>Node15&#45;&gt;Node12</title>
<path fill="none" stroke="midnightblue" d="M1256.58,-112.444C1292.18,-102.483 1350.71,-86.1068 1386.93,-75.9717"/>
<polygon fill="midnightblue" stroke="midnightblue" points="1388.28,-79.23 1396.97,-73.1649 1386.39,-72.4889 1388.28,-79.23"/>
</g>
<!-- Node16 -->
<g id="node16" class="node"><title>Node16</title>
<polygon fill="none" stroke="#bfbfbf" points="1193.5,-56.5 1193.5,-75.5 1234.5,-75.5 1234.5,-56.5 1193.5,-56.5"/>
<text text-anchor="middle" x="1214" y="-63.5" font-family="Helvetica,sans-Serif" font-size="10.00">regex</text>
</g>
<!-- Node15&#45;&gt;Node16 -->
<g id="edge20" class="edge"><title>Node15&#45;&gt;Node16</title>
<path fill="none" stroke="midnightblue" d="M1224.02,-112.083C1222.43,-104.927 1220.14,-94.6353 1218.15,-85.6911"/>
<polygon fill="midnightblue" stroke="midnightblue" points="1221.53,-84.7537 1215.94,-75.7511 1214.7,-86.2722 1221.53,-84.7537"/>
</g>
<!-- Node17 -->
<g id="node17" class="node"><title>Node17</title>
<polygon fill="none" stroke="#bfbfbf" points="1253,-56.5 1253,-75.5 1299,-75.5 1299,-56.5 1253,-56.5"/>
<text text-anchor="middle" x="1276" y="-63.5" font-family="Helvetica,sans-Serif" font-size="10.00">variant</text>
</g>
<!-- Node15&#45;&gt;Node17 -->
<g id="edge21" class="edge"><title>Node15&#45;&gt;Node17</title>
<path fill="none" stroke="midnightblue" d="M1234.26,-112.083C1241.46,-104.298 1252.11,-92.8015 1260.85,-83.3665"/>
<polygon fill="midnightblue" stroke="midnightblue" points="1263.67,-85.4666 1267.9,-75.7511 1258.53,-80.7108 1263.67,-85.4666"/>
</g>
<!-- Node18 -->
<g id="node18" class="node"><title>Node18</title>
<g id="a_node18"><a xlink:href="Tags_8h.html" target="_top" xlink:title="Tags.h">
<polygon fill="none" stroke="black" points="1080.5,-56.5 1080.5,-75.5 1127.5,-75.5 1127.5,-56.5 1080.5,-56.5"/>
<text text-anchor="middle" x="1104" y="-63.5" font-family="Helvetica,sans-Serif" font-size="10.00">Tags.h</text>
</a>
</g>
</g>
<!-- Node15&#45;&gt;Node18 -->
<g id="edge23" class="edge"><title>Node15&#45;&gt;Node18</title>
<path fill="none" stroke="midnightblue" d="M1206.67,-112.444C1186.68,-103.596 1155.26,-89.6875 1132.44,-79.5865"/>
<polygon fill="midnightblue" stroke="midnightblue" points="1133.8,-76.3635 1123.24,-75.5164 1130.97,-82.7645 1133.8,-76.3635"/>
</g>
<!-- Node18&#45;&gt;Node8 -->
<g id="edge24" class="edge"><title>Node18&#45;&gt;Node8</title>
<path fill="none" stroke="midnightblue" d="M1080.36,-57.4915C1050.02,-47.853 997.336,-31.1185 964.141,-20.5742"/>
<polygon fill="midnightblue" stroke="midnightblue" points="965.102,-17.2071 954.511,-17.5153 962.982,-23.8786 965.102,-17.2071"/>
</g>
<!-- Node19&#45;&gt;Node7 -->
<g id="edge27" class="edge"><title>Node19&#45;&gt;Node7</title>
<path fill="none" stroke="midnightblue" d="M1542.01,-168.324C1554.53,-159.979 1573.68,-147.212 1588.47,-137.352"/>
<polygon fill="midnightblue" stroke="midnightblue" points="1590.64,-140.114 1597.02,-131.655 1586.76,-134.289 1590.64,-140.114"/>
</g>
<!-- Node19&#45;&gt;Node8 -->
<g id="edge28" class="edge"><title>Node19&#45;&gt;Node8</title>
<path fill="none" stroke="midnightblue" d="M1526.35,-168.287C1518.8,-145.176 1494.79,-82.2888 1450,-56 1408.15,-31.4346 1070,-16.3017 964.992,-12.1602"/>
<polygon fill="midnightblue" stroke="midnightblue" points="964.871,-8.65294 954.743,-11.7619 964.599,-15.6477 964.871,-8.65294"/>
</g>
<!-- Node19&#45;&gt;Node11 -->
<g id="edge26" class="edge"><title>Node19&#45;&gt;Node11</title>
<path fill="none" stroke="midnightblue" d="M1557.84,-168.444C1588.86,-159.241 1638.33,-144.562 1672.62,-134.388"/>
<polygon fill="midnightblue" stroke="midnightblue" points="1673.71,-137.716 1682.3,-131.516 1671.71,-131.006 1673.71,-137.716"/>
</g>
<!-- Node19&#45;&gt;Node12 -->
<g id="edge29" class="edge"><title>Node19&#45;&gt;Node12</title>
<path fill="none" stroke="midnightblue" d="M1520.37,-168.368C1501.89,-149.894 1458.29,-106.293 1434.74,-82.7436"/>
<polygon fill="midnightblue" stroke="midnightblue" points="1437.14,-80.1876 1427.59,-75.5914 1432.19,-85.1374 1437.14,-80.1876"/>
</g>
<!-- Node19&#45;&gt;Node15 -->
<g id="edge30" class="edge"><title>Node19&#45;&gt;Node15</title>
<path fill="none" stroke="midnightblue" d="M1480.99,-168.444C1427.47,-158.905 1340.93,-143.483 1283.76,-133.293"/>
<polygon fill="midnightblue" stroke="midnightblue" points="1284.25,-129.825 1273.79,-131.516 1283.02,-136.717 1284.25,-129.825"/>
</g>
<!-- Node20&#45;&gt;Node4 -->
<g id="edge32" class="edge"><title>Node20&#45;&gt;Node4</title>
<path fill="none" stroke="midnightblue" d="M1163.63,-168.452C1202.1,-159.457 1264.33,-144.85 1318,-132 1319.27,-131.697 1320.56,-131.387 1321.86,-131.074"/>
<polygon fill="midnightblue" stroke="midnightblue" points="1323.02,-134.395 1331.91,-128.643 1321.37,-127.591 1323.02,-134.395"/>
</g>
<!-- Node20&#45;&gt;Node8 -->
<g id="edge35" class="edge"><title>Node20&#45;&gt;Node8</title>
<path fill="none" stroke="midnightblue" d="M1112.32,-168.434C1099.26,-160.286 1080.24,-147.061 1067,-132 1041.38,-102.851 1052.14,-82.7305 1024,-56 1007.04,-39.8854 983.191,-28.3154 964.305,-20.9455"/>
<polygon fill="midnightblue" stroke="midnightblue" points="965.265,-17.5687 954.672,-17.3768 962.833,-24.1328 965.265,-17.5687"/>
</g>
<!-- Node20&#45;&gt;Node12 -->
<g id="edge36" class="edge"><title>Node20&#45;&gt;Node12</title>
<path fill="none" stroke="midnightblue" d="M1165.41,-168.425C1197.87,-160.623 1245.29,-147.907 1285,-132 1302.72,-124.904 1305.91,-120.497 1323,-112 1345.7,-100.713 1371.76,-88.5457 1391,-79.7122"/>
<polygon fill="midnightblue" stroke="midnightblue" points="1392.48,-82.8845 1400.11,-75.5408 1389.56,-76.5193 1392.48,-82.8845"/>
</g>
<!-- Node20&#45;&gt;Node15 -->
<g id="edge38" class="edge"><title>Node20&#45;&gt;Node15</title>
<path fill="none" stroke="midnightblue" d="M1142.91,-168.324C1158.64,-159.743 1182.94,-146.486 1201.21,-136.522"/>
<polygon fill="midnightblue" stroke="midnightblue" points="1203.03,-139.516 1210.13,-131.655 1199.68,-133.37 1203.03,-139.516"/>
</g>
<!-- Node20&#45;&gt;Node21 -->
<g id="edge33" class="edge"><title>Node20&#45;&gt;Node21</title>
<path fill="none" stroke="midnightblue" d="M1056.19,-173.837C868.334,-165.33 369.311,-141.938 335,-132 329.998,-130.551 274.608,-99.246 241.867,-80.6176"/>
<polygon fill="midnightblue" stroke="midnightblue" points="243.325,-77.4202 232.903,-75.5125 239.861,-83.5029 243.325,-77.4202"/>
</g>
<!-- Node22 -->
<g id="node22" class="node"><title>Node22</title>
<polygon fill="none" stroke="#bfbfbf" points="166,-112.5 166,-131.5 220,-131.5 220,-112.5 166,-112.5"/>
<text text-anchor="middle" x="193" y="-119.5" font-family="Helvetica,sans-Serif" font-size="10.00">iostream</text>
</g>
<!-- Node20&#45;&gt;Node22 -->
<g id="edge34" class="edge"><title>Node20&#45;&gt;Node22</title>
<path fill="none" stroke="midnightblue" d="M1056.2,-173.829C860.693,-165.027 322.25,-140.443 230.122,-131.528"/>
<polygon fill="midnightblue" stroke="midnightblue" points="230.35,-128.031 220.013,-130.353 229.542,-134.984 230.35,-128.031"/>
</g>
<!-- Node23 -->
<g id="node23" class="node"><title>Node23</title>
<polygon fill="none" stroke="#bfbfbf" points="1076.5,-112.5 1076.5,-131.5 1157.5,-131.5 1157.5,-112.5 1076.5,-112.5"/>
<text text-anchor="middle" x="1117" y="-119.5" font-family="Helvetica,sans-Serif" font-size="10.00">sys/resource.h</text>
</g>
<!-- Node20&#45;&gt;Node23 -->
<g id="edge37" class="edge"><title>Node20&#45;&gt;Node23</title>
<path fill="none" stroke="midnightblue" d="M1125.35,-168.083C1124.02,-160.927 1122.12,-150.635 1120.46,-141.691"/>
<polygon fill="midnightblue" stroke="midnightblue" points="1123.88,-140.947 1118.62,-131.751 1117,-142.221 1123.88,-140.947"/>
</g>
<!-- Node26&#45;&gt;Node5 -->
<g id="edge43" class="edge"><title>Node26&#45;&gt;Node5</title>
<path fill="none" stroke="midnightblue" d="M471.941,-168.466C509.766,-156.026 582.277,-132.195 644,-112 679.836,-100.275 720.924,-86.8835 748.882,-77.7789"/>
<polygon fill="midnightblue" stroke="midnightblue" points="750.13,-81.0537 758.555,-74.6296 747.962,-74.3976 750.13,-81.0537"/>
</g>
<!-- Node26&#45;&gt;Node22 -->
<g id="edge45" class="edge"><title>Node26&#45;&gt;Node22</title>
<path fill="none" stroke="midnightblue" d="M409.427,-169.886C368.24,-161.77 299.072,-147.832 230.247,-132.215"/>
<polygon fill="midnightblue" stroke="midnightblue" points="230.627,-128.712 220.099,-129.9 229.069,-135.537 230.627,-128.712"/>
</g>
<!-- Node27 -->
<g id="node27" class="node"><title>Node27</title>
<polygon fill="none" stroke="#bfbfbf" points="238,-112.5 238,-131.5 288,-131.5 288,-112.5 238,-112.5"/>
<text text-anchor="middle" x="263" y="-119.5" font-family="Helvetica,sans-Serif" font-size="10.00">iomanip</text>
</g>
<!-- Node26&#45;&gt;Node27 -->
<g id="edge44" class="edge"><title>Node26&#45;&gt;Node27</title>
<path fill="none" stroke="midnightblue" d="M417.003,-168.444C384.623,-158.889 332.239,-143.431 297.707,-133.241"/>
<polygon fill="midnightblue" stroke="midnightblue" points="298.62,-129.862 288.038,-130.388 296.639,-136.576 298.62,-129.862"/>
</g>
<!-- Node28&#45;&gt;Node8 -->
<g id="edge48" class="edge"><title>Node28&#45;&gt;Node8</title>
<path fill="none" stroke="midnightblue" d="M52.0827,-168.343C48.2161,-155.223 42.9767,-129.937 53,-112 76.1653,-70.5442 98.6924,-70.2279 144,-56 289.341,-10.3585 775.795,-10.0247 903.227,-10.7508"/>
<polygon fill="midnightblue" stroke="midnightblue" points="903.415,-14.2519 913.437,-10.8159 903.46,-7.25209 903.415,-14.2519"/>
</g>
<!-- Node28&#45;&gt;Node22 -->
<g id="edge47" class="edge"><title>Node28&#45;&gt;Node22</title>
<path fill="none" stroke="midnightblue" d="M76.8665,-168.444C99.7795,-159.478 135.975,-145.314 161.866,-135.183"/>
<polygon fill="midnightblue" stroke="midnightblue" points="163.199,-138.42 171.236,-131.516 160.648,-131.901 163.199,-138.42"/>
</g>
<!-- Node29 -->
<g id="node29" class="node"><title>Node29</title>
<polygon fill="none" stroke="#bfbfbf" points="62,-112.5 62,-131.5 110,-131.5 110,-112.5 62,-112.5"/>
<text text-anchor="middle" x="86" y="-119.5" font-family="Helvetica,sans-Serif" font-size="10.00">stdlib.h</text>
</g>
<!-- Node28&#45;&gt;Node29 -->
<g id="edge49" class="edge"><title>Node28&#45;&gt;Node29</title>
<path fill="none" stroke="midnightblue" d="M60.119,-168.083C64.4075,-160.613 70.6582,-149.724 75.9423,-140.52"/>
<polygon fill="midnightblue" stroke="midnightblue" points="79.0329,-142.166 80.9762,-131.751 72.9621,-138.681 79.0329,-142.166"/>
</g>
<!-- Node30&#45;&gt;Node8 -->
<g id="edge52" class="edge"><title>Node30&#45;&gt;Node8</title>
<path fill="none" stroke="midnightblue" d="M909.202,-224.38C910.451,-215.327 912.439,-200.673 914,-188 921.07,-130.595 928.484,-62.593 931.967,-30.1189"/>
<polygon fill="midnightblue" stroke="midnightblue" points="935.482,-30.1628 933.064,-19.8476 928.521,-29.4193 935.482,-30.1628"/>
</g>
<!-- Node30&#45;&gt;Node14 -->
<g id="edge51" class="edge"><title>Node30&#45;&gt;Node14</title>
<path fill="none" stroke="midnightblue" d="M898.681,-224.324C890.107,-216.341 877.188,-204.313 866.812,-194.653"/>
<polygon fill="midnightblue" stroke="midnightblue" points="869.192,-192.086 859.488,-187.834 864.422,-197.21 869.192,-192.086"/>
</g>
<!-- Node31&#45;&gt;Node14 -->
<g id="edge54" class="edge"><title>Node31&#45;&gt;Node14</title>
<path fill="none" stroke="midnightblue" d="M800.479,-224.324C809.201,-216.341 822.343,-204.313 832.898,-194.653"/>
<polygon fill="midnightblue" stroke="midnightblue" points="835.334,-197.167 840.348,-187.834 830.608,-192.004 835.334,-197.167"/>
</g>
<!-- Node32&#45;&gt;Node5 -->
<g id="edge60" class="edge"><title>Node32&#45;&gt;Node5</title>
<path fill="none" stroke="midnightblue" d="M634.265,-224.334C640.887,-199.547 660.771,-129.042 677,-112 687.369,-101.111 722.291,-87.3346 749.043,-77.9108"/>
<polygon fill="midnightblue" stroke="midnightblue" points="750.52,-81.1033 758.828,-74.5273 748.233,-74.4877 750.52,-81.1033"/>
</g>
<!-- Node32&#45;&gt;Node8 -->
<g id="edge61" class="edge"><title>Node32&#45;&gt;Node8</title>
<path fill="none" stroke="midnightblue" d="M648.893,-224.259C679.964,-207.878 747.781,-170.707 800,-132 845.926,-97.9571 894.427,-51.0059 918.523,-26.8179"/>
<polygon fill="midnightblue" stroke="midnightblue" points="921.178,-29.1108 925.721,-19.5392 916.201,-24.189 921.178,-29.1108"/>
</g>
<!-- Node32&#45;&gt;Node14 -->
<g id="edge56" class="edge"><title>Node32&#45;&gt;Node14</title>
<path fill="none" stroke="midnightblue" d="M666.543,-224.444C704.253,-215.102 764.74,-200.119 805.865,-189.933"/>
<polygon fill="midnightblue" stroke="midnightblue" points="806.754,-193.318 815.619,-187.516 805.071,-186.524 806.754,-193.318"/>
</g>
<!-- Node32&#45;&gt;Node26 -->
<g id="edge59" class="edge"><title>Node32&#45;&gt;Node26</title>
<path fill="none" stroke="midnightblue" d="M602.528,-224.444C570.829,-215.241 520.268,-200.562 485.225,-190.388"/>
<polygon fill="midnightblue" stroke="midnightblue" points="485.914,-186.943 475.334,-187.516 483.962,-193.666 485.914,-186.943"/>
</g>
<!-- Node33 -->
<g id="node33" class="node"><title>Node33</title>
<g id="a_node33"><a xlink:href="TransportInterface_8h.html" target="_top" xlink:title="../Transports/TransportInterface.h">
<polygon fill="none" stroke="black" points="577.5,-56.5 577.5,-75.5 740.5,-75.5 740.5,-56.5 577.5,-56.5"/>
<text text-anchor="middle" x="659" y="-63.5" font-family="Helvetica,sans-Serif" font-size="10.00">../Transports/TransportInterface.h</text>
</a>
</g>
</g>
<!-- Node32&#45;&gt;Node33 -->
<g id="edge57" class="edge"><title>Node32&#45;&gt;Node33</title>
<path fill="none" stroke="midnightblue" d="M632.197,-224.391C632.796,-204.423 635.142,-153.496 644,-112 645.913,-103.04 648.996,-93.3695 651.871,-85.2978"/>
<polygon fill="midnightblue" stroke="midnightblue" points="655.197,-86.3947 655.414,-75.8021 648.639,-83.9472 655.197,-86.3947"/>
</g>
<!-- Node33&#45;&gt;Node8 -->
<g id="edge58" class="edge"><title>Node33&#45;&gt;Node8</title>
<path fill="none" stroke="midnightblue" d="M702.575,-56.4435C758.59,-45.4441 854.443,-26.622 903.347,-17.0192"/>
<polygon fill="midnightblue" stroke="midnightblue" points="904.181,-20.4224 913.319,-15.061 902.832,-13.5535 904.181,-20.4224"/>
</g>
<!-- Node34&#45;&gt;Node5 -->
<g id="edge67" class="edge"><title>Node34&#45;&gt;Node5</title>
<path fill="none" stroke="midnightblue" d="M440.183,-113.263C443.165,-112.824 446.122,-112.4 449,-112 578.766,-93.9758 615.423,-101.351 748.49,-75.8007"/>
<polygon fill="midnightblue" stroke="midnightblue" points="749.518,-79.1664 758.664,-73.8197 748.18,-72.2955 749.518,-79.1664"/>
</g>
<!-- Node34&#45;&gt;Node8 -->
<g id="edge68" class="edge"><title>Node34&#45;&gt;Node8</title>
<path fill="none" stroke="midnightblue" d="M373.392,-112.449C348.888,-100.086 311.008,-76.4592 330,-56 369.282,-13.6824 785.781,-10.8543 903.29,-10.9045"/>
<polygon fill="midnightblue" stroke="midnightblue" points="903.397,-14.4045 913.401,-10.9165 903.405,-7.40454 903.397,-14.4045"/>
</g>
<!-- Node34&#45;&gt;Node21 -->
<g id="edge66" class="edge"><title>Node34&#45;&gt;Node21</title>
<path fill="none" stroke="midnightblue" d="M364.429,-112.444C334.903,-103.28 287.882,-88.6876 255.117,-78.5192"/>
<polygon fill="midnightblue" stroke="midnightblue" points="256.03,-75.1378 245.442,-75.5164 253.955,-81.8232 256.03,-75.1378"/>
</g>
<!-- Node34&#45;&gt;Node33 -->
<g id="edge63" class="edge"><title>Node34&#45;&gt;Node33</title>
<path fill="none" stroke="midnightblue" d="M434.307,-112.444C481.08,-102.984 556.46,-87.7384 606.85,-77.5472"/>
<polygon fill="midnightblue" stroke="midnightblue" points="607.783,-80.9294 616.891,-75.5164 606.396,-74.0683 607.783,-80.9294"/>
</g>
<!-- Node35 -->
<g id="node35" class="node"><title>Node35</title>
<polygon fill="none" stroke="#bfbfbf" points="437,-56.5 437,-75.5 521,-75.5 521,-56.5 437,-56.5"/>
<text text-anchor="middle" x="479" y="-63.5" font-family="Helvetica,sans-Serif" font-size="10.00">boost/array.hpp</text>
</g>
<!-- Node34&#45;&gt;Node35 -->
<g id="edge64" class="edge"><title>Node34&#45;&gt;Node35</title>
<path fill="none" stroke="midnightblue" d="M405.978,-112.324C419.55,-103.9 440.38,-90.9709 456.325,-81.0741"/>
<polygon fill="midnightblue" stroke="midnightblue" points="458.406,-83.9019 465.057,-75.6545 454.714,-77.9544 458.406,-83.9019"/>
</g>
<!-- Node36 -->
<g id="node36" class="node"><title>Node36</title>
<polygon fill="none" stroke="#bfbfbf" points="339,-56.5 339,-75.5 419,-75.5 419,-56.5 339,-56.5"/>
<text text-anchor="middle" x="379" y="-63.5" font-family="Helvetica,sans-Serif" font-size="10.00">boost/asio.hpp</text>
</g>
<!-- Node34&#45;&gt;Node36 -->
<g id="edge65" class="edge"><title>Node34&#45;&gt;Node36</title>
<path fill="none" stroke="midnightblue" d="M389.853,-112.083C388.131,-104.927 385.653,-94.6353 383.5,-85.6911"/>
<polygon fill="midnightblue" stroke="midnightblue" points="386.85,-84.6541 381.107,-75.7511 380.045,-86.2925 386.85,-84.6541"/>
</g>
<!-- Node37&#45;&gt;Node5 -->
<g id="edge74" class="edge"><title>Node37&#45;&gt;Node5</title>
<path fill="none" stroke="midnightblue" d="M553.734,-113.366C602.909,-105.221 681.66,-91.39 749,-76 749.101,-75.9768 749.203,-75.9536 749.304,-75.9302"/>
<polygon fill="midnightblue" stroke="midnightblue" points="750.114,-79.3356 758.983,-73.5398 748.435,-72.5398 750.114,-79.3356"/>
</g>
<!-- Node37&#45;&gt;Node8 -->
<g id="edge75" class="edge"><title>Node37&#45;&gt;Node8</title>
<path fill="none" stroke="midnightblue" d="M511.254,-112.464C520.646,-98.0488 541.803,-69.1649 568,-56 626.594,-26.5541 825.795,-15.4183 903.038,-12.1445"/>
<polygon fill="midnightblue" stroke="midnightblue" points="903.252,-15.6388 913.1,-11.7337 902.966,-8.64463 903.252,-15.6388"/>
</g>
<!-- Node37&#45;&gt;Node21 -->
<g id="edge73" class="edge"><title>Node37&#45;&gt;Node21</title>
<path fill="none" stroke="midnightblue" d="M460.366,-112.444C409.703,-102.944 327.925,-87.611 273.572,-77.4198"/>
<polygon fill="midnightblue" stroke="midnightblue" points="273.895,-73.9193 263.421,-75.5164 272.605,-80.7994 273.895,-73.9193"/>
</g>
<!-- Node37&#45;&gt;Node33 -->
<g id="edge70" class="edge"><title>Node37&#45;&gt;Node33</title>
<path fill="none" stroke="midnightblue" d="M530.243,-112.444C555.871,-103.399 596.485,-89.064 625.238,-78.9158"/>
<polygon fill="midnightblue" stroke="midnightblue" points="626.605,-82.1452 634.87,-75.5164 624.275,-75.5442 626.605,-82.1452"/>
</g>
<!-- Node37&#45;&gt;Node35 -->
<g id="edge71" class="edge"><title>Node37&#45;&gt;Node35</title>
<path fill="none" stroke="midnightblue" d="M501.541,-112.083C497.846,-104.691 492.477,-93.9533 487.906,-84.8111"/>
<polygon fill="midnightblue" stroke="midnightblue" points="490.978,-83.1301 483.376,-75.7511 484.717,-86.2606 490.978,-83.1301"/>
</g>
<!-- Node37&#45;&gt;Node36 -->
<g id="edge72" class="edge"><title>Node37&#45;&gt;Node36</title>
<path fill="none" stroke="midnightblue" d="M485.876,-112.444C464.976,-103.557 432.065,-89.5632 408.284,-79.4514"/>
<polygon fill="midnightblue" stroke="midnightblue" points="409.602,-76.2085 399.029,-75.5164 406.862,-82.6504 409.602,-76.2085"/>
</g>
<!-- Node38&#45;&gt;Node5 -->
<g id="edge78" class="edge"><title>Node38&#45;&gt;Node5</title>
<path fill="none" stroke="midnightblue" d="M746.101,-112.083C752.237,-104.377 761.27,-93.0333 768.739,-83.6531"/>
<polygon fill="midnightblue" stroke="midnightblue" points="771.54,-85.7542 775.032,-75.7511 766.064,-81.3936 771.54,-85.7542"/>
</g>
<!-- Node38&#45;&gt;Node8 -->
<g id="edge79" class="edge"><title>Node38&#45;&gt;Node8</title>
<path fill="none" stroke="midnightblue" d="M754.301,-112.368C788.119,-93.2916 869.433,-47.4223 910.059,-24.5054"/>
<polygon fill="midnightblue" stroke="midnightblue" points="911.78,-27.5531 918.77,-19.5914 908.34,-21.4563 911.78,-27.5531"/>
</g>
<!-- Node38&#45;&gt;Node33 -->
<g id="edge77" class="edge"><title>Node38&#45;&gt;Node33</title>
<path fill="none" stroke="midnightblue" d="M726.147,-112.324C713.784,-103.979 694.87,-91.2122 680.263,-81.3524"/>
<polygon fill="midnightblue" stroke="midnightblue" points="682.068,-78.3483 671.821,-75.6545 678.152,-84.1503 682.068,-78.3483"/>
</g>
</g>
</svg>
        <g id="navigator" transform="translate(0 0)" fill="#404254">
                <rect fill="#f2f5e9" fill-opacity="0.5" stroke="#606060" stroke-width=".5" x="0" y="0" width="60" height="60"/>
                <use id="zoomplus" xlink:href="#zoomPlus" x="17" y="9" onmousedown="handleZoom(evt,'in')"/>
                <use id="zoomminus" xlink:href="#zoomMin" x="42" y="9" onmousedown="handleZoom(evt,'out')"/>
                <use id="reset" xlink:href="#resetDef" x="30" y="36" onmousedown="handleReset()"/>
                <g id="arrowUp" xlink:href="#dirArrow" transform="translate(30 24)" onmousedown="handlePan(0,-1)">
                  <use xlink:href="#rim" fill="#404040">
                        <set attributeName="fill" to="#808080" begin="arrowUp.mouseover" end="arrowUp.mouseout"/>
                  </use>
                  <path fill="none" stroke="white" stroke-width="1.5" d="M0,-3.0v7 M-2.5,-0.5L0,-3.0L2.5,-0.5"/>
                </g>
                <g id="arrowRight" xlink:href="#dirArrow" transform="rotate(90) translate(36 -43)" onmousedown="handlePan(1,0)">
                  <use xlink:href="#rim" fill="#404040">
                        <set attributeName="fill" to="#808080" begin="arrowRight.mouseover" end="arrowRight.mouseout"/>
                  </use>
                  <path fill="none" stroke="white" stroke-width="1.5" d="M0,-3.0v7 M-2.5,-0.5L0,-3.0L2.5,-0.5"/>
                </g>
                <g id="arrowDown" xlink:href="#dirArrow" transform="rotate(180) translate(-30 -48)" onmousedown="handlePan(0,1)">
                  <use xlink:href="#rim" fill="#404040">
                        <set attributeName="fill" to="#808080" begin="arrowDown.mouseover" end="arrowDown.mouseout"/>
                  </use>
                  <path fill="none" stroke="white" stroke-width="1.5" d="M0,-3.0v7 M-2.5,-0.5L0,-3.0L2.5,-0.5"/>
                </g>
                <g id="arrowLeft" xlink:href="#dirArrow" transform="rotate(270) translate(-36 17)" onmousedown="handlePan(-1,0)">
                  <use xlink:href="#rim" fill="#404040">
                        <set attributeName="fill" to="#808080" begin="arrowLeft.mouseover" end="arrowLeft.mouseout"/>
                  </use>
                  <path fill="none" stroke="white" stroke-width="1.5" d="M0,-3.0v7 M-2.5,-0.5L0,-3.0L2.5,-0.5"/>
                </g>
        </g>
        <svg viewBox="0 0 15 15" width="100%" height="30px" preserveAspectRatio="xMaxYMin meet">
         <g id="arrow_out" transform="scale(0.3 0.3)">
          <a xlink:href="MonitoringFactory_8cxx__incl_org.svg" target="_base">
           <rect id="button" ry="5" rx="5" y="6" x="6" height="38" width="38"
                fill="#f2f5e9" fill-opacity="0.5" stroke="#606060" stroke-width="1.0"/>
           <path id="arrow"
             d="M 11.500037,31.436501 C 11.940474,20.09759 22.043105,11.32322 32.158766,21.979434 L 37.068811,17.246167 C 37.068811,17.246167 37.088388,32 37.088388,32 L 22.160133,31.978069 C 22.160133,31.978069 26.997745,27.140456 26.997745,27.140456 C 18.528582,18.264221 13.291696,25.230495 11.500037,31.436501 z"
             style="fill:#404040;"/>
          </a>
         </g>
        </svg>
</svg>
