<?xml version="1.0" encoding="UTF-8" standalone="no"?>
<!DOCTYPE svg PUBLIC "-//W3C//DTD SVG 1.1//EN"
 "http://www.w3.org/Graphics/SVG/1.1/DTD/svg11.dtd">
<!-- Generated by graphviz version 2.38.0 (20140413.2041)
 -->
<!-- Title: /home/travis/build/AliceO2Group/Monitoring/src/MonLogger.h Pages: 1 -->
<svg width="1606pt" height="206pt"
 viewBox="0.00 0.00 1606.00 206.00" xmlns="http://www.w3.org/2000/svg" xmlns:xlink="http://www.w3.org/1999/xlink">
<g id="graph0" class="graph" transform="scale(1 1) rotate(0) translate(4 202)">
<title>/home/travis/build/AliceO2Group/Monitoring/src/MonLogger.h</title>
<!-- Node1 -->
<g id="node1" class="node"><title>Node1</title>
<polygon fill="#bfbfbf" stroke="black" points="738,-156.5 738,-197.5 866,-197.5 866,-156.5 738,-156.5"/>
<text text-anchor="start" x="746" y="-185.5" font-family="Helvetica,sans-Serif" font-size="10.00">/home/travis/build</text>
<text text-anchor="start" x="746" y="-174.5" font-family="Helvetica,sans-Serif" font-size="10.00">/AliceO2Group/Monitoring</text>
<text text-anchor="middle" x="802" y="-163.5" font-family="Helvetica,sans-Serif" font-size="10.00">/src/MonLogger.h</text>
</g>
<!-- Node2 -->
<g id="node2" class="node"><title>Node2</title>
<g id="a_node2"><a xlink:href="ApMonBackend_8cxx.html" target="_top" xlink:title="/home/travis/build\l/AliceO2Group/Monitoring\l/src/Backends/ApMonBackend.cxx">
<polygon fill="none" stroke="black" points="0,-78.5 0,-119.5 170,-119.5 170,-78.5 0,-78.5"/>
<text text-anchor="start" x="8" y="-107.5" font-family="Helvetica,sans-Serif" font-size="10.00">/home/travis/build</text>
<text text-anchor="start" x="8" y="-96.5" font-family="Helvetica,sans-Serif" font-size="10.00">/AliceO2Group/Monitoring</text>
<text text-anchor="middle" x="85" y="-85.5" font-family="Helvetica,sans-Serif" font-size="10.00">/src/Backends/ApMonBackend.cxx</text>
</a>
</g>
</g>
<!-- Node1&#45;&gt;Node2 -->
<g id="edge1" class="edge"><title>Node1&#45;&gt;Node2</title>
<path fill="none" stroke="midnightblue" d="M727.403,-172.129C610.315,-165.413 376.462,-149.42 180,-120 176.75,-119.513 173.443,-118.985 170.108,-118.423"/>
<polygon fill="midnightblue" stroke="midnightblue" points="727.499,-175.64 737.682,-172.711 727.896,-168.651 727.499,-175.64"/>
</g>
<!-- Node3 -->
<g id="node3" class="node"><title>Node3</title>
<g id="a_node3"><a xlink:href="InfluxDB_8h.html" target="_top" xlink:title="/home/travis/build\l/AliceO2Group/Monitoring\l/src/Backends/InfluxDB.h">
<polygon fill="none" stroke="black" points="188.5,-78.5 188.5,-119.5 317.5,-119.5 317.5,-78.5 188.5,-78.5"/>
<text text-anchor="start" x="196.5" y="-107.5" font-family="Helvetica,sans-Serif" font-size="10.00">/home/travis/build</text>
<text text-anchor="start" x="196.5" y="-96.5" font-family="Helvetica,sans-Serif" font-size="10.00">/AliceO2Group/Monitoring</text>
<text text-anchor="middle" x="253" y="-85.5" font-family="Helvetica,sans-Serif" font-size="10.00">/src/Backends/InfluxDB.h</text>
</a>
</g>
</g>
<!-- Node1&#45;&gt;Node3 -->
<g id="edge2" class="edge"><title>Node1&#45;&gt;Node3</title>
<path fill="none" stroke="midnightblue" d="M727.586,-170.128C634.542,-162.101 470.624,-145.694 332,-120 327.27,-119.123 322.403,-118.127 317.519,-117.058"/>
<polygon fill="midnightblue" stroke="midnightblue" points="727.485,-173.632 737.746,-170.996 728.08,-166.658 727.485,-173.632"/>
</g>
<!-- Node5 -->
<g id="node5" class="node"><title>Node5</title>
<g id="a_node5"><a xlink:href="MonitoringFactory_8cxx.html" target="_top" xlink:title="/home/travis/build\l/AliceO2Group/Monitoring\l/src/MonitoringFactory.cxx">
<polygon fill="none" stroke="black" points="279.5,-0.5 279.5,-41.5 412.5,-41.5 412.5,-0.5 279.5,-0.5"/>
<text text-anchor="start" x="287.5" y="-29.5" font-family="Helvetica,sans-Serif" font-size="10.00">/home/travis/build</text>
<text text-anchor="start" x="287.5" y="-18.5" font-family="Helvetica,sans-Serif" font-size="10.00">/AliceO2Group/Monitoring</text>
<text text-anchor="middle" x="346" y="-7.5" font-family="Helvetica,sans-Serif" font-size="10.00">/src/MonitoringFactory.cxx</text>
</a>
</g>
</g>
<!-- Node1&#45;&gt;Node5 -->
<g id="edge8" class="edge"><title>Node1&#45;&gt;Node5</title>
<path fill="none" stroke="midnightblue" d="M727.74,-176.613C616.966,-175.903 415.99,-167.824 365,-120 343.764,-100.082 342.217,-64.1013 343.664,-41.7181"/>
<polygon fill="midnightblue" stroke="midnightblue" points="727.828,-180.114 737.844,-176.659 727.86,-173.114 727.828,-180.114"/>
</g>
<!-- Node6 -->
<g id="node6" class="node"><title>Node6</title>
<polygon fill="none" stroke="#bfbfbf" points="374,-78.5 374,-119.5 506,-119.5 506,-78.5 374,-78.5"/>
<text text-anchor="start" x="382" y="-107.5" font-family="Helvetica,sans-Serif" font-size="10.00">/home/travis/build</text>
<text text-anchor="start" x="382" y="-96.5" font-family="Helvetica,sans-Serif" font-size="10.00">/AliceO2Group/Monitoring</text>
<text text-anchor="middle" x="440" y="-85.5" font-family="Helvetica,sans-Serif" font-size="10.00">/src/Backends/StdOut.cxx</text>
</g>
<!-- Node1&#45;&gt;Node6 -->
<g id="edge5" class="edge"><title>Node1&#45;&gt;Node6</title>
<path fill="none" stroke="midnightblue" d="M727.702,-162.8C669.812,-152.19 587.529,-136.397 516,-120 512.808,-119.268 509.547,-118.498 506.257,-117.703"/>
<polygon fill="midnightblue" stroke="midnightblue" points="727.392,-166.301 737.858,-164.654 728.649,-159.415 727.392,-166.301"/>
</g>
<!-- Node7 -->
<g id="node7" class="node"><title>Node7</title>
<g id="a_node7"><a xlink:href="MonitoringException_8cxx.html" target="_top" xlink:title="/home/travis/build\l/AliceO2Group/Monitoring\l/src/Exceptions/MonitoringException.cxx">
<polygon fill="none" stroke="black" points="524.5,-78.5 524.5,-119.5 719.5,-119.5 719.5,-78.5 524.5,-78.5"/>
<text text-anchor="start" x="532.5" y="-107.5" font-family="Helvetica,sans-Serif" font-size="10.00">/home/travis/build</text>
<text text-anchor="start" x="532.5" y="-96.5" font-family="Helvetica,sans-Serif" font-size="10.00">/AliceO2Group/Monitoring</text>
<text text-anchor="middle" x="622" y="-85.5" font-family="Helvetica,sans-Serif" font-size="10.00">/src/Exceptions/MonitoringException.cxx</text>
</a>
</g>
</g>
<!-- Node1&#45;&gt;Node7 -->
<g id="edge6" class="edge"><title>Node1&#45;&gt;Node7</title>
<path fill="none" stroke="midnightblue" d="M746.269,-152.469C721.218,-141.892 692.004,-129.557 668.197,-119.506"/>
<polygon fill="midnightblue" stroke="midnightblue" points="745.072,-155.763 755.646,-156.428 747.794,-149.314 745.072,-155.763"/>
</g>
<!-- Node8 -->
<g id="node8" class="node"><title>Node8</title>
<g id="a_node8"><a xlink:href="Monitoring_8cxx.html" target="_top" xlink:title="/home/travis/build\l/AliceO2Group/Monitoring\l/src/Monitoring.cxx">
<polygon fill="none" stroke="black" points="738,-78.5 738,-119.5 866,-119.5 866,-78.5 738,-78.5"/>
<text text-anchor="start" x="746" y="-107.5" font-family="Helvetica,sans-Serif" font-size="10.00">/home/travis/build</text>
<text text-anchor="start" x="746" y="-96.5" font-family="Helvetica,sans-Serif" font-size="10.00">/AliceO2Group/Monitoring</text>
<text text-anchor="middle" x="802" y="-85.5" font-family="Helvetica,sans-Serif" font-size="10.00">/src/Monitoring.cxx</text>
</a>
</g>
</g>
<!-- Node1&#45;&gt;Node8 -->
<g id="edge7" class="edge"><title>Node1&#45;&gt;Node8</title>
<path fill="none" stroke="midnightblue" d="M802,-146.297C802,-137.301 802,-127.653 802,-119.506"/>
<polygon fill="midnightblue" stroke="midnightblue" points="798.5,-146.428 802,-156.428 805.5,-146.428 798.5,-146.428"/>
</g>
<!-- Node9 -->
<g id="node9" class="node"><title>Node9</title>
<g id="a_node9"><a xlink:href="ProcessMonitor_8cxx.html" target="_top" xlink:title="/home/travis/build\l/AliceO2Group/Monitoring\l/src/ProcessMonitor.cxx">
<polygon fill="none" stroke="black" points="884,-78.5 884,-119.5 1012,-119.5 1012,-78.5 884,-78.5"/>
<text text-anchor="start" x="892" y="-107.5" font-family="Helvetica,sans-Serif" font-size="10.00">/home/travis/build</text>
<text text-anchor="start" x="892" y="-96.5" font-family="Helvetica,sans-Serif" font-size="10.00">/AliceO2Group/Monitoring</text>
<text text-anchor="middle" x="948" y="-85.5" font-family="Helvetica,sans-Serif" font-size="10.00">/src/ProcessMonitor.cxx</text>
</a>
</g>
</g>
<!-- Node1&#45;&gt;Node9 -->
<g id="edge9" class="edge"><title>Node1&#45;&gt;Node9</title>
<path fill="none" stroke="midnightblue" d="M848.552,-151.768C868.565,-141.35 891.644,-129.336 910.529,-119.506"/>
<polygon fill="midnightblue" stroke="midnightblue" points="846.853,-148.706 839.599,-156.428 850.085,-154.915 846.853,-148.706"/>
</g>
<!-- Node10 -->
<g id="node10" class="node"><title>Node10</title>
<g id="a_node10"><a xlink:href="Kafka_8cxx.html" target="_top" xlink:title="/home/travis/build\l/AliceO2Group/Monitoring\l/src/Transports/Kafka.cxx">
<polygon fill="none" stroke="black" points="1030,-78.5 1030,-119.5 1160,-119.5 1160,-78.5 1030,-78.5"/>
<text text-anchor="start" x="1038" y="-107.5" font-family="Helvetica,sans-Serif" font-size="10.00">/home/travis/build</text>
<text text-anchor="start" x="1038" y="-96.5" font-family="Helvetica,sans-Serif" font-size="10.00">/AliceO2Group/Monitoring</text>
<text text-anchor="middle" x="1095" y="-85.5" font-family="Helvetica,sans-Serif" font-size="10.00">/src/Transports/Kafka.cxx</text>
</a>
</g>
</g>
<!-- Node1&#45;&gt;Node10 -->
<g id="edge10" class="edge"><title>Node1&#45;&gt;Node10</title>
<path fill="none" stroke="midnightblue" d="M875.965,-157.353C918.439,-146.579 972.761,-132.686 1021,-120 1023.83,-119.255 1026.72,-118.491 1029.64,-117.716"/>
<polygon fill="midnightblue" stroke="midnightblue" points="875.097,-153.962 866.264,-159.812 876.817,-160.748 875.097,-153.962"/>
</g>
<!-- Node11 -->
<g id="node11" class="node"><title>Node11</title>
<g id="a_node11"><a xlink:href="TCP_8cxx.html" target="_top" xlink:title="/home/travis/build\l/AliceO2Group/Monitoring\l/src/Transports/TCP.cxx">
<polygon fill="none" stroke="black" points="1178,-78.5 1178,-119.5 1306,-119.5 1306,-78.5 1178,-78.5"/>
<text text-anchor="start" x="1186" y="-107.5" font-family="Helvetica,sans-Serif" font-size="10.00">/home/travis/build</text>
<text text-anchor="start" x="1186" y="-96.5" font-family="Helvetica,sans-Serif" font-size="10.00">/AliceO2Group/Monitoring</text>
<text text-anchor="middle" x="1242" y="-85.5" font-family="Helvetica,sans-Serif" font-size="10.00">/src/Transports/TCP.cxx</text>
</a>
</g>
</g>
<!-- Node1&#45;&gt;Node11 -->
<g id="edge11" class="edge"><title>Node1&#45;&gt;Node11</title>
<path fill="none" stroke="midnightblue" d="M876.268,-167.237C950.728,-157.85 1068.45,-141.371 1169,-120 1171.83,-119.399 1174.71,-118.754 1177.61,-118.076"/>
<polygon fill="midnightblue" stroke="midnightblue" points="875.543,-163.8 866.054,-168.514 876.411,-170.746 875.543,-163.8"/>
</g>
<!-- Node12 -->
<g id="node12" class="node"><title>Node12</title>
<g id="a_node12"><a xlink:href="UDP_8cxx.html" target="_top" xlink:title="/home/travis/build\l/AliceO2Group/Monitoring\l/src/Transports/UDP.cxx">
<polygon fill="none" stroke="black" points="1324,-78.5 1324,-119.5 1452,-119.5 1452,-78.5 1324,-78.5"/>
<text text-anchor="start" x="1332" y="-107.5" font-family="Helvetica,sans-Serif" font-size="10.00">/home/travis/build</text>
<text text-anchor="start" x="1332" y="-96.5" font-family="Helvetica,sans-Serif" font-size="10.00">/AliceO2Group/Monitoring</text>
<text text-anchor="middle" x="1388" y="-85.5" font-family="Helvetica,sans-Serif" font-size="10.00">/src/Transports/UDP.cxx</text>
</a>
</g>
</g>
<!-- Node1&#45;&gt;Node12 -->
<g id="edge12" class="edge"><title>Node1&#45;&gt;Node12</title>
<path fill="none" stroke="midnightblue" d="M876.087,-171.616C976.311,-164.844 1160.35,-149.433 1315,-120 1317.84,-119.459 1320.73,-118.864 1323.64,-118.227"/>
<polygon fill="midnightblue" stroke="midnightblue" points="875.808,-168.127 866.062,-172.283 876.273,-175.111 875.808,-168.127"/>
</g>
<!-- Node13 -->
<g id="node13" class="node"><title>Node13</title>
<g id="a_node13"><a xlink:href="Unix_8cxx.html" target="_top" xlink:title="/home/travis/build\l/AliceO2Group/Monitoring\l/src/Transports/Unix.cxx">
<polygon fill="none" stroke="black" points="1470,-78.5 1470,-119.5 1598,-119.5 1598,-78.5 1470,-78.5"/>
<text text-anchor="start" x="1478" y="-107.5" font-family="Helvetica,sans-Serif" font-size="10.00">/home/travis/build</text>
<text text-anchor="start" x="1478" y="-96.5" font-family="Helvetica,sans-Serif" font-size="10.00">/AliceO2Group/Monitoring</text>
<text text-anchor="middle" x="1534" y="-85.5" font-family="Helvetica,sans-Serif" font-size="10.00">/src/Transports/Unix.cxx</text>
</a>
</g>
</g>
<!-- Node1&#45;&gt;Node13 -->
<g id="edge13" class="edge"><title>Node1&#45;&gt;Node13</title>
<path fill="none" stroke="midnightblue" d="M876.147,-174.106C998.734,-169.992 1250.99,-157.369 1461,-120 1463.85,-119.494 1466.74,-118.926 1469.66,-118.313"/>
<polygon fill="midnightblue" stroke="midnightblue" points="876,-170.609 866.12,-174.433 876.229,-177.605 876,-170.609"/>
</g>
<!-- Node4 -->
<g id="node4" class="node"><title>Node4</title>
<g id="a_node4"><a xlink:href="InfluxDB_8cxx.html" target="_top" xlink:title="/home/travis/build\l/AliceO2Group/Monitoring\l/src/Backends/InfluxDB.cxx">
<polygon fill="none" stroke="black" points="121,-0.5 121,-41.5 261,-41.5 261,-0.5 121,-0.5"/>
<text text-anchor="start" x="129" y="-29.5" font-family="Helvetica,sans-Serif" font-size="10.00">/home/travis/build</text>
<text text-anchor="start" x="129" y="-18.5" font-family="Helvetica,sans-Serif" font-size="10.00">/AliceO2Group/Monitoring</text>
<text text-anchor="middle" x="191" y="-7.5" font-family="Helvetica,sans-Serif" font-size="10.00">/src/Backends/InfluxDB.cxx</text>
</a>
</g>
</g>
<!-- Node3&#45;&gt;Node4 -->
<g id="edge3" class="edge"><title>Node3&#45;&gt;Node4</title>
<path fill="none" stroke="midnightblue" d="M230.669,-70.627C222.808,-60.9901 214.137,-50.3617 206.912,-41.5056"/>
<polygon fill="midnightblue" stroke="midnightblue" points="228,-72.8919 237.033,-78.4281 233.424,-68.467 228,-72.8919"/>
</g>
<!-- Node3&#45;&gt;Node5 -->
<g id="edge4" class="edge"><title>Node3&#45;&gt;Node5</title>
<path fill="none" stroke="midnightblue" d="M284.737,-72.0648C296.982,-62.0574 310.752,-50.8045 322.131,-41.5056"/>
<polygon fill="midnightblue" stroke="midnightblue" points="282.478,-69.3901 276.95,-78.4281 286.908,-74.8104 282.478,-69.3901"/>
</g>
</g>
</svg>
