<?xml version="1.0" encoding="UTF-8" standalone="no"?>
<!DOCTYPE svg PUBLIC "-//W3C//DTD SVG 1.1//EN"
 "http://www.w3.org/Graphics/SVG/1.1/DTD/svg11.dtd">
<!-- Generated by graphviz version 2.38.0 (20140413.2041)
 -->
<!-- Title: /home/travis/build/AliceO2Group/Monitoring/include/Monitoring/ProcessMonitor.h Pages: 1 -->
<svg width="2231pt" height="295pt"
 viewBox="0.00 0.00 2230.50 295.00" xmlns="http://www.w3.org/2000/svg" xmlns:xlink="http://www.w3.org/1999/xlink">
<g id="graph0" class="graph" transform="scale(1 1) rotate(0) translate(4 291)">
<title>/home/travis/build/AliceO2Group/Monitoring/include/Monitoring/ProcessMonitor.h</title>
<!-- Node1 -->
<g id="node1" class="node"><title>Node1</title>
<polygon fill="#bfbfbf" stroke="black" points="1893,-245.5 1893,-286.5 2071,-286.5 2071,-245.5 1893,-245.5"/>
<text text-anchor="start" x="1901" y="-274.5" font-family="Helvetica,sans-Serif" font-size="10.00">/home/travis/build</text>
<text text-anchor="start" x="1901" y="-263.5" font-family="Helvetica,sans-Serif" font-size="10.00">/AliceO2Group/Monitoring</text>
<text text-anchor="middle" x="1982" y="-252.5" font-family="Helvetica,sans-Serif" font-size="10.00">/include/Monitoring/ProcessMonitor.h</text>
</g>
<!-- Node2 -->
<g id="node2" class="node"><title>Node2</title>
<g id="a_node2"><a xlink:href="Monitoring_8h.html" target="_top" xlink:title="/home/travis/build\l/AliceO2Group/Monitoring\l/include/Monitoring/Monitoring.h">
<polygon fill="none" stroke="black" points="1461.5,-167.5 1461.5,-208.5 1616.5,-208.5 1616.5,-167.5 1461.5,-167.5"/>
<text text-anchor="start" x="1469.5" y="-196.5" font-family="Helvetica,sans-Serif" font-size="10.00">/home/travis/build</text>
<text text-anchor="start" x="1469.5" y="-185.5" font-family="Helvetica,sans-Serif" font-size="10.00">/AliceO2Group/Monitoring</text>
<text text-anchor="middle" x="1539" y="-174.5" font-family="Helvetica,sans-Serif" font-size="10.00">/include/Monitoring/Monitoring.h</text>
</a>
</g>
</g>
<!-- Node1&#45;&gt;Node2 -->
<g id="edge1" class="edge"><title>Node1&#45;&gt;Node2</title>
<path fill="none" stroke="midnightblue" d="M1882.74,-247.971C1802.27,-234.167 1690.48,-214.987 1616.5,-202.296"/>
<polygon fill="midnightblue" stroke="midnightblue" points="1882.44,-251.47 1892.89,-249.712 1883.62,-244.571 1882.44,-251.47"/>
</g>
<!-- Node17 -->
<g id="node17" class="node"><title>Node17</title>
<polygon fill="none" stroke="#bfbfbf" points="2079.5,-0.5 2079.5,-41.5 2222.5,-41.5 2222.5,-0.5 2079.5,-0.5"/>
<text text-anchor="start" x="2087.5" y="-29.5" font-family="Helvetica,sans-Serif" font-size="10.00">/home/travis/build</text>
<text text-anchor="start" x="2087.5" y="-18.5" font-family="Helvetica,sans-Serif" font-size="10.00">/AliceO2Group/Monitoring</text>
<text text-anchor="middle" x="2151" y="-7.5" font-family="Helvetica,sans-Serif" font-size="10.00">/test/testProcessMonitor.cxx</text>
</g>
<!-- Node1&#45;&gt;Node17 -->
<g id="edge19" class="edge"><title>Node1&#45;&gt;Node17</title>
<path fill="none" stroke="midnightblue" d="M1983.12,-235.205C1984.96,-214.924 1989.58,-188.049 2001,-167 2030.44,-112.714 2087.2,-66.4201 2121.83,-41.5525"/>
<polygon fill="midnightblue" stroke="midnightblue" points="1979.61,-235.2 1982.37,-245.428 1986.59,-235.71 1979.61,-235.2"/>
</g>
<!-- Node19 -->
<g id="node19" class="node"><title>Node19</title>
<g id="a_node19"><a xlink:href="ProcessMonitor_8cxx.html" target="_top" xlink:title="/home/travis/build\l/AliceO2Group/Monitoring\l/src/ProcessMonitor.cxx">
<polygon fill="none" stroke="black" points="2010,-167.5 2010,-208.5 2138,-208.5 2138,-167.5 2010,-167.5"/>
<text text-anchor="start" x="2018" y="-196.5" font-family="Helvetica,sans-Serif" font-size="10.00">/home/travis/build</text>
<text text-anchor="start" x="2018" y="-185.5" font-family="Helvetica,sans-Serif" font-size="10.00">/AliceO2Group/Monitoring</text>
<text text-anchor="middle" x="2074" y="-174.5" font-family="Helvetica,sans-Serif" font-size="10.00">/src/ProcessMonitor.cxx</text>
</a>
</g>
</g>
<!-- Node1&#45;&gt;Node19 -->
<g id="edge18" class="edge"><title>Node1&#45;&gt;Node19</title>
<path fill="none" stroke="midnightblue" d="M2013.74,-238.779C2025.77,-228.843 2039.24,-217.716 2050.39,-208.506"/>
<polygon fill="midnightblue" stroke="midnightblue" points="2011.17,-236.361 2005.69,-245.428 2015.63,-241.758 2011.17,-236.361"/>
</g>
<!-- Node3 -->
<g id="node3" class="node"><title>Node3</title>
<g id="a_node3"><a xlink:href="MonitoringFactory_8h.html" target="_top" xlink:title="/home/travis/build\l/AliceO2Group/Monitoring\l/include/Monitoring/Monitoring\lFactory.h">
<polygon fill="none" stroke="black" points="1142,-78.5 1142,-130.5 1288,-130.5 1288,-78.5 1142,-78.5"/>
<text text-anchor="start" x="1150" y="-118.5" font-family="Helvetica,sans-Serif" font-size="10.00">/home/travis/build</text>
<text text-anchor="start" x="1150" y="-107.5" font-family="Helvetica,sans-Serif" font-size="10.00">/AliceO2Group/Monitoring</text>
<text text-anchor="start" x="1150" y="-96.5" font-family="Helvetica,sans-Serif" font-size="10.00">/include/Monitoring/Monitoring</text>
<text text-anchor="middle" x="1215" y="-85.5" font-family="Helvetica,sans-Serif" font-size="10.00">Factory.h</text>
</a>
</g>
</g>
<!-- Node2&#45;&gt;Node3 -->
<g id="edge2" class="edge"><title>Node2&#45;&gt;Node3</title>
<path fill="none" stroke="midnightblue" d="M1451.66,-165.031C1400.49,-152.158 1336.58,-136.083 1288.08,-123.883"/>
<polygon fill="midnightblue" stroke="midnightblue" points="1450.84,-168.433 1461.39,-167.479 1452.55,-161.645 1450.84,-168.433"/>
</g>
<!-- Node18 -->
<g id="node18" class="node"><title>Node18</title>
<g id="a_node18"><a xlink:href="Monitoring_8cxx.html" target="_top" xlink:title="/home/travis/build\l/AliceO2Group/Monitoring\l/src/Monitoring.cxx">
<polygon fill="none" stroke="black" points="1475,-84 1475,-125 1603,-125 1603,-84 1475,-84"/>
<text text-anchor="start" x="1483" y="-113" font-family="Helvetica,sans-Serif" font-size="10.00">/home/travis/build</text>
<text text-anchor="start" x="1483" y="-102" font-family="Helvetica,sans-Serif" font-size="10.00">/AliceO2Group/Monitoring</text>
<text text-anchor="middle" x="1539" y="-91" font-family="Helvetica,sans-Serif" font-size="10.00">/src/Monitoring.cxx</text>
</a>
</g>
</g>
<!-- Node2&#45;&gt;Node18 -->
<g id="edge17" class="edge"><title>Node2&#45;&gt;Node18</title>
<path fill="none" stroke="midnightblue" d="M1539,-157.065C1539,-146.382 1539,-134.63 1539,-125.047"/>
<polygon fill="midnightblue" stroke="midnightblue" points="1535.5,-157.271 1539,-167.271 1542.5,-157.271 1535.5,-157.271"/>
</g>
<!-- Node4 -->
<g id="node4" class="node"><title>Node4</title>
<g id="a_node4"><a xlink:href="1-Basic_8cxx.html" target="_top" xlink:title="/home/travis/build\l/AliceO2Group/Monitoring\l/examples/1&#45;Basic.cxx">
<polygon fill="none" stroke="black" points="0,-0.5 0,-41.5 128,-41.5 128,-0.5 0,-0.5"/>
<text text-anchor="start" x="8" y="-29.5" font-family="Helvetica,sans-Serif" font-size="10.00">/home/travis/build</text>
<text text-anchor="start" x="8" y="-18.5" font-family="Helvetica,sans-Serif" font-size="10.00">/AliceO2Group/Monitoring</text>
<text text-anchor="middle" x="64" y="-7.5" font-family="Helvetica,sans-Serif" font-size="10.00">/examples/1&#45;Basic.cxx</text>
</a>
</g>
</g>
<!-- Node3&#45;&gt;Node4 -->
<g id="edge3" class="edge"><title>Node3&#45;&gt;Node4</title>
<path fill="none" stroke="midnightblue" d="M1131.79,-101.019C913.526,-94.1476 328.211,-73.2893 137,-42 134.147,-41.5331 131.245,-40.9988 128.324,-40.4121"/>
<polygon fill="midnightblue" stroke="midnightblue" points="1131.8,-104.521 1141.91,-101.335 1132.02,-97.5241 1131.8,-104.521"/>
</g>
<!-- Node5 -->
<g id="node5" class="node"><title>Node5</title>
<g id="a_node5"><a xlink:href="10-Buffering_8cxx.html" target="_top" xlink:title="/home/travis/build\l/AliceO2Group/Monitoring\l/examples/10&#45;Buffering.cxx">
<polygon fill="none" stroke="black" points="146,-0.5 146,-41.5 282,-41.5 282,-0.5 146,-0.5"/>
<text text-anchor="start" x="154" y="-29.5" font-family="Helvetica,sans-Serif" font-size="10.00">/home/travis/build</text>
<text text-anchor="start" x="154" y="-18.5" font-family="Helvetica,sans-Serif" font-size="10.00">/AliceO2Group/Monitoring</text>
<text text-anchor="middle" x="214" y="-7.5" font-family="Helvetica,sans-Serif" font-size="10.00">/examples/10&#45;Buffering.cxx</text>
</a>
</g>
</g>
<!-- Node3&#45;&gt;Node5 -->
<g id="edge4" class="edge"><title>Node3&#45;&gt;Node5</title>
<path fill="none" stroke="midnightblue" d="M1131.28,-103.168C968.393,-101.369 597.913,-91.6216 291,-42 288.137,-41.5371 285.225,-41.0155 282.292,-40.448"/>
<polygon fill="midnightblue" stroke="midnightblue" points="1131.67,-106.672 1141.7,-103.275 1131.74,-99.6725 1131.67,-106.672"/>
</g>
<!-- Node6 -->
<g id="node6" class="node"><title>Node6</title>
<g id="a_node6"><a xlink:href="2-TaggedMetrics_8cxx.html" target="_top" xlink:title="/home/travis/build\l/AliceO2Group/Monitoring\l/examples/2&#45;TaggedMetrics.cxx">
<polygon fill="none" stroke="black" points="300,-0.5 300,-41.5 456,-41.5 456,-0.5 300,-0.5"/>
<text text-anchor="start" x="308" y="-29.5" font-family="Helvetica,sans-Serif" font-size="10.00">/home/travis/build</text>
<text text-anchor="start" x="308" y="-18.5" font-family="Helvetica,sans-Serif" font-size="10.00">/AliceO2Group/Monitoring</text>
<text text-anchor="middle" x="378" y="-7.5" font-family="Helvetica,sans-Serif" font-size="10.00">/examples/2&#45;TaggedMetrics.cxx</text>
</a>
</g>
</g>
<!-- Node3&#45;&gt;Node6 -->
<g id="edge5" class="edge"><title>Node3&#45;&gt;Node6</title>
<path fill="none" stroke="midnightblue" d="M1131.78,-100.595C992.904,-94.8711 705.406,-79.2905 465,-42 462.09,-41.5486 459.133,-41.0541 456.152,-40.5253"/>
<polygon fill="midnightblue" stroke="midnightblue" points="1131.79,-104.098 1141.93,-101.006 1132.08,-97.1035 1131.79,-104.098"/>
</g>
<!-- Node7 -->
<g id="node7" class="node"><title>Node7</title>
<polygon fill="none" stroke="#bfbfbf" points="474.5,-0.5 474.5,-41.5 607.5,-41.5 607.5,-0.5 474.5,-0.5"/>
<text text-anchor="start" x="482.5" y="-29.5" font-family="Helvetica,sans-Serif" font-size="10.00">/home/travis/build</text>
<text text-anchor="start" x="482.5" y="-18.5" font-family="Helvetica,sans-Serif" font-size="10.00">/AliceO2Group/Monitoring</text>
<text text-anchor="middle" x="541" y="-7.5" font-family="Helvetica,sans-Serif" font-size="10.00">/examples/3&#45;Verbosity.cxx</text>
</g>
<!-- Node3&#45;&gt;Node7 -->
<g id="edge6" class="edge"><title>Node3&#45;&gt;Node7</title>
<path fill="none" stroke="midnightblue" d="M1131.37,-99.1029C1015.05,-92.0376 798.155,-75.421 616,-42 613.217,-41.4893 610.385,-40.9278 607.532,-40.3273"/>
<polygon fill="midnightblue" stroke="midnightblue" points="1131.44,-102.613 1141.63,-99.7167 1131.86,-95.6253 1131.44,-102.613"/>
</g>
<!-- Node8 -->
<g id="node8" class="node"><title>Node8</title>
<g id="a_node8"><a xlink:href="4-RateDerivedMetric_8cxx.html" target="_top" xlink:title="/home/travis/build\l/AliceO2Group/Monitoring\l/examples/4&#45;RateDerivedMetric.cxx">
<polygon fill="none" stroke="black" points="625.5,-0.5 625.5,-41.5 798.5,-41.5 798.5,-0.5 625.5,-0.5"/>
<text text-anchor="start" x="633.5" y="-29.5" font-family="Helvetica,sans-Serif" font-size="10.00">/home/travis/build</text>
<text text-anchor="start" x="633.5" y="-18.5" font-family="Helvetica,sans-Serif" font-size="10.00">/AliceO2Group/Monitoring</text>
<text text-anchor="middle" x="712" y="-7.5" font-family="Helvetica,sans-Serif" font-size="10.00">/examples/4&#45;RateDerivedMetric.cxx</text>
</a>
</g>
</g>
<!-- Node3&#45;&gt;Node8 -->
<g id="edge7" class="edge"><title>Node3&#45;&gt;Node8</title>
<path fill="none" stroke="midnightblue" d="M1131.74,-92.3881C1049.12,-81.0238 918.997,-62.2127 807,-42 804.263,-41.5061 801.485,-40.9927 798.681,-40.4645"/>
<polygon fill="midnightblue" stroke="midnightblue" points="1131.44,-95.8799 1141.82,-93.7708 1132.39,-88.9448 1131.44,-95.8799"/>
</g>
<!-- Node9 -->
<g id="node9" class="node"><title>Node9</title>
<g id="a_node9"><a xlink:href="5-Benchmark_8cxx.html" target="_top" xlink:title="/home/travis/build\l/AliceO2Group/Monitoring\l/examples/5&#45;Benchmark.cxx">
<polygon fill="none" stroke="black" points="816.5,-0.5 816.5,-41.5 957.5,-41.5 957.5,-0.5 816.5,-0.5"/>
<text text-anchor="start" x="824.5" y="-29.5" font-family="Helvetica,sans-Serif" font-size="10.00">/home/travis/build</text>
<text text-anchor="start" x="824.5" y="-18.5" font-family="Helvetica,sans-Serif" font-size="10.00">/AliceO2Group/Monitoring</text>
<text text-anchor="middle" x="887" y="-7.5" font-family="Helvetica,sans-Serif" font-size="10.00">/examples/5&#45;Benchmark.cxx</text>
</a>
</g>
</g>
<!-- Node3&#45;&gt;Node9 -->
<g id="edge8" class="edge"><title>Node3&#45;&gt;Node9</title>
<path fill="none" stroke="midnightblue" d="M1132.16,-83.168C1083.71,-71.2433 1021.37,-55.8458 966,-42 963.255,-41.3135 960.457,-40.6123 957.63,-39.9027"/>
<polygon fill="midnightblue" stroke="midnightblue" points="1131.43,-86.5911 1141.97,-85.5816 1133.1,-79.7938 1131.43,-86.5911"/>
</g>
<!-- Node10 -->
<g id="node10" class="node"><title>Node10</title>
<g id="a_node10"><a xlink:href="6-Increment_8cxx.html" target="_top" xlink:title="/home/travis/build\l/AliceO2Group/Monitoring\l/examples/6&#45;Increment.cxx">
<polygon fill="none" stroke="black" points="975.5,-0.5 975.5,-41.5 1110.5,-41.5 1110.5,-0.5 975.5,-0.5"/>
<text text-anchor="start" x="983.5" y="-29.5" font-family="Helvetica,sans-Serif" font-size="10.00">/home/travis/build</text>
<text text-anchor="start" x="983.5" y="-18.5" font-family="Helvetica,sans-Serif" font-size="10.00">/AliceO2Group/Monitoring</text>
<text text-anchor="middle" x="1043" y="-7.5" font-family="Helvetica,sans-Serif" font-size="10.00">/examples/6&#45;Increment.cxx</text>
</a>
</g>
</g>
<!-- Node3&#45;&gt;Node10 -->
<g id="edge9" class="edge"><title>Node3&#45;&gt;Node10</title>
<path fill="none" stroke="midnightblue" d="M1152.74,-74.0012C1130,-63.2235 1104.85,-51.3065 1084.37,-41.6027"/>
<polygon fill="midnightblue" stroke="midnightblue" points="1151.46,-77.2631 1161.99,-78.3823 1154.45,-70.9374 1151.46,-77.2631"/>
</g>
<!-- Node11 -->
<g id="node11" class="node"><title>Node11</title>
<polygon fill="none" stroke="#bfbfbf" points="1128.5,-0.5 1128.5,-41.5 1301.5,-41.5 1301.5,-0.5 1128.5,-0.5"/>
<text text-anchor="start" x="1136.5" y="-29.5" font-family="Helvetica,sans-Serif" font-size="10.00">/home/travis/build</text>
<text text-anchor="start" x="1136.5" y="-18.5" font-family="Helvetica,sans-Serif" font-size="10.00">/AliceO2Group/Monitoring</text>
<text text-anchor="middle" x="1215" y="-7.5" font-family="Helvetica,sans-Serif" font-size="10.00">/examples/7&#45;InternalBenchamrk.cxx</text>
</g>
<!-- Node3&#45;&gt;Node11 -->
<g id="edge10" class="edge"><title>Node3&#45;&gt;Node11</title>
<path fill="none" stroke="midnightblue" d="M1215,-68.1474C1215,-59.0546 1215,-49.5968 1215,-41.6282"/>
<polygon fill="midnightblue" stroke="midnightblue" points="1211.5,-68.1596 1215,-78.1596 1218.5,-68.1597 1211.5,-68.1596"/>
</g>
<!-- Node12 -->
<g id="node12" class="node"><title>Node12</title>
<g id="a_node12"><a xlink:href="MonitoringFactory_8cxx.html" target="_top" xlink:title="/home/travis/build\l/AliceO2Group/Monitoring\l/src/MonitoringFactory.cxx">
<polygon fill="none" stroke="black" points="1319.5,-0.5 1319.5,-41.5 1452.5,-41.5 1452.5,-0.5 1319.5,-0.5"/>
<text text-anchor="start" x="1327.5" y="-29.5" font-family="Helvetica,sans-Serif" font-size="10.00">/home/travis/build</text>
<text text-anchor="start" x="1327.5" y="-18.5" font-family="Helvetica,sans-Serif" font-size="10.00">/AliceO2Group/Monitoring</text>
<text text-anchor="middle" x="1386" y="-7.5" font-family="Helvetica,sans-Serif" font-size="10.00">/src/MonitoringFactory.cxx</text>
</a>
</g>
</g>
<!-- Node3&#45;&gt;Node12 -->
<g id="edge11" class="edge"><title>Node3&#45;&gt;Node12</title>
<path fill="none" stroke="midnightblue" d="M1276.89,-74.0012C1299.51,-63.2235 1324.51,-51.3065 1344.87,-41.6027"/>
<polygon fill="midnightblue" stroke="midnightblue" points="1275.22,-70.9203 1267.7,-78.3823 1278.23,-77.2393 1275.22,-70.9203"/>
</g>
<!-- Node13 -->
<g id="node13" class="node"><title>Node13</title>
<polygon fill="none" stroke="#bfbfbf" points="1471,-0.5 1471,-41.5 1599,-41.5 1599,-0.5 1471,-0.5"/>
<text text-anchor="start" x="1479" y="-29.5" font-family="Helvetica,sans-Serif" font-size="10.00">/home/travis/build</text>
<text text-anchor="start" x="1479" y="-18.5" font-family="Helvetica,sans-Serif" font-size="10.00">/AliceO2Group/Monitoring</text>
<text text-anchor="middle" x="1535" y="-7.5" font-family="Helvetica,sans-Serif" font-size="10.00">/test/testApMon.cxx</text>
</g>
<!-- Node3&#45;&gt;Node13 -->
<g id="edge12" class="edge"><title>Node3&#45;&gt;Node13</title>
<path fill="none" stroke="midnightblue" d="M1298,-83.1671C1345.73,-71.3683 1406.81,-56.0966 1461,-42 1464.22,-41.1625 1467.52,-40.2978 1470.84,-39.4192"/>
<polygon fill="midnightblue" stroke="midnightblue" points="1296.89,-79.8353 1288.02,-85.6305 1298.57,-86.6312 1296.89,-79.8353"/>
</g>
<!-- Node14 -->
<g id="node14" class="node"><title>Node14</title>
<polygon fill="none" stroke="#bfbfbf" points="1617,-0.5 1617,-41.5 1745,-41.5 1745,-0.5 1617,-0.5"/>
<text text-anchor="start" x="1625" y="-29.5" font-family="Helvetica,sans-Serif" font-size="10.00">/home/travis/build</text>
<text text-anchor="start" x="1625" y="-18.5" font-family="Helvetica,sans-Serif" font-size="10.00">/AliceO2Group/Monitoring</text>
<text text-anchor="middle" x="1681" y="-7.5" font-family="Helvetica,sans-Serif" font-size="10.00">/test/testInfluxDb.cxx</text>
</g>
<!-- Node3&#45;&gt;Node14 -->
<g id="edge13" class="edge"><title>Node3&#45;&gt;Node14</title>
<path fill="none" stroke="midnightblue" d="M1298.25,-93.2314C1378.14,-82.7282 1501.97,-64.7468 1608,-42 1610.83,-41.3936 1613.71,-40.7438 1616.61,-40.0624"/>
<polygon fill="midnightblue" stroke="midnightblue" points="1297.71,-89.7724 1288.24,-94.5378 1298.61,-96.7135 1297.71,-89.7724"/>
</g>
<!-- Node15 -->
<g id="node15" class="node"><title>Node15</title>
<polygon fill="none" stroke="#bfbfbf" points="1763,-0.5 1763,-41.5 1891,-41.5 1891,-0.5 1763,-0.5"/>
<text text-anchor="start" x="1771" y="-29.5" font-family="Helvetica,sans-Serif" font-size="10.00">/home/travis/build</text>
<text text-anchor="start" x="1771" y="-18.5" font-family="Helvetica,sans-Serif" font-size="10.00">/AliceO2Group/Monitoring</text>
<text text-anchor="middle" x="1827" y="-7.5" font-family="Helvetica,sans-Serif" font-size="10.00">/test/testMonitoring.cxx</text>
</g>
<!-- Node3&#45;&gt;Node15 -->
<g id="edge14" class="edge"><title>Node3&#45;&gt;Node15</title>
<path fill="none" stroke="midnightblue" d="M1298.5,-94.6883C1438.69,-79.7861 1710.41,-50.406 1754,-42 1756.84,-41.4526 1759.73,-40.8515 1762.64,-40.2101"/>
<polygon fill="midnightblue" stroke="midnightblue" points="1297.8,-91.2426 1288.22,-95.7793 1298.54,-98.2035 1297.8,-91.2426"/>
</g>
<!-- Node16 -->
<g id="node16" class="node"><title>Node16</title>
<polygon fill="none" stroke="#bfbfbf" points="1909,-0.5 1909,-41.5 2061,-41.5 2061,-0.5 1909,-0.5"/>
<text text-anchor="start" x="1917" y="-29.5" font-family="Helvetica,sans-Serif" font-size="10.00">/home/travis/build</text>
<text text-anchor="start" x="1917" y="-18.5" font-family="Helvetica,sans-Serif" font-size="10.00">/AliceO2Group/Monitoring</text>
<text text-anchor="middle" x="1985" y="-7.5" font-family="Helvetica,sans-Serif" font-size="10.00">/test/testMonitoringFactory.cxx</text>
</g>
<!-- Node3&#45;&gt;Node16 -->
<g id="edge15" class="edge"><title>Node3&#45;&gt;Node16</title>
<path fill="none" stroke="midnightblue" d="M1298.21,-94.6571C1347.06,-89.5626 1410.01,-83.1657 1466,-78 1658.73,-60.2178 1708.83,-72.2486 1900,-42 1902.84,-41.5498 1905.74,-41.0563 1908.65,-40.5284"/>
<polygon fill="midnightblue" stroke="midnightblue" points="1297.59,-91.2029 1288,-95.7236 1298.31,-98.165 1297.59,-91.2029"/>
</g>
<!-- Node3&#45;&gt;Node17 -->
<g id="edge16" class="edge"><title>Node3&#45;&gt;Node17</title>
<path fill="none" stroke="midnightblue" d="M1298.43,-94.1433C1347.23,-88.8907 1410.06,-82.5069 1466,-78 1734.05,-56.4049 1804.13,-82.4003 2070,-42 2073.01,-41.543 2076.07,-41.0264 2079.15,-40.4631"/>
<polygon fill="midnightblue" stroke="midnightblue" points="1297.8,-90.6907 1288.24,-95.2459 1298.56,-97.6501 1297.8,-90.6907"/>
</g>
</g>
</svg>
