<?xml version="1.0" encoding="UTF-8" standalone="no"?>
<!DOCTYPE svg PUBLIC "-//W3C//DTD SVG 1.1//EN"
 "http://www.w3.org/Graphics/SVG/1.1/DTD/svg11.dtd">
<!-- Generated by graphviz version 2.38.0 (20140413.2041)
 -->
<!-- Title: http::url Pages: 1 -->
<svg width="117pt" height="226pt"
 viewBox="0.00 0.00 116.50 226.00" xmlns="http://www.w3.org/2000/svg" xmlns:xlink="http://www.w3.org/1999/xlink">
<g id="graph0" class="graph" transform="scale(1 1) rotate(0) translate(4 222)">
<title>http::url</title>
<!-- Node1 -->
<g id="node1" class="node"><title>Node1</title>
<polygon fill="#bfbfbf" stroke="black" points="15.5,-0.5 15.5,-57.5 65.5,-57.5 65.5,-0.5 15.5,-0.5"/>
<text text-anchor="middle" x="40.5" y="-45.5" font-family="Helvetica,sans-Serif" font-size="10.00">http::url</text>
<polyline fill="none" stroke="black" points="15.5,-38.5 65.5,-38.5 "/>
<text text-anchor="middle" x="40.5" y="-26.5" font-family="Helvetica,sans-Serif" font-size="10.00"> </text>
<polyline fill="none" stroke="black" points="15.5,-19.5 65.5,-19.5 "/>
<text text-anchor="middle" x="40.5" y="-7.5" font-family="Helvetica,sans-Serif" font-size="10.00"> </text>
</g>
<!-- Node2 -->
<g id="node2" class="node"><title>Node2</title>
<polygon fill="none" stroke="#bfbfbf" points="0,-160.5 0,-217.5 29,-217.5 29,-160.5 0,-160.5"/>
<text text-anchor="middle" x="14.5" y="-205.5" font-family="Helvetica,sans-Serif" font-size="10.00">int</text>
<polyline fill="none" stroke="#bfbfbf" points="0,-198.5 29,-198.5 "/>
<text text-anchor="middle" x="14.5" y="-186.5" font-family="Helvetica,sans-Serif" font-size="10.00"> </text>
<polyline fill="none" stroke="#bfbfbf" points="0,-179.5 29,-179.5 "/>
<text text-anchor="middle" x="14.5" y="-167.5" font-family="Helvetica,sans-Serif" font-size="10.00"> </text>
</g>
<!-- Node2&#45;&gt;Node1 -->
<g id="edge1" class="edge"><title>Node2&#45;&gt;Node1</title>
<path fill="none" stroke="#404040" d="M12.83,-160.434C12.1275,-137.51 12.7067,-104.194 19.5,-76 20.0552,-73.6956 20.7269,-71.3656 21.4844,-69.0411"/>
<polygon fill="none" stroke="#404040" points="21.5686,-68.8199 19.9686,-61.7885 25.8437,-57.6072 27.4437,-64.6386 21.5686,-68.8199"/>
<text text-anchor="middle" x="32.5" y="-106.5" font-family="Helvetica,sans-Serif" font-size="10.00"> +port</text>
</g>
<!-- Node3 -->
<g id="node3" class="node"><title>Node3</title>
<polygon fill="none" stroke="#bfbfbf" points="47,-160.5 47,-217.5 88,-217.5 88,-160.5 47,-160.5"/>
<text text-anchor="middle" x="67.5" y="-205.5" font-family="Helvetica,sans-Serif" font-size="10.00">string</text>
<polyline fill="none" stroke="#bfbfbf" points="47,-198.5 88,-198.5 "/>
<text text-anchor="middle" x="67.5" y="-186.5" font-family="Helvetica,sans-Serif" font-size="10.00"> </text>
<polyline fill="none" stroke="#bfbfbf" points="47,-179.5 88,-179.5 "/>
<text text-anchor="middle" x="67.5" y="-167.5" font-family="Helvetica,sans-Serif" font-size="10.00"> </text>
</g>
<!-- Node3&#45;&gt;Node1 -->
<g id="edge2" class="edge"><title>Node3&#45;&gt;Node1</title>
<path fill="none" stroke="#404040" d="M62.797,-160.479C58.5064,-135.371 52.1162,-97.976 47.2752,-69.6477"/>
<polygon fill="none" stroke="#404040" points="47.2612,-69.5648 42.3076,-64.3243 45.2397,-57.7362 50.1933,-62.9767 47.2612,-69.5648"/>
<text text-anchor="middle" x="84" y="-134" font-family="Helvetica,sans-Serif" font-size="10.00"> +host</text>
<text text-anchor="middle" x="84" y="-123" font-family="Helvetica,sans-Serif" font-size="10.00">+search</text>
<text text-anchor="middle" x="84" y="-112" font-family="Helvetica,sans-Serif" font-size="10.00">+user</text>
<text text-anchor="middle" x="84" y="-101" font-family="Helvetica,sans-Serif" font-size="10.00">+password</text>
<text text-anchor="middle" x="84" y="-90" font-family="Helvetica,sans-Serif" font-size="10.00">+protocol</text>
<text text-anchor="middle" x="84" y="-79" font-family="Helvetica,sans-Serif" font-size="10.00">+path</text>
</g>
</g>
</svg>
